<svg width="271" height="267" xmlns="http://www.w3.org/2000/svg">
  <defs>
    <filter x="-2.7%" y="-2.7%" width="105.4%" height="105.4%" filterUnits="objectBoundingBox" id="a">
      <feOffset dy="2" in="SourceAlpha" result="shadowOffsetOuter1"/>
      <feGaussianBlur stdDeviation="2" in="shadowOffsetOuter1" result="shadowBlurOuter1"/>
      <feColorMatrix values="0 0 0 0 0 0 0 0 0 0 0 0 0 0 0 0 0 0 0.5 0" in="shadowBlurOuter1" result="shadowMatrixOuter1"/>
      <feMerge>
        <feMergeNode in="shadowMatrixOuter1"/>
        <feMergeNode in="SourceGraphic"/>
      </feMerge>
    </filter>
  </defs>
  <g filter="url(#a)" transform="translate(-90 -56)" fill="none" fill-rule="evenodd">
    <path d="M138.95 244.948c-40.441-42.503-42.357-107.807-6.506-152.464L268.94 58.453c13.704 5.902 26.49 14.562 37.502 25.967 42.406 43.912 43.241 112.66 3.352 157.546l45.778-.8 1.239 70.99-260.961 4.555-1.239-70.989 44.338-.774z" fill="#000"/>
    <path d="M138.95 244.948c-40.441-42.503-42.357-107.807-6.506-152.464L268.94 58.453c13.704 5.902 26.49 14.562 37.502 25.967 42.406 43.912 43.241 112.66 3.352 157.546l45.778-.8 1.239 70.99-260.961 4.555-1.239-70.989 44.338-.774z" fill="#FFF"/>
    <path d="M215.226 113.297l-1.799-18.594M190.606 120.943l-9.56-14.886M258.789 133.86l14.075-10.72M238.301 118.43l8.05-16.86" stroke="#444" stroke-width="4" stroke-linecap="round"/>
    <g fill="#FAC036">
      <path d="M181.04 207.996c7.28 1.018 14.52-6.123 15.359-7.68.794-1.167 1.5-2.228 2.13-3.169 1.19-1.75 2.512-3.732 3.856-5.777l.832-1.26-.013.01c4.912-7.474 9.896-15.29 9.896-15.29.932-1.308.22-3.106-1.408-3.614-4.716-1.463-8.8.032-11.528 3.77l-5.733 8.67c-.58 1.049-2.338.694-2.41-.503-.263-4.466 1.674-12.63 1.674-12.63.454-3.796 5.795-25.88 6.25-27.239.873-2.581.12-5.427-2.317-6.156-2.49-.75-4.828.2-5.756 3.094-.273.838-6.796 23.477-6.796 23.477-.22 1.312-1.7 1.306-1.562-.054.31-3.036 4.002-28.211 4.274-29.493.56-2.67-.513-5.428-3.015-5.914-2.558-.495-4.765.677-5.347 3.654-.177.943-4.075 21.254-5.53 29.248-.095.537-.62.888-1.209.828l-.022-.004c-.553-.064-.971-.514-.937-1.029.373-7.565 1.918-23.827 2.092-25.004.396-2.699-.835-5.396-3.36-5.753-2.58-.367-4.708.93-5.101 3.929-.115.91-2.252 17.899-3.233 26.154-.075.618-.617 1.065-1.289 1.09-.01-.001-.022-.003-.023.008-.787.038-1.466-.536-1.518-1.265-.465-6.273-.833-14.057-.837-14.999.019-2.732-1.58-5.273-4.125-5.323-2.602-.05-4.525 1.494-4.494 4.523.007.987-.197 15.16.256 22.14a31.3 31.3 0 0 1-.033 4.48c-.499 6.29-.588 9.232-.588 9.232-1.754 16.746 5.667 22.861 17.836 25.583l13.73 2.266z"/>
      <path d="M181.87 224.256s1.614-12.618 6.195-17.447c-1.228-.216-32.982-8.529-34.429-8.784 2.335 1.12-2.525 20.796-2.525 20.796l30.76 5.424-.002.011z"/>
    </g>
    <path d="M153.542 199.825c3.054 3.952 8.44 6.264 14.18 7.578l13.493 2.222c2.678.364 6.122-.476 8.488-1.807" stroke="#E39E49" stroke-width="4" fill="#FAC036"/>
    <g fill="#FAC036">
      <path d="M251.147 221.823c12.364 1.616 21.442-1.602 25.51-17.944 0 0 .923-2.795 2.606-8.879.4-1.436.899-2.855 1.502-4.222 2.813-6.405 7.469-19.796 7.813-20.721 1.067-2.847-.211-4.956-2.675-5.79-2.41-.823-4.78 1.02-5.698 3.593-.314.887-3.323 8.077-5.916 13.812-.299.667-1.133.974-1.86.67-.01-.003-.021-.005-.02-.015-.621-.254-.976-.87-.837-1.466 1.902-8.095 5.705-24.794 5.908-25.688.659-2.964-.899-4.9-3.449-5.438-2.495-.529-4.586 1.584-5.125 4.258-.24 1.165-4.35 16.979-6.587 24.217-.155.493-.69.775-1.233.646l-.022-.003c-.576-.135-.947-.655-.853-1.192 1.368-8.011 4.662-28.422 4.808-29.382.472-2.997-1.19-4.852-3.774-5.263-2.518-.4-4.47 1.826-4.856 4.527-.182 1.287-5.312 26.214-6.072 29.182-.336 1.326-1.74.823-1.486-.484 0 0 1.602-23.511 1.644-24.39.128-3.035-1.745-4.717-4.35-4.877-2.551-.15-4.221 2.269-4.284 4.994-.048 1.432-2.586 24.025-3.457 27.749 0 0-.972 8.336-2.748 12.442-.476 1.102-2.249.833-2.436-.352l-2.422-10.108c-1.284-4.447-4.61-7.25-9.542-7.487-1.715-.081-2.988 1.367-2.56 2.916 0 0 2.01 9.05 4.07 17.754l-.01-.012.352 1.468a452.269 452.269 0 0 0 1.647 6.749c.267 1.11.582 2.34.917 3.706.255 1.762 4.616 10.94 11.806 12.473l13.69 2.557z"/>
      <path d="M231.117 234.265s2.799-12.411.145-18.518c1.228.217 33.91 3.266 35.358 3.52-2.577.255-4.741 20.411-4.741 20.411l-30.76-5.424-.002.011z"/>
    </g>
    <path d="M230.265 216.393c1.768 2.06 4.718 4.027 7.358 4.601l13.44 2.527c5.853.73 11.705.4 15.916-2.27" stroke="#E39E49" stroke-width="4" fill="#FAC036"/>
    <path d="M268.294 57.782c-3.092 3.85-6.424 7.5-9.976 10.929-34.68 33.49-84.85 41.052-126.522 23.104l136.498-34.033z" fill="#E1E1E1"/>
    <g fill="#232045" font-family="Chalkboard SE, Comic Sans MS, sans-serif" font-size="36">
      <text transform="rotate(-1 14563.31 -8195.605)">
        <tspan x=".363" y="35.62">Awesome.</tspan>
      </text>
    </g>
  </g>
</svg>
