<svg width="275" height="295" xmlns="http://www.w3.org/2000/svg">
  <defs>
    <filter x="-3.8%" y="-4.1%" width="107.7%" height="108.1%" filterUnits="objectBoundingBox" id="a">
      <feOffset dy="2" in="SourceAlpha" result="shadowOffsetOuter1"/>
      <feGaussianBlur stdDeviation="2" in="shadowOffsetOuter1" result="shadowBlurOuter1"/>
      <feColorMatrix values="0 0 0 0 0 0 0 0 0 0 0 0 0 0 0 0 0 0 0.5 0" in="shadowBlurOuter1" result="shadowMatrixOuter1"/>
      <feMerge>
        <feMergeNode in="shadowMatrixOuter1"/>
        <feMergeNode in="SourceGraphic"/>
      </feMerge>
    </filter>
  </defs>
  <g fill="none" fill-rule="evenodd">
    <g filter="url(#a)" transform="rotate(-116 142.442 170.058)">
      <path d="M139.962 77.41a115.224 115.224 0 0 1 41.27-13.479l121.83 70.339C308.819 148.035 312 163.146 312 179c0 64.065-51.935 116-116 116-50.75 0-93.89-32.591-109.628-77.986L66.375 269.11.091 243.664 93.625 0l66.284 25.444-19.947 51.965v.001z" fill="#000"/>
      <path d="M139.962 77.41a115.224 115.224 0 0 1 41.27-13.479l121.83 70.339C308.819 148.035 312 163.146 312 179c0 64.065-51.935 116-116 116-50.75 0-93.89-32.591-109.628-77.986L66.375 269.11.091 243.664 93.625 0l66.284 25.444-19.947 51.965v.001z" fill="#FFF"/>
    </g>
    <path d="M39.027 41.79a117.123 117.123 0 0 1 7.31 12.866c21.135 43.331 12.824 93.382-17.123 127.468L39.027 41.79z" fill="#E1E1E1"/>
    <text transform="rotate(-6 2118.515 -777.036)" fill="#232045" font-family="Chalkboard SE, Comic Sans MS, sans-serif" font-size="36">
      <tspan x=".133" y="35.401">Bad.</tspan>
    </text>
    <path d="M145.394 141.294c7.12 2.023 19.739 1.756 23.432 1.488 6.46-.465 12.92-.325 14.031-8.199.741-5.303-1.03-10.129-8.856-10.99-2.755-.302-6.124-.465-8.903-.907l-2.176-2.407c2.57.349 8.463.233 10.234.454 7.479.918 13.8-2.094 14.75-9.316.833-6.326-3.914-11.21-10.652-10.838-2.304.127-8.81-.768-15.27-.942l-.498-1.315-.231-.395c4.098-.116 8.023-.28 10.813-.419 7.467-.372 11.542-4.396 11.438-9.745-.128-6.501-6.182-8.943-10.512-9.304-3.242-.267-14.842.07-22.633.71l-1.227-2.105c.555-.012 15.478-.733 16.045-.768 6.842-.512 9.76-3 9.586-7.908-.243-6.885-7.56-8.71-11.519-9.339-6.425-1.023-14.992-.72-21.232-.895-13.5-.372-41.122-.977-54.019 10.373-4.399 3.873-8.833 9.141-12.607 10.653-7.907 3.163-8.59 13.514-8.231 26.597.173 6.326-1.992 24.085 5.65 28.388 10.72 6.035 28.895 10.594 34.939 15.362 9.91 7.827 15.698 20.561 18.338 28.016 5.024 14.2 6.552 24.457 15.34 24.457 15.397 0 14.992-13.816 15.281-20.724.567-13.525-16.046-38.552-11.31-39.982z" fill="#FAC036"/>
    <path d="M131.965 110.495c.15-6.979 5.49-9.973 5.733-10.101-3.063.07-9.698-3.064-9.698-9.717 0-5.487 2.96-9.763 5.93-11.219-1.954-.42-5.641-3.1-5.641-8.948 0-8.574 6.311-11.708 11.085-12.303 4.774-.594 18.044.21 22.425.886 2.347.361-11.628.524-21.858 1.876-2.936.384-6.439 3.169-7.005 6.92 0 0-.832 4.951 3.653 7.806 0 0 1.895 1.643 10.692 1.573l2.659-.035c.832-.059 11.455-.431 14.992-.688 1.56-.116 2.901-.338 4.057-.664-.185.268-.393.711-.323 1.352.15 1.351 1.029 1.41 1.26 1.41l-2.104.116-7.49.431c-7.468.454-17.987 1.177-19.2 1.666 0 0-7.33 1.864-7.33 9.437 0 0-.38 6.443 9.399 6.746 0 0 23.107 1.34 32.886.035 0 0-1.399 2.621.913 3.798 0 0-16.495-.408-26.83-.688-10.333-.28-12.541 5.255-12.807 8.272-.035.455-.127 1.177-.127 2.027 0 6 5.225 6.793 12.704 7.771 16.136 2.132 22.968 2.796 22.968 2.796.89.105 1.734.164 2.555.152-.451.256-1.064.734-1.145 1.526-.046.513.208 1.293.208 1.293s-6.958-.57-17.697-2.015c-10.727-1.445-19.304-.78-20.079 5.545-.566 4.637.208 7.585 2.197 9.88 2.45 2.831 6.392 4.24 6.392 4.24s-.45.094-.705.432c-.254.35-.266.897-.266.897-8.75-1.118-14.738-6.722-14.241-13.922.347-4.929 1.641-8.214 4.89-9.81.011.012-3.202-1.806-3.052-8.773z" fill="#E48C15"/>
    <path d="M136.278 126l-3.91-1.108s5.794-20.911-15.59-35.321c0 0-2.744-1.802-1.414-3.153 0 0 .93-1.57 4.864 1.374 0 .012 20.867 13.36 16.05 38.208z" fill="#E48C15"/>
  </g>
</svg>
