<svg width="277" height="285" xmlns="http://www.w3.org/2000/svg">
  <defs>
    <filter x="-2.8%" y="-2.8%" width="105.5%" height="105.5%" filterUnits="objectBoundingBox" id="a">
      <feOffset dy="2" in="SourceAlpha" result="shadowOffsetOuter1"/>
      <feGaussianBlur stdDeviation="2" in="shadowOffsetOuter1" result="shadowBlurOuter1"/>
      <feColorMatrix values="0 0 0 0 0 0 0 0 0 0 0 0 0 0 0 0 0 0 0.5 0" in="shadowBlurOuter1" result="shadowMatrixOuter1"/>
      <feMerge>
        <feMergeNode in="shadowMatrixOuter1"/>
        <feMergeNode in="SourceGraphic"/>
      </feMerge>
    </filter>
    <linearGradient x1="50.174%" y1="50.237%" x2="50.174%" y2="50.237%" id="b">
      <stop stop-color="#43A047" offset="0%"/>
      <stop stop-color="#66BB6A" offset="99.92%"/>
    </linearGradient>
    <linearGradient x1="27.052%" y1="90.151%" x2="72.636%" y2="9.238%" id="c">
      <stop stop-color="#43A047" offset="0%"/>
      <stop stop-color="#66BB6A" offset="99.92%"/>
    </linearGradient>
  </defs>
  <g filter="url(#a)" transform="translate(-92 -48)" fill="none" fill-rule="evenodd">
    <path d="M139.983 249.74a117.372 117.372 0 0 1-8.317-8.08c-35.486-38.054-40.461-93.619-15.977-136.557l129.497-54.968c20.82 5.292 40.415 16.423 56.153 33.3 35.993 38.597 40.597 95.21 14.91 138.389l37.872-6 11.107 70.126-257.787 40.83-11.107-70.126 43.649-6.912v-.001z" fill="#000"/>
    <path d="M139.983 249.74a117.372 117.372 0 0 1-8.317-8.08c-35.486-38.054-40.461-93.619-15.977-136.557l129.497-54.968c20.82 5.292 40.415 16.423 56.153 33.3 35.993 38.597 40.597 95.21 14.91 138.389l37.872-6 11.107 70.126-257.787 40.83-11.107-70.126 43.649-6.912v-.001z" fill="#FFF"/>
    <g transform="rotate(12 -365.285 874.746)">
      <path d="M10.734 23.852c-3.268-.337-9.415-2.484-10.557 2.28-.777 4.22 6.074 9.249 10.715 9.755-2.332.94-3.657 4.402-2.515 6.91 2.418 5.667 10.205 6.572 15.174 4.679-3.85 4.136.778 9.695 5.176 10.877 4.397 1.181 10.107-2.617 12.938-5.403 0 0 8.905-8.935.984-11.54-13.607-4.474-16.437-19.306-23.313-27.952C16.639 10.033 8.232 4.81 4.1 9.78c-3.56 4.69 3.596 11.094 6.633 14.072z" fill="#CFD8DC"/>
      <path d="M8.62 10.13c3.11 0 7.217 2.797 8.808 4.799 1.993 2.508 3.657 5.643 5.43 8.972 4.083 7.681 8.711 16.388 19.026 19.776.935.314 1.47.687 1.58 1.146.364 1.495-1.811 4.69-3.512 6.403-2.478 2.448-6.524 4.932-9.464 4.932-.4 0-.777-.048-1.118-.133-2.065-.554-4.167-2.472-4.689-4.28-.291-1.001-.073-1.834.668-2.641.766-.82.863-2.063.219-2.991a2.448 2.448 0 0 0-2.017-1.061c-.291 0-.583.048-.874.157-1.24.47-2.746.735-4.24.735-1.422 0-6.208-.301-7.824-4.1-.012-.024-.012-.036-.024-.06-.28-.627-.268-1.508.048-2.303.267-.664.717-1.194 1.166-1.375a2.422 2.422 0 0 0 1.495-2.569 2.417 2.417 0 0 0-2.15-2.062C8.644 33.21 5.108 31.1 3.432 28.87c-.644-.868-.972-1.688-.887-2.267.134-.567.352-1.122 2.187-1.122 1.117 0 2.442.23 3.608.434.753.133 1.47.254 2.138.326.085.012.17.012.255.012.936 0 1.786-.53 2.2-1.387a2.416 2.416 0 0 0-.487-2.75l-.595-.578c-2.54-2.46-7.812-7.56-5.831-10.286.656-.76 1.482-1.122 2.6-1.122zm0-2.412c-1.7 0-3.292.578-4.519 2.05-3.56 4.703 3.584 11.094 6.633 14.072-1.615-.169-3.924-.771-6.001-.771-2.126 0-3.985.639-4.568 3.05-.778 4.221 6.074 9.25 10.715 9.756-2.332.94-3.657 4.401-2.515 6.91 1.677 3.93 5.953 5.57 10.072 5.57 1.81 0 3.583-.313 5.102-.891-3.851 4.136.778 9.695 5.175 10.877a6.59 6.59 0 0 0 1.762.217c4.07 0 8.71-3.196 11.177-5.632 0 0 8.905-8.935.984-11.54C29.03 36.912 26.2 22.08 19.323 13.434c-1.895-2.4-6.633-5.716-10.703-5.716z" opacity=".2" fill="#424242" fill-rule="nonzero"/>
      <path d="M65.38 3.75l.084.036" fill="url(#b)"/>
      <path d="M81.343 76.911c12.975-16.195 28.197-31.16 26.824-53.939l-.097-.048L59.086.856c-1.421-.639-3.061.374-3.073 1.93-.085 15.459-8.286 27.71-17.519 39.239-12.707 15.857-27.517 30.702-26.836 52.697-.049.856.425 1.7 1.263 2.086h.012a208334.19 208334.19 0 0 0 50.904 22.924l.012.012c-1.07-17.377 7.593-30.473 17.494-42.833z" fill="url(#c)"/>
      <path d="M72.207 13.506l23.192 10.443c-1.312 4.751.668 9.852 4.884 12.493-3.584 11.878-11.845 21.91-19.84 31.618l-.084.096c-1.543 1.882-3.147 3.823-4.69 5.753-6.402 7.982-12.72 16.773-15.878 27.035a10.894 10.894 0 0 0-2.175-.205c-3.839 0-7.386 1.93-9.464 5.053L24.96 95.35a11.171 11.171 0 0 0-1.227-8.779c-.072-.108-.145-.229-.218-.337l-.061-.097-.255-.362c-.097-.132-.207-.265-.304-.398a7.289 7.289 0 0 0-.352-.41c-.097-.108-.182-.217-.28-.313a12.346 12.346 0 0 0-.57-.555 16.718 16.718 0 0 0-.34-.29c-.17-.144-.34-.277-.51-.41-.11-.084-.22-.156-.341-.24a7.044 7.044 0 0 0-.583-.374c-.097-.06-.195-.12-.292-.169-.012-.012-.036-.012-.048-.024 3.596-11.842 11.832-21.85 19.814-31.546l.085-.096c1.543-1.882 3.147-3.823 4.69-5.753 6.366-7.946 12.659-16.689 15.83-26.951.899.23 1.822.338 2.757.338 3.84-.049 7.387-1.978 9.452-5.077zm-.753-2.291c-1.592 3.497-5.066 5.559-8.687 5.559a9.423 9.423 0 0 1-3.365-.615v.012c-.194-.072-.389-.145-.583-.23l-.012.025c-2.83 10.527-9.124 19.499-16.024 28.097a433.935 433.935 0 0 1-4.763 5.824C29.456 60.282 20.915 70.69 17.477 83.435l-.037.06c.013 0 .013 0 .025.012.17.073.352.145.534.217.037.012.061.037.097.049.231.108.45.217.669.337.097.049.182.109.279.17.158.096.304.192.45.289.097.06.194.132.279.205.146.108.292.229.437.35.098.084.195.156.292.24.17.157.328.314.486.47.097.097.182.194.267.302.085.109.182.205.267.314.085.108.17.229.256.337l.218.326c.073.12.158.23.231.35a9.389 9.389 0 0 1 .522 8.803l26.193 11.793c1.604-3.497 5.066-5.559 8.699-5.559 1.13 0 2.271.205 3.39.615l.036-.048v-.012c2.842-10.504 9.135-19.451 16.024-28.05a433.935 433.935 0 0 1 4.762-5.824c8.565-10.394 17.106-20.801 20.544-33.547.012-.024.012-.048.024-.073-4.799-2.158-6.925-7.777-4.75-12.54L71.454 11.214z" fill="#2E7D32" fill-rule="nonzero"/>
      <g fill="#FFF">
        <path d="M51.202 79.31c-.996-.445-2.005-.481-3.013-.096-1.008.386-2.163 1.279-3.475 2.69-1.761 1.977-3.45 3.243-5.066 3.786-1.615.543-3.304.422-5.054-.374-1.785-.808-3.012-1.977-3.68-3.521-.669-1.544-.705-3.268-.098-5.173l-2.818-1.266c-.413-.193-.608-.676-.413-1.098l.413-.916c.194-.41.68-.603 1.105-.41l2.83 1.278c1.082-1.7 2.491-2.774 4.24-3.196 1.568-.385 3.317-.193 5.273.567.377.145.547.591.377.965l-.765 1.664c-.158.35-.571.506-.936.374-1.288-.47-2.454-.567-3.51-.302-1.24.314-2.139 1.086-2.698 2.316-.583 1.29-.704 2.423-.34 3.4.364.977 1.142 1.749 2.333 2.28 1.117.506 2.162.542 3.146.12.984-.422 2.126-1.339 3.426-2.737 1.288-1.4 2.478-2.424 3.547-3.051 1.07-.627 2.139-.977 3.196-1.025 1.057-.049 2.162.18 3.316.7 1.835.831 3.074 2.037 3.693 3.64.62 1.605.584 3.438-.121 5.512l2.357 1.06a.828.828 0 0 1 .413 1.098l-.413.893a.839.839 0 0 1-1.106.41l-2.357-1.062c-1.105 1.93-2.539 3.172-4.325 3.75-1.579.507-3.316.41-5.2-.3-.388-.145-.546-.592-.388-.965l.765-1.689c.158-.337.547-.518.887-.386 1.264.459 2.418.507 3.426.145 1.179-.422 2.09-1.35 2.758-2.797.644-1.411.814-2.678.498-3.799-.292-1.121-1.045-1.954-2.223-2.484z"/>
        <path d="M56.79 85.75l-1.786 2.098-24.115-11.19-.814-.374 1.86-2.074 24.15 11.227z"/>
      </g>
      <ellipse fill="#2E7D32" opacity=".5" transform="rotate(-65.595 70.378 44.07)" cx="70.378" cy="44.069" rx="16.407" ry="16.488"/>
      <path d="M38.482 42.037c5.2-6.488 10.071-13.204 13.352-20.584-3.28 7.368-8.14 14.06-13.328 20.548-8.115 10.13-17.093 19.849-22.353 31.268 5.248-11.42 14.226-21.115 22.33-31.232zM107.997 22.936L63.594 2.942l44.294 19.946zM89.191 80.348c12.683-15.833 27.48-30.4 26.86-52.323a2.139 2.139 0 0 0-1.263-2.074c-.012 0-.024 0-.024-.012l-6.584-2.967c1.372 22.767-13.85 37.744-26.825 53.94-9.901 12.347-18.563 25.455-17.518 42.832 1.834.82 3.425 1.544 4.677 2.11 1.421.64 3.061-.361 3.073-1.917.158-15.749 8.347-28.037 17.604-39.59z" fill="#2E7D32"/>
      <path d="M40.11 39.987c-.559.724-1.093 1.387-1.652 2.086-3.645 4.546-7.605 9.31-11.056 13.603l52.155 23.49c.583-.747 1.178-1.507 1.786-2.255C84.95 72.413 88.729 68 92.277 63.49L40.11 39.987z" fill="#FFECB3"/>
      <path d="M92.301 63.478c-3.56 4.51-7.338 8.923-10.946 13.433-.595.748-1.19 1.495-1.774 2.255l5.99 5.849a185.798 185.798 0 0 1 3.632-4.667c2.977-3.714 6.075-7.368 9.063-11.058l-5.965-5.812z" fill="#FFECB3"/>
      <path d="M92.301 63.478c-3.56 4.51-7.338 8.923-10.946 13.433-.595.748-1.19 1.495-1.774 2.255l5.99 5.849a185.798 185.798 0 0 1 3.632-4.667c2.977-3.714 6.075-7.368 9.063-11.058l-5.965-5.812z" fill="#FFB74D" opacity=".5"/>
      <path d="M58.43 3.22l48.668 21.923h.012c.013.012.037.012.049.024l6.451 2.906v.012c.522 18.209-10.12 31.064-21.37 44.678a536.357 536.357 0 0 0-4.969 6.066c-8.613 10.744-17.797 23.61-18.125 40.65l-4.338-1.954-1.773-.796-1.337-.603-47.623-21.44v-.024c-.57-18.426 10.205-31.51 21.613-45.366 1.543-1.88 3.146-3.822 4.701-5.752C48.991 32.788 58.187 19.934 58.43 3.22zM58.175.675c-1.142 0-2.162.893-2.174 2.123-.085 15.46-8.286 27.71-17.519 39.24-12.708 15.856-27.517 30.7-26.837 52.696-.048.856.426 1.7 1.264 2.086h.012a208332.69 208332.69 0 0 0 50.903 22.924l.013.012c1.834.82 3.425 1.544 4.677 2.11.291.133.607.193.899.193 1.13 0 2.162-.88 2.174-2.11.17-15.749 8.347-28.037 17.604-39.589 12.683-15.845 27.48-30.412 26.86-52.335a2.139 2.139 0 0 0-1.263-2.074c-.012 0-.024 0-.024-.012l-6.584-2.967-.098-.048L59.1.856c-.316-.12-.62-.18-.924-.18z" opacity=".2" fill="#424242" fill-rule="nonzero"/>
      <path d="M145.853 74.873c1.057-6.367-8.444-9.2-12.817-8.96-11.08.567-24.188 8.213-36.544 1.001-7.192-4.196-8.103 8.333-8.103 8.333-.255 3.955.62 10.72 4.422 13.229 3.79 2.508 11.056 2.29 11.651-3.305 1.834 4.957 7.654 10.178 13.546 8.249 2.648-.796 4.398-4.064 3.572-6.428 3.438 3.148 11.772 4.944 14.457 1.58 2.855-3.98-2.819-7.163-5.224-9.382 4.264.314 13.825 1.435 15.04-4.317z" fill="#CFD8DC"/>
      <path d="M133.57 68.313c2.94 0 7.253 1.327 9.088 3.485.704.82.96 1.652.814 2.63-.413 1.76-2.807 2.652-7.12 2.652-1.627 0-3.231-.133-4.519-.23l-.826-.06c-.06 0-.121-.011-.182-.011-.96 0-1.835.566-2.223 1.447a2.412 2.412 0 0 0 .57 2.737c.487.446 1.058.904 1.653 1.375 3.584 2.858 3.936 3.81 3.292 4.787-.462.53-1.567.844-2.964.844-2.746 0-6.22-1.206-7.909-2.75a2.443 2.443 0 0 0-1.64-.638c-.462 0-.923.132-1.324.398a2.417 2.417 0 0 0-.972 2.81c.158.457.048 1.133-.28 1.772-.388.76-1.044 1.35-1.7 1.555-.025 0-.037.013-.061.025-.583.193-1.19.289-1.798.289-3.754 0-7.447-3.678-8.699-7.079a2.44 2.44 0 0 0-2.284-1.58c-.097 0-.194 0-.303.025a2.418 2.418 0 0 0-2.114 2.134c-.243 2.22-2.236 2.677-3.851 2.677-1.458 0-2.965-.422-4.034-1.133-2.527-1.664-3.608-6.946-3.34-11.034.218-2.906 1.445-6.958 2.951-6.958.268 0 .741.097 1.495.53 3.936 2.304 8.224 3.413 13.12 3.413 4.97 0 9.768-1.133 14.409-2.23 3.68-.869 7.168-1.689 10.387-1.858.097-.024.219-.024.364-.024zm0-2.412c-.182 0-.352 0-.522.013-7.569.385-16.085 4.075-24.662 4.075-3.973 0-7.97-.795-11.881-3.087-1.033-.603-1.932-.856-2.722-.856-4.713 0-5.382 9.201-5.382 9.201-.255 3.955.62 10.72 4.422 13.229 1.47.964 3.463 1.531 5.382 1.531 3.038 0 5.905-1.41 6.27-4.836 1.566 4.233 6.05 8.659 10.982 8.659.838 0 1.7-.133 2.563-.41 2.648-.796 4.398-4.064 3.572-6.428 2.138 1.954 6.171 3.389 9.549 3.389 2.065 0 3.887-.53 4.896-1.809 2.855-3.98-2.819-7.163-5.224-9.382 1.421.109 3.426.302 5.527.302 4.18 0 8.699-.784 9.513-4.619 1.02-6.126-7.727-8.972-12.283-8.972z" opacity=".2" fill="#424242" fill-rule="nonzero"/>
    </g>
    <path d="M245.183 50.185a117.123 117.123 0 0 1-8.143 12.354c-29.015 38.503-77.383 53.821-121.35 42.612l129.493-54.966z" fill="#E1E1E1"/>
    <g fill="#232045" font-family="Chalkboard SE, Comic Sans MS, sans-serif" font-size="24">
      <text transform="rotate(-8 1973.884 -777.138)">
        <tspan x="0" y="24">Bills are expensive!</tspan>
      </text>
    </g>
  </g>
</svg>
