<svg width="272" height="280" xmlns="http://www.w3.org/2000/svg">
  <defs>
    <filter x="-3.9%" y="-3.8%" width="107.8%" height="107.5%" filterUnits="objectBoundingBox" id="a">
      <feOffset dy="2" in="SourceAlpha" result="shadowOffsetOuter1"/>
      <feGaussianBlur stdDeviation="2" in="shadowOffsetOuter1" result="shadowBlurOuter1"/>
      <feColorMatrix values="0 0 0 0 0 0 0 0 0 0 0 0 0 0 0 0 0 0 0.5 0" in="shadowBlurOuter1" result="shadowMatrixOuter1"/>
      <feMerge>
        <feMergeNode in="shadowMatrixOuter1"/>
        <feMergeNode in="SourceGraphic"/>
      </feMerge>
    </filter>
  </defs>
  <g filter="url(#a)" transform="translate(-30 -17)" fill="none" fill-rule="evenodd">
    <path d="M85.827 217.708c-19.282-17.57-32.784-41.714-36.698-69.564-8.22-58.487 28.705-112.909 84.232-128.038l130.434 52.7c7.617 12.829 12.87 27.35 15.076 43.05 5.13 36.501-7.324 71.418-30.908 96.19l47.077-1.644 2.478 70.955-260.84 9.11-2.48-70.957 51.63-1.802z" fill="#000"/>
    <path d="M85.827 217.708c-19.282-17.57-32.784-41.714-36.698-69.564-8.22-58.487 28.705-112.909 84.232-128.038l130.434 52.7c7.617 12.829 12.87 27.35 15.076 43.05 5.13 36.501-7.324 71.418-30.908 96.19l47.077-1.644 2.478 70.955-260.84 9.11-2.48-70.957 51.63-1.802z" fill="#FFF"/>
    <path d="M263.665 71.883a117.123 117.123 0 0 1-14.495 2.977c-47.742 6.71-92.774-16.661-115.938-55.676l130.433 52.699z" fill="#E1E1E1"/>
    <g fill="#232045" font-family="Chalkboard SE, Comic Sans MS, sans-serif" font-size="36">
      <text transform="rotate(-2 6490.83 -3300.398)">
        <tspan x="0" y="35">Bored.</tspan>
      </text>
    </g>
    <g>
      <path d="M166 71c-68.368 0-70 78.387-70 93.913C96 180.428 127.345 193 166 193c38.666 0 70-12.583 70-28.087C236 149.387 234.38 71 166 71z" fill="#FCC21B"/>
      <g fill="#2F2F2F">
        <path d="M153.441 122.531h-19.858c-1.841 0-3.328-1.531-3.328-3.428s1.487-3.429 3.328-3.429h19.858c1.842 0 3.328 1.532 3.328 3.429 0 1.897-1.486 3.428-3.328 3.428zM197.406 122.531h-19.858c-1.842 0-3.328-1.531-3.328-3.428s1.486-3.429 3.328-3.429h19.858c1.841 0 3.328 1.532 3.328 3.429 0 1.897-1.487 3.428-3.328 3.428z"/>
      </g>
      <path d="M193.696 156c-12.655-3.381-22.053-5.072-28.196-5.072-6.391 0-15.794 1.69-28.207 5.072-1.822 0-3.293-1.563-3.293-3.5s1.471-3.5 3.293-3.5c12.223-2.096 21.625-3.144 28.207-3.144 5.954 0 15.357 1.048 28.207 3.144 1.822 0 3.293 1.563 3.293 3.5s-1.482 3.5-3.304 3.5z" fill="#2F2F2F"/>
    </g>
  </g>
</svg>
