<svg width="270" height="255" xmlns="http://www.w3.org/2000/svg">
  <defs>
    <filter x="-2.9%" y="-2.9%" width="105.7%" height="105.8%" filterUnits="objectBoundingBox" id="a">
      <feOffset dy="2" in="SourceAlpha" result="shadowOffsetOuter1"/>
      <feGaussianBlur stdDeviation="2" in="shadowOffsetOuter1" result="shadowBlurOuter1"/>
      <feColorMatrix values="0 0 0 0 0 0 0 0 0 0 0 0 0 0 0 0 0 0 0.5 0" in="shadowBlurOuter1" result="shadowMatrixOuter1"/>
      <feMerge>
        <feMergeNode in="shadowMatrixOuter1"/>
        <feMergeNode in="SourceGraphic"/>
      </feMerge>
    </filter>
  </defs>
  <g filter="url(#a)" transform="translate(-81 -53)" fill="none" fill-rule="evenodd">
    <path d="M132.175 230.447a116.505 116.505 0 0 1-13.228-19.744c-24.429-45.94-14.852-100.9 19.91-136.038L278.17 55.086c18.74 10.5 34.787 26.323 45.621 46.7 22.778 42.84 15.989 93.522-13.22 128.66h36.3v71h-261v-71l46.305.001z" fill="#000"/>
    <path d="M132.175 230.447a116.505 116.505 0 0 1-13.228-19.744c-24.429-45.94-14.852-100.9 19.91-136.038L278.17 55.086c18.74 10.5 34.787 26.323 45.621 46.7 22.778 42.84 15.989 93.522-13.22 128.66h36.3v71h-261v-71l46.305.001z" fill="#FFF"/>
    <path d="M277.351 55.462a117.26 117.26 0 0 1-11.064 9.826c-37.991 29.682-88.677 31.958-128.244 9.753l139.308-19.579z" fill="#E1E1E1"/>
    <g fill="#232045" font-family="Chalkboard SE, Comic Sans MS, sans-serif" font-size="24">
      <text transform="translate(129.788 238.675)">
        <tspan x=".277" y="24.398">I can’t always</tspan>
      </text>
      <text transform="translate(129.788 262.675)">
        <tspan x=".277" y="24.398">buy what I want.</tspan>
      </text>
    </g>
    <g>
      <path fill="#E1F5FE" d="M162.657 115.865l34.03-17.544 5.161 25.12z"/>
      <path fill="#81D4FA" d="M192.948 162.845l-30.291-46.98 39.191 7.575z"/>
      <path fill="#64B5F6" d="M228.682 148.166l-26.834-24.726-8.9 39.405z"/>
      <path fill="#0288D1" d="M288.956 190.97l-2.811-39.452-23.382 8.145z"/>
      <path fill="#81D4FA" d="M234.728 187.69l54.228 3.28-26.193-31.307z"/>
      <path fill="#E1F5FE" d="M228.682 148.166l34.08 11.497-28.034 28.028z"/>
      <path fill="#B2EBF2" d="M234.728 187.69l-6.046-39.524-35.734 14.68z"/>
      <path fill="#B3E5FC" d="M226.048 99.564l44.135 26.246 15.962 25.708-23.382 8.145-34.08-11.497-26.835-24.726-5.161-25.12z"/>
      <path fill="#1E88E5" d="M190.865 217.211l-28.208-101.346 30.291 46.98z"/>
      <path fill="#B3E5FC" d="M190.865 217.211l98.091-26.24-54.228-3.28z"/>
      <path fill="#E1F5FE" d="M234.728 187.69l-43.863 29.521 2.083-54.366z"/>
    </g>
  </g>
</svg>
