<svg width="273" height="270" xmlns="http://www.w3.org/2000/svg">
  <defs>
    <filter x="-3.1%" y="-3.1%" width="106.3%" height="106.2%" filterUnits="objectBoundingBox" id="a">
      <feOffset dy="2" in="SourceAlpha" result="shadowOffsetOuter1"/>
      <feGaussianBlur stdDeviation="2" in="shadowOffsetOuter1" result="shadowBlurOuter1"/>
      <feColorMatrix values="0 0 0 0 0 0 0 0 0 0 0 0 0 0 0 0 0 0 0.5 0" in="shadowBlurOuter1" result="shadowMatrixOuter1"/>
      <feMerge>
        <feMergeNode in="shadowMatrixOuter1"/>
        <feMergeNode in="SourceGraphic"/>
      </feMerge>
    </filter>
  </defs>
  <g filter="url(#a)" transform="translate(-71 -45)" fill="none" fill-rule="evenodd">
    <path d="M150.976 47.866L289.92 69.873c10.308 10.788 18.693 23.755 24.374 38.556 16.017 41.727 6.32 87-21.316 118.358l43.44-2.277 3.715 70.903-260.642 13.66-3.716-70.904 51.745-2.711c-12.81-11.745-23.165-26.56-29.816-43.887-21.166-55.14 2.57-116.473 53.27-143.705z" fill="#000"/>
    <path d="M150.976 47.866L289.92 69.873c10.308 10.788 18.693 23.755 24.374 38.556 16.017 41.727 6.32 87-21.316 118.358l43.44-2.277 3.715 70.903-260.642 13.66-3.716-70.904 51.745-2.711c-12.81-11.745-23.165-26.56-29.816-43.887-21.166-55.14 2.57-116.473 53.27-143.705z" fill="#FFF"/>
    <path d="M289.587 69.004a117.123 117.123 0 0 1-13.453 6.161c-45.01 17.278-94.145 4.636-125.492-28.168l138.945 22.007z" fill="#E1E1E1"/>
    <g fill="#232045" font-family="Chalkboard SE, Comic Sans MS, sans-serif" font-size="36">
      <text transform="rotate(-3 4753.487 -2201.97)">
        <tspan x="0" y="35.62">Challenged.</tspan>
      </text>
    </g>
    <g>
      <path d="M206 84.854c-69.409 0-71 77.47-71 92.842s31.828 27.816 71 27.816 71-12.444 71-27.816c0-15.372-1.591-92.842-71-92.842z" fill="#FCC21B"/>
      <path d="M183.843 155.37s24.605-9.394 42.355 9.394" stroke="#2F2F2F" stroke-width="6" stroke-linecap="round"/>
      <g fill="#2F2F2F">
        <path d="M183.72 129.75c-4.406-.61-7.344-5.246-6.732-10.492.612-5.246 4.774-9.028 9.181-8.418 4.407.61 7.345 5.246 6.733 10.492-.735 5.246-4.774 9.028-9.181 8.418zM235.134 126.578c0-.732-.122-1.342-.244-1.952-.123-.366-.368-.732-.735-.854-2.326-1.098-8.08-3.416-11.384-4.392-.49-.122-.98 0-1.224.366-1.592 1.83-2.571 4.392-2.449 7.198.123 5.246 3.918 9.516 8.324 9.394 4.285 0 7.835-4.392 7.712-9.76z"/>
      </g>
      <g>
        <path d="M173.394 221.567c-9.18 0-15.42-2.555-20.439-8.152-6.12-7.057-5.262-15.938-4.528-23.847.367-4.38 1.59-6.935 2.57-9.246 1.102-2.434 1.958-4.502 2.08-8.76 0-.974-.244-2.555-.489-4.137-.734-4.38-1.713-9.368 1.469-11.68 1.101-.852 2.57-1.217 4.283-1.217 3.06 0 6.242 1.46 7.833 3.772 2.57 3.528 3.427 6.935 3.427 14.357 0 3.041.857 4.136 2.203 5.11.367.243.857.486 2.57.486 1.591 0 3.55-.243 6.487-.486.979-.122 1.958-.244 3.06-.244 3.06-.243 12.238-1.216 18.113-2.068 1.468-.243 3.06-.487 4.528-.73 3.55-.608 7.099-1.217 9.791-1.217 1.347 0 2.448.122 3.305.487 2.447.852 4.039 3.042 4.16 5.84.246 3.163-1.468 6.083-4.038 7.422-2.57 1.338-13.585 3.528-20.072 4.258.123.243.245.365.245.608.857 2.434.49 5.719-.856 7.909-.245.486-.612.851-.857 1.095 1.224 2.311.367 5.475-.49 7.3-.245.486-.612 1.216-1.346 1.825.367.973.612 2.19.122 4.015-.979 4.136-7.832 6.448-20.071 7.178-1.102.122-2.08.122-3.06.122z" fill="#FAC036"/>
        <path d="M158.218 156.962c2.203 0 4.65.973 5.875 2.798 2.203 3.163 2.937 5.962 3.06 13.018 0 3.772 1.223 5.597 3.304 7.057.979.608 2.203.852 3.916.852 2.203 0 5.263-.365 9.669-.852 3.427-.365 12.483-1.217 18.236-2.068 4.528-.609 10.403-1.947 14.074-1.947.98 0 1.836.122 2.448.365 3.672 1.338 3.182 7.178-.122 8.76-2.326 1.095-14.32 3.65-20.684 4.137-4.528.365-5.507.73-5.507.973-.245.73 1.958.487 3.671 1.095 2.326.73 2.326 5.11.857 7.422-.98 1.581-2.08 1.095-2.08 2.068 0 .365.611.852.856 1.217.857 1.216.49 3.771-.367 5.353-.367.608-.612 1.217-1.346 1.46-.735.243-.857.73-.612 1.46.49.852.979 1.703.49 3.528-.735 2.799-7.834 4.745-17.87 5.354-.979 0-1.958.121-2.814.121-8.323 0-14.075-2.19-18.603-7.3-5.263-5.961-4.773-13.383-3.917-22.021.857-8.517 4.529-9.247 4.529-18.25 0-3.772-2.938-11.802-.123-13.87a6.667 6.667 0 0 1 3.06-.73zm0-4.867c-2.203 0-4.161.608-5.752 1.703-4.284 3.164-3.305 9.247-2.448 13.992.245 1.338.49 2.92.49 3.65 0 3.772-.735 5.475-1.836 7.787-.98 2.311-2.326 5.231-2.693 9.976-.734 8.395-1.713 17.764 5.14 25.672 5.385 6.205 12.484 9.003 22.275 9.003.98 0 2.08 0 3.182-.121 18.236-.974 21.418-5.597 22.275-9.004.367-1.581.367-2.92.245-4.015.367-.608.734-1.095.856-1.46.857-1.703 1.836-4.988 1.102-7.908.122-.122.122-.243.245-.365 1.346-2.19 1.958-5.11 1.59-7.787 6.487-.973 15.421-2.798 18.114-4.136 3.427-1.704 5.63-5.597 5.385-9.734-.245-3.771-2.448-6.813-5.752-8.03-1.102-.365-2.448-.608-4.039-.608-2.937 0-6.609.608-10.28 1.217-1.592.243-3.183.486-4.529.73-5.875.851-14.931 1.703-17.991 2.068-1.101.122-2.08.243-3.06.243-2.692.244-4.773.487-6.241.487-.857 0-1.102-.122-1.224-.122-.612-.486-1.102-.851-1.102-3.041-.122-7.057-.734-11.194-3.916-15.695-2.326-2.555-6.12-4.502-10.036-4.502z" fill="#2F2F2F" fill-rule="nonzero"/>
      </g>
    </g>
  </g>
</svg>
