<svg width="271" height="261" xmlns="http://www.w3.org/2000/svg">
  <defs>
    <filter x="-2.8%" y="-2.8%" width="105.7%" height="105.6%" filterUnits="objectBoundingBox" id="a">
      <feOffset dy="2" in="SourceAlpha" result="shadowOffsetOuter1"/>
      <feGaussianBlur stdDeviation="2" in="shadowOffsetOuter1" result="shadowBlurOuter1"/>
      <feColorMatrix values="0 0 0 0 0 0 0 0 0 0 0 0 0 0 0 0 0 0 0.5 0" in="shadowBlurOuter1" result="shadowMatrixOuter1"/>
      <feMerge>
        <feMergeNode in="shadowMatrixOuter1"/>
        <feMergeNode in="SourceGraphic"/>
      </feMerge>
    </filter>
  </defs>
  <g filter="url(#a)" transform="translate(-66 -45)" fill="none" fill-rule="evenodd">
    <path d="M114.925 228.06c-27.477-40.556-27.119-95.795 4.666-136.477 36.362-46.541 101.16-57.784 150.615-28.35l52.698 130.433a115.27 115.27 0 0 1-13.644 31.002l21.89-.382 1.238 70.989-260.96 4.555-1.238-70.989 44.735-.78z" fill="#000"/>
    <path d="M114.925 228.06c-27.477-40.556-27.119-95.795 4.666-136.477 36.362-46.541 101.16-57.784 150.615-28.35l52.698 130.433a115.27 115.27 0 0 1-13.644 31.002l21.89-.382 1.238 70.989-260.96 4.555-1.238-70.989 44.735-.78z" fill="#FFF"/>
    <path d="M323.478 192.932a117.123 117.123 0 0 1-12.21-8.358c-37.991-29.682-52.462-78.31-40.489-122.075l52.699 130.433z" fill="#E1E1E1"/>
    <text transform="rotate(-2 6947.333 -4937.943)" fill="#232045" font-family="Chalkboard SE, Comic Sans MS, sans-serif" font-size="32">
      <tspan x="0" y="31.68">Cool.</tspan>
    </text>
    <g>
      <path d="M205 97c-66.422 0-68 74.538-68 89.294S167.445 213 205 213c37.566 0 68-11.96 68-26.706C273 171.538 271.433 97 205 97z" fill="#FCC21B"/>
      <path d="M205.21 199c-3.626 0-7.263-.445-10.837-1.355-1.691-.435-2.706-2.132-2.273-3.787.444-1.655 2.178-2.648 3.87-2.214 12.317 3.145 25.596-.217 34.657-8.773a3.212 3.212 0 0 1 4.483.083 3.048 3.048 0 0 1-.085 4.386c-8.003 7.553-18.808 11.66-29.815 11.66zM195.51 159.49l-.02.02c0-.01.01-.02.02-.02z" fill="#2F2F2F"/>
      <path d="M241.348 131.363c-14.195 0-16.097 2.169-22.737 3.59-6.641 1.41-13.611 1.41-13.611 1.41s-6.97 0-13.61-1.421c-6.641-1.421-8.554-3.59-22.738-3.59-14.195 0-31.206 3.088-31.206 3.088v9.09s3.815.502 4.155 4.005c.17 1.421-3.315 30.283 24.979 30.283 20.081 0 28.55-12.102 31.29-21.94 1.244-4.668 2.327-10.009 7.14-10.009 4.814 0 5.897 5.341 7.14 10.009 2.742 9.849 11.2 21.94 31.291 21.94 28.295 0 24.81-28.873 24.98-30.283.329-3.503 4.154-4.005 4.154-4.005v-9.09c-.021.01-17.032-3.077-31.227-3.077z" fill="#2F2F2F"/>
      <path d="M238.936 135.326c-7.034.246-12.378 1.4-12.378 1.4-10.455 2.2-11.21 8.694-10.55 13.854.85 6.484 3.495 14.687 10.667 19.75.563.406 1.87.844 2.497-.822 0 0-.021.117 0 0 2.359-11.195 5.865-21.513 11.454-31.928.648-1.912-.872-2.286-1.69-2.254zM170.001 135.294c-4.537-.096-9.68.203-14.503 1.431-5.419 1.368-7.512 4.113-8.075 10.03-.563 5.8-1.2 20.585 9.276 26.128.605.32 1.944.534 2.592-.972 3.209-13.982 4.92-20.477 12.283-34.267.605-1.848-.755-2.34-1.573-2.35z" fill="#FFF"/>
    </g>
  </g>
</svg>
