<svg width="273" height="265" xmlns="http://www.w3.org/2000/svg">
  <defs>
    <filter x="-3.9%" y="-3.8%" width="107.8%" height="107.6%" filterUnits="objectBoundingBox" id="a">
      <feOffset dy="2" in="SourceAlpha" result="shadowOffsetOuter1"/>
      <feGaussianBlur stdDeviation="2" in="shadowOffsetOuter1" result="shadowBlurOuter1"/>
      <feColorMatrix values="0 0 0 0 0 0 0 0 0 0 0 0 0 0 0 0 0 0 0.5 0" in="shadowBlurOuter1" result="shadowMatrixOuter1"/>
      <feMerge>
        <feMergeNode in="shadowMatrixOuter1"/>
        <feMergeNode in="SourceGraphic"/>
      </feMerge>
    </filter>
  </defs>
  <g filter="url(#a)" transform="translate(-29 -20)" fill="none" fill-rule="evenodd">
    <path d="M66.119 195.876c-11.07-15.667-18.4-34.303-20.548-54.737C40.132 89.392 69.6 42.023 114.994 22.466L251.496 56.5c13.442 16.755 22.393 37.437 24.805 60.388 3.515 33.45-7.554 65.07-28.082 88.531l49.101 2.574-3.715 70.903-260.643-13.66 3.717-70.904 29.44 1.543z" fill="#000"/>
    <path d="M66.119 195.876c-11.07-15.667-18.4-34.303-20.548-54.737C40.132 89.392 69.6 42.023 114.994 22.466L251.496 56.5c13.442 16.755 22.393 37.437 24.805 60.388 3.515 33.45-7.554 65.07-28.082 88.531l49.101 2.574-3.715 70.903-260.643-13.66 3.717-70.904 29.44 1.543z" fill="#FFF"/>
    <path d="M252.203 56.09a117.123 117.123 0 0 1-13.94 4.965c-46.341 13.289-94.189-3.588-122.557-38.999L252.203 56.09z" fill="#E1E1E1"/>
    <text transform="rotate(2 -6170.36 2973.897)" fill="#232045" font-family="Chalkboard SE, Comic Sans MS, sans-serif" font-size="24">
      <tspan x=".124" y="24.785">Do it again!</tspan>
    </text>
    <g>
      <g fill="#F79329">
        <path d="M188.56 108.38l14.35 44.94-36.36-4.71z"/>
        <path d="M202.91 154.5c-.05 0-.1 0-.15-.01l-36.37-4.71c-.39-.05-.72-.29-.9-.64-.18-.35-.17-.76.01-1.1l22.02-40.23c.23-.41.69-.65 1.15-.61.47.04.87.36 1.01.81l14.24 44.62c.14.19.22.43.22.68 0 .65-.53 1.18-1.18 1.18 0 .01-.03.01-.05.01zm-34.51-6.84l32.82 4.25-12.94-40.55-19.88 36.3z" fill-rule="nonzero"/>
        <path d="M137.19 92.91a5.46 5.46 0 0 1-5.46 5.46c-3.01 0-5.46-2.45-5.46-5.46 0-3.02 2.44-5.46 5.46-5.46s5.46 2.44 5.46 5.46z"/>
        <path d="M131.73 99.54a6.65 6.65 0 0 1-6.64-6.64 6.65 6.65 0 0 1 6.64-6.64 6.65 6.65 0 0 1 6.64 6.64 6.65 6.65 0 0 1-6.64 6.64zm0-10.91c-2.36 0-4.28 1.92-4.28 4.28 0 2.36 1.92 4.28 4.28 4.28 2.36 0 4.29-1.92 4.29-4.28 0-2.36-1.93-4.28-4.29-4.28z" fill-rule="nonzero"/>
        <g>
          <path d="M190.58 87.45c3.01.18 5.31 2.77 5.13 5.78-.17 3.01-2.77 5.3-5.77 5.13a5.452 5.452 0 0 1-5.13-5.77c.18-3.02 2.76-5.32 5.77-5.14z"/>
          <path d="M190.26 99.54l-.39-.01c-1.77-.1-3.4-.89-4.57-2.21a6.615 6.615 0 0 1-1.67-4.8 6.647 6.647 0 0 1 6.63-6.25l.39.01c3.66.22 6.46 3.38 6.24 7.03a6.638 6.638 0 0 1-6.63 6.23zm.23-10.92c-2.5 0-4.37 1.77-4.5 4.03-.07 1.14.31 2.24 1.07 3.1.76.86 1.8 1.36 2.95 1.43l.25.01c2.26 0 4.14-1.77 4.27-4.03.14-2.36-1.67-4.39-4.03-4.54h-.01z" fill-rule="nonzero"/>
        </g>
        <g>
          <path d="M133.43 108.38l-14.34 44.94 36.36-4.71z"/>
          <path d="M119.09 154.5c-.34 0-.68-.15-.91-.42-.26-.31-.34-.73-.22-1.11l14.34-44.94c.14-.45.54-.77 1.01-.81.51-.05.92.19 1.15.61l22.02 40.23c.18.34.19.75.01 1.1-.17.35-.51.58-.9.64l-36.36 4.71c-.04-.01-.09-.01-.14-.01zm14.63-43.14l-12.95 40.56 32.82-4.25-19.87-36.31z" fill-rule="nonzero"/>
        </g>
      </g>
      <path d="M169.17 86.76c0 4.51-3.66 8.17-8.17 8.17s-8.18-3.66-8.18-8.17c0-4.52 3.66-8.17 8.18-8.17a8.16 8.16 0 0 1 8.17 8.17zM110.45 92.91c0 3.58-2.9 6.48-6.49 6.48-3.58 0-6.48-2.9-6.48-6.48 0-3.59 2.9-6.49 6.48-6.49 3.59 0 6.49 2.9 6.49 6.49zM211.54 92.91c0 3.58 2.9 6.48 6.49 6.48 3.58 0 6.49-2.9 6.49-6.48a6.49 6.49 0 0 0-6.49-6.49 6.49 6.49 0 0 0-6.49 6.49z" fill="#FCC21B"/>
      <path d="M169.17 86.76c0 4.51-3.66 8.17-8.17 8.17s-8.18-3.66-8.18-8.17c0-4.52 3.66-8.17 8.18-8.17a8.16 8.16 0 0 1 8.17 8.17zM110.45 92.91c0 3.58-2.9 6.48-6.49 6.48-3.58 0-6.48-2.9-6.48-6.48 0-3.59 2.9-6.49 6.48-6.49 3.59 0 6.49 2.9 6.49 6.49zM211.54 92.91c0 3.58 2.9 6.48 6.49 6.48 3.58 0 6.49-2.9 6.49-6.48a6.49 6.49 0 0 0-6.49-6.49 6.49 6.49 0 0 0-6.49 6.49zM216.5 111.43a1.18 1.18 0 0 0-1.29.22l-30.96 29.06-22.09-32.99c-.22-.33-.58-.52-.98-.52-.39 0-.76.19-.98.51l-22.19 33-30.95-29.07a1.18 1.18 0 0 0-1.29-.22c-.43.19-.71.63-.69 1.1l1.27 47.52c0 10.33 24.06 18.43 54.78 18.43 30.72 0 54.78-8.1 54.78-18.4l1.27-47.55c.02-.46-.25-.9-.68-1.09z" fill="#FCC21B"/>
      <path d="M216.91 136.06l.01.01-.59 18.85h-.01c-4.2-.13-7.46-4.45-7.3-9.66.16-5.22 3.69-9.33 7.89-9.2zM105.37 136.06l-.01.01.58 18.85h.02c4.19-.13 7.46-4.45 7.29-9.66-.16-5.22-3.69-9.33-7.88-9.2zM169.8 154.55c0 5.58-3.88 10.11-8.67 10.11-4.78 0-8.66-4.53-8.66-10.11 0-5.59 3.88-10.11 8.66-10.11 4.79-.01 8.67 4.52 8.67 10.11z" fill="#D7598B"/>
      <g transform="translate(178 151)" fill="#ED6C30">
        <path d="M8.9 9.14c-.13 2.7-2.12 4.79-4.44 4.68-2.31-.11-4.08-2.4-3.94-5.09.14-2.71 2.13-4.8 4.44-4.68 2.31.1 4.07 2.39 3.94 5.09z"/>
        <ellipse transform="rotate(-87.013 22.031 5.958)" cx="22.031" cy="5.958" rx="4.89" ry="4.2"/>
      </g>
      <g transform="translate(117 151)" fill="#ED6C30">
        <path d="M18.37 9.14c.13 2.7 2.12 4.79 4.44 4.68 2.31-.11 4.08-2.4 3.94-5.09-.13-2.71-2.12-4.8-4.43-4.68-2.32.1-4.09 2.39-3.95 5.09z"/>
        <ellipse transform="rotate(-2.987 5.229 5.946)" cx="5.229" cy="5.946" rx="4.19" ry="4.89"/>
      </g>
    </g>
  </g>
</svg>
