<svg width="273" height="263" xmlns="http://www.w3.org/2000/svg">
  <defs>
    <filter x="-2.9%" y="-2.9%" width="105.8%" height="105.7%" filterUnits="objectBoundingBox" id="a">
      <feOffset dy="2" in="SourceAlpha" result="shadowOffsetOuter1"/>
      <feGaussianBlur stdDeviation="2" in="shadowOffsetOuter1" result="shadowBlurOuter1"/>
      <feColorMatrix values="0 0 0 0 0 0 0 0 0 0 0 0 0 0 0 0 0 0 0.5 0" in="shadowBlurOuter1" result="shadowMatrixOuter1"/>
      <feMerge>
        <feMergeNode in="shadowMatrixOuter1"/>
        <feMergeNode in="SourceGraphic"/>
      </feMerge>
    </filter>
  </defs>
  <g filter="url(#a)" transform="translate(-89 -61)" fill="none" fill-rule="evenodd">
    <path d="M141.833 244.652c-9.506-8.465-17.768-18.651-24.288-30.414-28.634-51.657-13.664-115.697 32.753-149.72l140.655 2.456c11.71 9.248 21.817 20.922 29.503 34.788 24.756 44.66 16.92 98.577-15.654 134.35l49.263-2.583 3.717 70.903-260.642 13.66-3.717-70.903 48.41-2.537z" fill="#000"/>
    <path d="M141.833 244.652c-9.506-8.465-17.768-18.651-24.288-30.414-28.634-51.657-13.664-115.697 32.753-149.72l140.655 2.456c11.71 9.248 21.817 20.922 29.503 34.788 24.756 44.66 16.92 98.577-15.654 134.35l49.263-2.583 3.717 70.903-260.642 13.66-3.717-70.903 48.41-2.537z" fill="#FFF"/>
    <path d="M290.501 66.159a117.123 117.123 0 0 1-12.465 7.974c-42.166 23.373-92.583 17.693-128.19-10.43L290.5 66.16l.001-.001z" fill="#E1E1E1"/>
    <g fill="#232045" font-family="Chalkboard SE, Comic Sans MS, sans-serif" font-size="32">
      <text transform="rotate(-4 3662.09 -2630.622)">
        <tspan x="0" y="31.595">Fine.</tspan>
      </text>
    </g>
    <g>
      <path d="M217.5 102c-70.832 0-72.5 78.39-72.5 93.898 0 15.53 32.448 28.102 72.5 28.102 40.04 0 72.5-12.572 72.5-28.102C290 180.39 288.32 102 217.5 102z" fill="#FCC21B"/>
      <g fill="#2F2F2F">
        <path d="M193.398 160.233c-5.069.044-9.224-4.676-9.28-10.536-.057-5.881 4.008-10.678 9.077-10.722 5.058-.044 9.224 4.676 9.28 10.558.057 5.86-4.007 10.646-9.077 10.7zM243.2 160.233c5.058-.01 9.156-4.775 9.145-10.634-.011-5.882-4.132-10.624-9.19-10.613-5.07.01-9.18 4.775-9.168 10.656.023 5.86 4.144 10.602 9.213 10.591z"/>
      </g>
      <path d="M246.59 186h-58.192c-1.88 0-3.398-1.563-3.398-3.5s1.518-3.5 3.398-3.5h58.204c1.88 0 3.398 1.563 3.398 3.5s-1.529 3.5-3.41 3.5z" fill="#2F2F2F"/>
    </g>
  </g>
</svg>
