<svg width="271" height="278" xmlns="http://www.w3.org/2000/svg">
  <defs>
    <filter x="-4.6%" y="-4.4%" width="109.1%" height="108.9%" filterUnits="objectBoundingBox" id="a">
      <feOffset dy="2" in="SourceAlpha" result="shadowOffsetOuter1"/>
      <feGaussianBlur stdDeviation="2" in="shadowOffsetOuter1" result="shadowBlurOuter1"/>
      <feColorMatrix values="0 0 0 0 0 0 0 0 0 0 0 0 0 0 0 0 0 0 0.5 0" in="shadowBlurOuter1" result="shadowMatrixOuter1"/>
      <feMerge>
        <feMergeNode in="shadowMatrixOuter1"/>
        <feMergeNode in="SourceGraphic"/>
      </feMerge>
    </filter>
  </defs>
  <g filter="url(#a)" transform="translate(4 2)" fill="none" fill-rule="evenodd">
    <path d="M56.708 197.756C35.873 176.786 23 147.896 23 116 23 56.938 67.14 8.185 124.232.931l121.83 70.339C251.819 85.035 255 100.146 255 116c0 30.44-11.724 58.14-30.904 78.834l37.397-.653 1.24 70.99-260.96 4.554-1.24-70.989 56.175-.98z" fill="#000"/>
    <path d="M56.708 197.756C35.873 176.786 23 147.896 23 116 23 56.938 67.14 8.185 124.232.931l121.83 70.339C251.819 85.035 255 100.146 255 116c0 30.44-11.724 58.14-30.904 78.834l37.397-.653 1.24 70.99-260.96 4.554-1.24-70.989 56.175-.98z" fill="#FFF"/>
    <path d="M246.062 70.338c-4.836.615-9.765.932-14.768.932-48.211 0-89.553-29.411-107.062-71.27l121.83 70.338z" fill="#E1E1E1"/>
    <g fill="#232045" font-family="Chalkboard SE, Comic Sans MS, sans-serif" font-size="30">
      <text transform="translate(60 211)">
        <tspan x="0" y="29">Freaked out!</tspan>
      </text>
    </g>
    <g>
      <path d="M137.5 56C69.6 56 68 136.318 68 152.207 68 168.119 99.105 181 137.5 181c38.384 0 69.5-12.881 69.5-28.793C207 136.317 205.39 56 137.5 56z" fill="#FCC21B"/>
      <path d="M160.362 126.725C154.46 121.42 145.314 118 137.5 118c-7.814 0-16.971 3.409-22.862 8.725-7.245 6.529-14.425 17.888-12.24 26.52.514 2.011 1.465 4.126 2.624 5.686 1.464 1.976 3.923 3.721 6 4.426 4.14 1.398 8.501.37 12.392-1.676 3.923-2.057 7.06-5.073 14.086-5.073 7.027 0 10.163 3.016 14.086 5.073 3.89 2.034 8.251 3.063 12.393 1.676 2.076-.705 4.546-2.461 6-4.426 1.158-1.56 2.109-3.675 2.622-5.685 2.186-8.633-4.994-19.992-12.24-26.521z" fill="#ED6C30"/>
      <path d="M184.331 91.971c1.338 12.423-5.19 21.715-20.414 22.412-12.656.583-18.504-6.537-19.755-17.074-1.252-10.538 6.732-20.275 17.824-21.749 11.092-1.474 21.212 5.863 22.345 16.411z" fill="#FFF"/>
      <path d="M163.939 98.029s-2.093 2.571-5.395 1.2c-2.848-1.178-3.668-4.675-2.665-7.635 1.004-2.96 4.586-4.571 8.46-4.148 4.132.445 11.07 6.137 8.523 15.165-2.762 9.783-13.54 10.103-18.32 8.252-4.91-1.897-12.085-8.389-10.23-20.172 1.91-12.148 12.592-15.28 18.591-15.28 5.675 0 18.752 3.235 21.59 19.612" stroke="#2F2F2F" stroke-width="5" stroke-linecap="round" stroke-linejoin="round"/>
      <g>
        <path d="M92.86 105.237c-5.255-8.98-4.78-31.387 18.115-32.828 6.042-.386 11.113 1.532 16.367 10.511 5.255 8.979 1.791 21.261-7.725 27.425-9.527 6.164-21.503 3.87-26.758-5.108z" fill="#FFF"/>
        <path d="M109.065 90.877s.906-3.235 4.445-3.428c3.054-.17 5.158 2.634 5.406 5.744.248 3.11-2.395 6.13-6.085 7.435-3.939 1.396-12.484-.726-13.692-10-1.306-10.046 8.383-15.03 13.454-15.438 5.2-.42 14.275 2.327 17.199 13.792 3.01 11.816-5.492 19.297-10.952 21.908-5.168 2.474-18.331 5.244-27.319-8.332" stroke="#2F2F2F" stroke-width="5" stroke-linecap="round" stroke-linejoin="round"/>
      </g>
    </g>
  </g>
</svg>
