<svg width="274" height="299" xmlns="http://www.w3.org/2000/svg">
  <defs>
    <filter x="-4.5%" y="-4.1%" width="109%" height="108.2%" filterUnits="objectBoundingBox" id="a">
      <feOffset dy="2" in="SourceAlpha" result="shadowOffsetOuter1"/>
      <feGaussianBlur stdDeviation="2" in="shadowOffsetOuter1" result="shadowBlurOuter1"/>
      <feColorMatrix values="0 0 0 0 0 0 0 0 0 0 0 0 0 0 0 0 0 0 0.5 0" in="shadowBlurOuter1" result="shadowMatrixOuter1"/>
      <feMerge>
        <feMergeNode in="shadowMatrixOuter1"/>
        <feMergeNode in="SourceGraphic"/>
      </feMerge>
    </filter>
  </defs>
  <g filter="url(#a)" transform="translate(4 2)" fill="none" fill-rule="evenodd">
    <path d="M72.599 215.053c-29.366-17.945-50.131-48.583-54.668-84.285L88.27 8.938C102.035 3.181 117.146 0 133 0c64.065 0 116 51.935 116 116 0 36.135-16.522 68.41-42.424 89.685l54.13-3.785 4.952 70.827L5.294 290.933.342 220.106l72.257-5.053z" fill="#000"/>
    <path d="M72.599 215.053c-29.366-17.945-50.131-48.583-54.668-84.285L88.27 8.938C102.035 3.181 117.146 0 133 0c64.065 0 116 51.935 116 116 0 36.135-16.522 68.41-42.424 89.685l54.13-3.785 4.952 70.827L5.294 290.933.342 220.106l72.257-5.053z" fill="#FFF"/>
    <path d="M87.338 8.938c.615 4.836.932 9.765.932 14.768 0 48.211-29.411 89.553-71.27 107.062L87.338 8.938z" fill="#E1E1E1"/>
    <g fill="#232045" font-family="Chalkboard SE, Comic Sans MS, sans-serif" font-size="36">
      <text transform="rotate(-5 2608.466 -871.44)">
        <tspan x=".051" y="35.825">Good.</tspan>
      </text>
    </g>
    <g>
      <path d="M152.282 101.393c7.472-2.08 20.717-1.805 24.593-1.53 6.78.478 13.561.334 14.727 8.426.778 5.45-1.081 10.411-9.295 11.296-2.892.31-6.428.478-9.344.932l-2.285 2.474c2.698-.359 8.883-.239 10.742-.466 7.85-.944 14.484 2.151 15.48 9.574.875 6.502-4.107 11.522-11.179 11.14-2.418-.132-9.247.789-16.027.968l-.522 1.35-.243.407c4.301.12 8.42.287 11.349.43 7.837.383 12.114 4.518 12.005 10.017-.134 6.681-6.489 9.191-11.033 9.562-3.403.275-15.578-.072-23.756-.73l-1.288 2.164c.584.012 16.246.753 16.842.789 7.181.526 10.243 3.084 10.06 8.128-.254 7.076-7.934 8.952-12.09 9.598-6.743 1.051-15.735.74-22.285.92-14.168.382-43.16 1.004-56.697-10.662-4.617-3.98-9.27-9.395-13.232-10.948-8.3-3.252-9.016-13.89-8.64-27.336.183-6.502-2.09-24.754 5.93-29.176 11.252-6.204 30.33-10.89 36.672-15.79 10.401-8.044 16.477-21.132 19.247-28.794C137.287 49.542 138.891 39 148.113 39c16.162 0 15.736 14.2 16.04 21.3.596 13.9-16.841 39.622-11.871 41.093z" fill="#FAC036"/>
      <path d="M138.208 133.27c.16 7.143 5.826 10.207 6.084 10.338-3.25-.071-10.292 3.137-10.292 9.946 0 5.616 3.14 9.993 6.293 11.483-2.073.43-5.986 3.172-5.986 9.158 0 8.777 6.697 11.985 11.764 12.593 5.066.608 19.149-.215 23.798-.907 2.49-.37-12.34-.536-23.197-1.92-3.116-.393-6.833-3.243-7.434-7.083 0 0-.883-5.068 3.876-7.99 0 0 2.012-1.68 11.347-1.609l2.822.036c.883.06 12.156.44 15.91.703 1.656.12 3.08.346 4.306.68a1.934 1.934 0 0 1-.344-1.383c.16-1.384 1.092-1.443 1.338-1.443l-2.233-.12-7.95-.44c-7.924-.466-19.087-1.205-20.375-1.706 0 0-7.777-1.908-7.777-9.659 0 0-.405-6.594 9.973-6.904 0 0 24.522-1.372 34.9-.036 0 0-1.484-2.683.969-3.887 0 0-17.505.417-28.472.703-10.967.286-13.31-5.378-13.592-8.466-.036-.465-.135-1.205-.135-2.075 0-6.141 5.545-6.952 13.482-7.954 17.125-2.182 24.374-2.862 24.374-2.862.945-.107 1.84-.167 2.711-.155-.478-.262-1.128-.751-1.214-1.562-.049-.525.22-1.324.22-1.324s-7.384.585-18.78 2.063c-11.384 1.479-20.486.8-21.308-5.676-.6-4.746.221-7.763 2.33-10.112 2.602-2.898 6.785-4.34 6.785-4.34s-.479-.096-.749-.442c-.27-.358-.282-.918-.282-.918-9.286 1.145-15.64 6.88-15.113 14.25.368 5.044 1.742 8.407 5.19 10.04.011-.011-3.399 1.849-3.24 8.98z" fill="#E48C15"/>
      <path d="M142.245 117l-4.087 1.136s6.057 21.434-16.3 36.204c0 0-2.868 1.846-1.477 3.231 0 0 .972 1.61 5.084-1.408 0-.012 21.816-13.694 16.78-39.163z" fill="#E48C15"/>
    </g>
  </g>
</svg>
