<svg width="271" height="259" xmlns="http://www.w3.org/2000/svg">
  <defs>
    <filter x="-3.8%" y="-3.7%" width="107.6%" height="107.4%" filterUnits="objectBoundingBox" id="a">
      <feOffset dy="2" in="SourceAlpha" result="shadowOffsetOuter1"/>
      <feGaussianBlur stdDeviation="2" in="shadowOffsetOuter1" result="shadowBlurOuter1"/>
      <feColorMatrix values="0 0 0 0 0 0 0 0 0 0 0 0 0 0 0 0 0 0 0.5 0" in="shadowBlurOuter1" result="shadowMatrixOuter1"/>
      <feMerge>
        <feMergeNode in="shadowMatrixOuter1"/>
        <feMergeNode in="SourceGraphic"/>
      </feMerge>
    </filter>
  </defs>
  <g filter="url(#a)" transform="translate(-36 -25)" fill="none" fill-rule="evenodd">
    <path d="M70.808 202.88c-11.61-15.272-19.586-33.64-22.446-53.987-7.241-51.526 20.555-99.894 65.239-121.023l137.606 29.249c14.02 16.276 23.686 36.632 26.899 59.486 4.68 33.306-5.28 65.293-24.976 89.457l49.161.858-1.238 70.99-260.961-4.556 1.24-70.99 29.477.514-.001.001z" fill="#000"/>
    <path d="M70.808 202.88c-11.61-15.272-19.586-33.64-22.446-53.987-7.241-51.526 20.555-99.894 65.239-121.023l137.606 29.249c14.02 16.276 23.686 36.632 26.899 59.486 4.68 33.306-5.28 65.293-24.976 89.457l49.161.858-1.238 70.99-260.961-4.556 1.24-70.99 29.477.514-.001.001z" fill="#FFF"/>
    <path d="M251.9 56.684c-4.41 2.078-9 3.903-13.757 5.449-45.853 14.897-94.258-.298-123.845-34.698L251.9 56.684z" fill="#E1E1E1"/>
    <text transform="translate(79.14 221.442)" fill="#232045" font-family="Chalkboard SE, Comic Sans MS, sans-serif" font-size="24">
      <tspan x=".242" y="24.334">Help my parents!</tspan>
    </text>
    <g transform="translate(100 71)">
      <path d="M106.511 34.942L96 36l4.588-21.416c.845-3.936 3.87-7.098 7.898-8.254L129.589.267C133.777-.933 138 2.055 138 6.243c0 3.936-4.097 6.684-7.966 5.343l-2.933-.633-11.824 3.348c-2.34.665-4.132 2.464-4.714 4.732l-4.052 15.91zM96 80l-7.223 30L80 106.972 85.408 80z" fill="#65878D"/>
      <path fill="#65878D" d="M91 102H20v9h69.398z"/>
      <path d="M.141 42.433l8.417 39.34C9.206 84.821 12 87 15.238 87H93.07c1.057 0 1.977-.697 2.216-1.688l13.653-56.646c.352-1.448-.874-2.788-2.42-2.657L6.208 34.613c-4.055.348-6.884 3.997-6.066 7.82zm15.846 1.187l4.84-.414c1.998-.174 3.714 1.34 3.714 3.257v5.25c0 1.807-1.522 3.267-3.408 3.267h-5.089c-1.613 0-3.01-1.09-3.34-2.614l-.75-3.529c-.556-2.56 1.33-4.988 4.033-5.217zm43.404 20.062h6.452c1.885 0 3.407 1.46 3.407 3.267v6.981c0 1.808-1.522 3.268-3.407 3.268H59.39c-1.886 0-3.408-1.46-3.408-3.268v-6.98c0-1.809 1.522-3.268 3.408-3.268zm6.452-8.713H59.39c-1.886 0-3.408-1.46-3.408-3.268v-8.528c0-1.688 1.352-3.104 3.1-3.256l6.453-.555c2-.175 3.714 1.34 3.714 3.256v9.083c0 1.808-1.522 3.268-3.407 3.268zm-18.948 11.98v6.981c0 1.808-1.522 3.268-3.407 3.268h-6.452c-1.886 0-3.408-1.46-3.408-3.268v-6.98c0-1.809 1.522-3.268 3.408-3.268h6.452c1.885 0 3.407 1.46 3.407 3.267zm-3.407-11.98h-6.452c-1.886 0-3.408-1.46-3.408-3.268v-6.61c0-1.689 1.352-3.105 3.101-3.257l6.452-.556c2-.174 3.714 1.34 3.714 3.257V51.7c0 1.808-1.522 3.268-3.407 3.268zm51.957-13.876l-2.738 11.338c-.352 1.481-1.738 2.527-3.317 2.527h-7.645c-1.885 0-3.407-1.46-3.407-3.268V41.257c0-1.689 1.351-3.104 3.1-3.257l10.372-.893c2.317-.196 4.157 1.83 3.635 3.986zM83.13 77.198h-2.51c-1.25 0-2.272-.98-2.272-2.178v-8.07c0-1.809 1.522-3.268 3.408-3.268h3.964c2.192 0 3.817 1.96 3.317 4.008l-1.477 6.142c-.488 1.972-2.317 3.366-4.43 3.366zM15.817 66.916c-.364-1.677.977-3.245 2.76-3.245h2.556c1.886 0 3.408 1.46 3.408 3.267v7.548c0 1.492-1.261 2.701-2.817 2.701-2.159 0-4.022-1.46-4.453-3.485l-1.454-6.786z" fill="#FAC136" fill-rule="nonzero"/>
      <ellipse fill="#2F2F2F" cx="83.5" cy="106" rx="12.5" ry="12"/>
      <ellipse fill="#65878D" cx="84" cy="106.5" rx="6" ry="5.5"/>
      <ellipse fill="#2F2F2F" cx="23.5" cy="106" rx="12.5" ry="12"/>
      <ellipse fill="#65878D" cx="24" cy="106.5" rx="6" ry="5.5"/>
      <ellipse fill="#65878D" cx="132.5" cy="8" rx="8.5" ry="8"/>
    </g>
  </g>
</svg>
