<svg width="271" height="263" xmlns="http://www.w3.org/2000/svg">
  <defs>
    <filter x="-2.8%" y="-2.8%" width="105.5%" height="105.6%" filterUnits="objectBoundingBox" id="a">
      <feOffset dy="2" in="SourceAlpha" result="shadowOffsetOuter1"/>
      <feGaussianBlur stdDeviation="2" in="shadowOffsetOuter1" result="shadowBlurOuter1"/>
      <feColorMatrix values="0 0 0 0 0 0 0 0 0 0 0 0 0 0 0 0 0 0 0.5 0" in="shadowBlurOuter1" result="shadowMatrixOuter1"/>
      <feMerge>
        <feMergeNode in="shadowMatrixOuter1"/>
        <feMergeNode in="SourceGraphic"/>
      </feMerge>
    </filter>
    <linearGradient x1="49.992%" y1="99.992%" x2="49.992%" y2=".483%" id="b">
      <stop stop-color="#43A047" offset="0%"/>
      <stop stop-color="#66BB6A" offset="99.92%"/>
    </linearGradient>
  </defs>
  <g filter="url(#a)" transform="translate(-86 -51)" fill="none" fill-rule="evenodd">
    <path d="M134.878 235.772a117.372 117.372 0 0 1-7.112-9.16C97.922 183.99 100.73 128.273 130.95 89.16l135.887-36.41c19.88 8.137 37.736 21.887 50.972 40.79 30.27 43.231 26.951 99.932-4.495 139.117l38.339-.67 1.238 70.99-260.96 4.554-1.24-70.989 44.187-.77v-.001z" fill="#000"/>
    <path d="M134.878 235.772a117.372 117.372 0 0 1-7.112-9.16C97.922 183.99 100.73 128.273 130.95 89.16l135.887-36.41c19.88 8.137 37.736 21.887 50.972 40.79 30.27 43.231 26.951 99.932-4.495 139.117l38.339-.67 1.238 70.99-260.96 4.554-1.24-70.989 44.187-.77v-.001z" fill="#FFF"/>
    <path d="M266.828 52.8a117.123 117.123 0 0 1-9.785 11.1c-34.09 34.09-84.12 42.527-126.099 25.309l135.884-36.41v.001z" fill="#E1E1E1"/>
    <text transform="translate(133.962 246.255)" fill="#232045" font-family="Chalkboard SE, Comic Sans MS, sans-serif" font-size="24">
      <tspan x="0" y="24">I can save money.</tspan>
    </text>
    <g>
      <g transform="translate(158 120)">
        <path d="M122.308 81.001H5.478a4.573 4.573 0 0 1-4.565-4.573V5.508A4.588 4.588 0 0 1 5.5.916h116.787c2.53 0 4.587 2.05 4.587 4.594v70.92A4.566 4.566 0 0 1 122.308 81z" fill="#2E7D32"/>
        <path d="M122.434 68.207H5.353a4.434 4.434 0 0 1-4.43-4.436V5.509A4.588 4.588 0 0 1 5.51.915h116.788c2.53 0 4.587 2.05 4.587 4.594V63.76a4.454 4.454 0 0 1-4.45 4.447z" fill="url(#b)"/>
        <g fill="#FFF">
          <path d="M38.362 42.409c0-1.293-.45-2.387-1.354-3.27-.902-.883-2.435-1.692-4.586-2.407-2.992-.915-5.175-2.103-6.54-3.575-1.374-1.471-2.056-3.343-2.056-5.603 0-2.313.671-4.205 2.015-5.677 1.343-1.482 3.19-2.355 5.531-2.639v-3.647c0-.537.441-.978.976-.978h1.186c.536 0 .976.441.976.978v3.668c2.362.326 4.199 1.315 5.51 2.976 1.176 1.492 1.827 3.469 1.953 5.94a.857.857 0 0 1-.86.882H38.94c-.462 0-.819-.368-.861-.83-.115-1.609-.577-2.912-1.385-3.91-.945-1.168-2.215-1.756-3.81-1.756-1.67 0-2.95.43-3.831 1.303-.882.862-1.333 2.082-1.333 3.627 0 1.44.472 2.586 1.406 3.438.934.851 2.477 1.63 4.618 2.323 2.141.694 3.81 1.461 5.017 2.302 1.197.841 2.089 1.809 2.656 2.923.566 1.114.85 2.418.85 3.91 0 2.377-.714 4.29-2.141 5.74-1.428 1.451-3.422 2.314-5.993 2.576v3.05c0 .535-.441.977-.977.977h-1.165a.982.982 0 0 1-.976-.978v-3.049c-2.613-.241-4.66-1.167-6.14-2.796-1.322-1.45-2.057-3.364-2.193-5.73-.032-.483.377-.883.86-.883h2.194a.84.84 0 0 1 .85.768c.115 1.587.62 2.838 1.511 3.753 1.029 1.051 2.477 1.587 4.367 1.587 1.836 0 3.285-.441 4.345-1.335 1.029-.914 1.553-2.134 1.553-3.658z"/>
          <path d="M34.132 51.576l-3.117-.893.357-31.36v-1.051l3.138.977-.378 31.402z"/>
        </g>
        <ellipse fill="#2E7D32" opacity=".5" cx="85.699" cy="34.566" rx="19.417" ry="19.449"/>
        <path d="M108.454 8.473c.902 5.677 5.395 10.177 11.062 11.08v30.004c-5.667.905-10.16 5.404-11.062 11.08H19.207c-1.154-5.371-5.52-9.513-10.936-10.375V20.258c5.909-.935 10.527-5.771 11.157-11.785h89.026zm1.931-2.102H17.381c.01.231.021.462.021.704 0 6.213-5.027 11.249-11.23 11.249v33.883c5.961 0 10.842 4.657 11.21 10.544h93.003c0-6.213 5.028-11.249 11.23-11.249V17.62c-6.202 0-11.23-5.035-11.23-11.248z" fill="#2E7D32" fill-rule="nonzero"/>
        <path fill="#FFECB3" d="M52.343.925h23.101v80.087H52.343z"/>
        <path fill="#FFB74D" opacity=".5" d="M52.343 68.207h23.101v12.805H52.343z"/>
        <path d="M122.287 1.976a3.542 3.542 0 0 1 3.537 3.543v70.92a3.52 3.52 0 0 1-3.516 3.522H5.478a3.52 3.52 0 0 1-3.515-3.522V5.509A3.542 3.542 0 0 1 5.5 1.966h116.787v.01zm0-1.05H5.5A4.588 4.588 0 0 0 .913 5.518v70.92a4.573 4.573 0 0 0 4.566 4.573h116.819a4.573 4.573 0 0 0 4.566-4.573V5.509a4.57 4.57 0 0 0-4.577-4.584z" opacity=".2" fill="#424242" fill-rule="nonzero"/>
      </g>
    </g>
  </g>
</svg>
