<svg width="272" height="272" xmlns="http://www.w3.org/2000/svg">
  <defs>
    <filter x="-3.6%" y="-3.5%" width="107.4%" height="107%" filterUnits="objectBoundingBox" id="a">
      <feOffset dy="2" in="SourceAlpha" result="shadowOffsetOuter1"/>
      <feGaussianBlur stdDeviation="2" in="shadowOffsetOuter1" result="shadowBlurOuter1"/>
      <feColorMatrix values="0 0 0 0 0 0 0 0 0 0 0 0 0 0 0 0 0 0 0.5 0" in="shadowBlurOuter1" result="shadowMatrixOuter1"/>
      <feMerge>
        <feMergeNode in="shadowMatrixOuter1"/>
        <feMergeNode in="SourceGraphic"/>
      </feMerge>
    </filter>
  </defs>
  <g filter="url(#a)" transform="translate(-47 -28)" fill="none" fill-rule="evenodd">
    <path d="M144.726 31.202l134.53 41.13c8.706 12.118 15.205 26.126 18.77 41.574 8.53 36.947-1.623 73.846-24.274 100.8l38.674-1.351 2.478 70.956-260.84 9.11-2.48-70.957 50.078-1.75c-14.225-14.658-24.758-33.262-29.689-54.62-13.286-57.548 18.756-114.98 72.753-134.892z" fill="#000"/>
    <path d="M144.726 31.202l134.53 41.13c8.706 12.118 15.205 26.126 18.77 41.574 8.53 36.947-1.623 73.846-24.274 100.8l38.674-1.351 2.478 70.956-260.84 9.11-2.48-70.957 50.078-1.75c-14.225-14.658-24.758-33.262-29.689-54.62-13.286-57.548 18.756-114.98 72.753-134.892z" fill="#FFF"/>
    <path d="M279.046 71.425a117.123 117.123 0 0 1-14.18 4.23c-46.975 10.844-93.873-8.513-120.35-45.36l134.53 41.13z" fill="#E1E1E1"/>
    <g fill="#232045" font-family="Chalkboard SE, Comic Sans MS, sans-serif" font-size="32">
      <text transform="rotate(-5 2672.272 -1468.67)">
        <tspan x=".002" y="31.093">I rule!</tspan>
      </text>
    </g>
    <g>
      <g fill="#F79329">
        <path d="M222.252 131.062l5.406 54.37-39.988-14.077z"/>
        <path d="M227.374 186.77a.874.874 0 0 1-.167-.047l-40-14.08a1.363 1.363 0 0 1-.863-.942c-.12-.44-.01-.902.276-1.244l34.594-40.291c.359-.41.937-.571 1.447-.415.522.158.898.617.948 1.16l5.358 53.983c.113.249.145.54.085.823a1.368 1.368 0 0 1-1.619 1.054c-.002.01-.036.004-.059-.001zm-37.382-16.047l36.095 12.706-4.869-49.058-31.226 36.352z" fill-rule="nonzero"/>
        <path d="M167.88 101.183c-.725 3.41-4.075 5.6-7.49 4.874-3.404-.723-5.585-4.088-4.86-7.499a6.312 6.312 0 0 1 7.49-4.874 6.312 6.312 0 0 1 4.86 7.5z"/>
        <path d="M160.108 107.383c-4.14-.88-6.792-4.973-5.91-9.12.881-4.147 4.97-6.807 9.109-5.927 4.139.88 6.792 4.972 5.91 9.12-.881 4.147-4.97 6.807-9.109 5.927zm2.628-12.362a4.959 4.959 0 0 0-2.062 9.7 4.969 4.969 0 0 0 5.883-3.819 4.969 4.969 0 0 0-3.821-5.881z" fill-rule="nonzero"/>
        <g>
          <path d="M229.578 107.831c3.361.928 5.339 4.416 4.41 7.783-.917 3.37-4.41 5.34-7.761 4.426a6.312 6.312 0 0 1-4.412-7.772c.93-3.378 4.402-5.364 7.763-4.437z"/>
          <path d="M226.305 121.454l-.44-.105a7.595 7.595 0 0 1-4.635-3.603 7.672 7.672 0 0 1-.733-5.84c1.083-3.927 5.034-6.332 9.004-5.489l.438.105c4.087 1.13 6.492 5.383 5.364 9.466a7.681 7.681 0 0 1-8.998 5.466zm2.89-12.319c-2.828-.6-5.369.955-6.06 3.485a4.937 4.937 0 0 0 .463 3.77 4.89 4.89 0 0 0 2.992 2.33l.28.07a4.956 4.956 0 0 0 5.8-3.54c.727-2.64-.831-5.375-3.464-6.112l-.011-.003z" fill-rule="nonzero"/>
        </g>
        <g>
          <path d="M159.901 117.809l-27.041 47.474 42.257 3.404z"/>
          <path d="M132.575 166.62a1.391 1.391 0 0 1-.928-.695 1.366 1.366 0 0 1 .019-1.31l27.042-47.475a1.342 1.342 0 0 1 1.337-.675c.59.066.995.437 1.154.968l15.215 50.878c.122.429.034.896-.254 1.249a1.37 1.37 0 0 1-1.172.509l-42.257-3.404c-.042-.021-.099-.033-.156-.045zm26.937-45.365L135.097 164.1l38.142 3.074-13.727-45.92z" fill-rule="nonzero"/>
        </g>
      </g>
      <path d="M205.53 101.903c-1.086 5.11-6.107 8.377-11.208 7.293-5.1-1.084-8.37-6.114-7.283-11.224a9.454 9.454 0 0 1 11.219-7.29c5.112 1.086 8.36 6.099 7.272 11.22zM137.638 94.755a7.5 7.5 0 0 1-8.901 5.782c-4.05-.86-6.63-4.843-5.768-8.9.864-4.068 4.843-6.657 8.892-5.796a7.503 7.503 0 0 1 5.777 8.914zM251.969 119.057a7.5 7.5 0 0 0 5.78 8.902 7.508 7.508 0 0 0 8.9-5.782c.864-4.068-1.728-8.053-5.777-8.914-4.049-.86-8.039 1.726-8.903 5.794z" fill="#FCC21B"/>
      <path d="M205.53 101.903c-1.086 5.11-6.107 8.377-11.208 7.293-5.1-1.084-8.37-6.114-7.283-11.224a9.454 9.454 0 0 1 11.219-7.29c5.112 1.086 8.36 6.099 7.272 11.22zM137.638 94.755a7.5 7.5 0 0 1-8.901 5.782c-4.05-.86-6.63-4.843-5.768-8.9.864-4.068 4.843-6.657 8.892-5.796a7.503 7.503 0 0 1 5.777 8.914zM251.969 119.057a7.5 7.5 0 0 0 5.78 8.902 7.508 7.508 0 0 0 8.9-5.782c.864-4.068-1.728-8.053-5.777-8.914-4.049-.86-8.039 1.726-8.903 5.794zM253.118 141.234a1.363 1.363 0 0 0-1.512-.06l-42.014 25.485-17.038-42.692a1.343 1.343 0 0 0-.983-.825 1.376 1.376 0 0 0-1.232.343l-33.044 32.058-28.003-40.38a1.363 1.363 0 0 0-1.406-.56 1.344 1.344 0 0 0-1.045 1.081l-10.009 54.15c-2.488 11.705 22.773 26.668 57.517 34.053 34.744 7.385 63.906 3.99 66.387-7.68l12.888-53.574a1.329 1.329 0 0 0-.506-1.399z" fill="#FCC21B"/>
      <path d="M247.65 169.241l.008.014-5.207 21.217-.011-.002c-4.719-1.157-7.366-6.836-5.93-12.701 1.438-5.876 6.42-9.685 11.14-8.528zM121.5 142.427l-.014.009-3.884 21.498.022.005c4.77.86 9.51-3.249 10.572-9.193 1.076-5.953-1.926-11.459-6.696-12.319zM189.916 178.867c-1.344 6.323-6.824 10.523-12.241 9.371-5.406-1.149-8.703-7.214-7.36-13.537 1.347-6.334 6.824-10.523 12.23-9.374 5.42 1.14 8.717 7.206 7.37 13.54z" fill="#D7598B"/>
      <g transform="rotate(12 -743.367 1041.474)" fill="#ED6C30">
        <path d="M10.219 10.446c-.15 3.085-2.435 5.474-5.098 5.348C2.469 15.67.436 13.051.597 9.977.757 6.88 3.043 4.491 5.695 4.63c2.652.114 4.673 2.731 4.524 5.817z"/>
        <ellipse transform="rotate(-87.013 25.295 6.809)" cx="25.295" cy="6.809" rx="5.588" ry="4.822"/>
      </g>
      <g transform="rotate(12 -707.867 703.714)" fill="#ED6C30">
        <path d="M21.091 10.446c.15 3.085 2.435 5.474 5.098 5.348 2.652-.125 4.685-2.743 4.524-5.817-.15-3.097-2.434-5.486-5.086-5.348-2.664.114-4.696 2.731-4.536 5.817z"/>
        <ellipse transform="rotate(-2.987 6.003 6.796)" cx="6.003" cy="6.796" rx="4.811" ry="5.588"/>
      </g>
    </g>
  </g>
</svg>
