<svg width="273" height="266" xmlns="http://www.w3.org/2000/svg">
  <defs>
    <filter x="-2.8%" y="-2.8%" width="105.7%" height="105.6%" filterUnits="objectBoundingBox" id="a">
      <feOffset dy="2" in="SourceAlpha" result="shadowOffsetOuter1"/>
      <feGaussianBlur stdDeviation="2" in="shadowOffsetOuter1" result="shadowBlurOuter1"/>
      <feColorMatrix values="0 0 0 0 0 0 0 0 0 0 0 0 0 0 0 0 0 0 0.5 0" in="shadowBlurOuter1" result="shadowMatrixOuter1"/>
      <feMerge>
        <feMergeNode in="shadowMatrixOuter1"/>
        <feMergeNode in="SourceGraphic"/>
      </feMerge>
    </filter>
  </defs>
  <g filter="url(#a)" transform="translate(-83 -52)" fill="none" fill-rule="evenodd">
    <path d="M123.567 228.582a117.33 117.33 0 0 1-6.85-10.162c-26.798-44.6-20.111-99.984 12.764-136.894l138.096-26.843c19.265 9.505 36.117 24.466 48.004 44.248 27.3 45.434 19.849 102.062-14.64 138.947l50.38 2.64-3.716 70.903-260.642-13.66 3.716-70.902 32.888 1.723z" fill="#000"/>
    <path d="M123.567 228.582a117.33 117.33 0 0 1-6.85-10.162c-26.798-44.6-20.111-99.984 12.764-136.894l138.096-26.843c19.265 9.505 36.117 24.466 48.004 44.248 27.3 45.434 19.849 102.062-14.64 138.947l50.38 2.64-3.716 70.903-260.642-13.66 3.716-70.902 32.888 1.723z" fill="#FFF"/>
    <path d="M267.564 54.732a117.123 117.123 0 0 1-10.534 10.391c-36.386 31.63-86.882 36.555-127.558 16.451l138.092-26.842z" fill="#E1E1E1"/>
    <g fill="#232045" font-family="Chalkboard SE, Comic Sans MS, sans-serif" font-size="24">
      <text transform="rotate(4 -3288.27 2047.902)">
        <tspan x=".132" y="24.219">Adults have a lot</tspan>
      </text>
      <text transform="rotate(4 -3623.586 2208.22)">
        <tspan x=".505" y="24.219">to think about.</tspan>
      </text>
    </g>
    <g>
      <path d="M279.72 210.38c-.15-.4-.37-.76-.64-1.11-.94-1.2-2.59-1.78-3.66-2.9-1.28-1.33-2.17-2.99-3.3-4.43-4.31-5.48-10.57-8.69-16.82-11.48-5.65-2.52-13.01-4.19-19.13-5-4.84-.64-9.67-1.2-14.55-1.44-1.88-.09-3.75-.14-5.62-.14s-3.74.05-5.62.14c-4.88.25-9.72.8-14.55 1.44-6.11.81-13.48 2.48-19.13 5-6.24 2.79-12.5 6-16.82 11.48-1.13 1.44-2.02 3.1-3.3 4.43-1.07 1.12-2.73 1.7-3.67 2.9-.27.34-.49.71-.63 1.11-.81 2.25 5.78 6.06 7.23 7 3.06 1.98 6.34 3.61 9.73 4.93 9.1 3.55 18.92 4.59 28.58 5.3 9.96.72 19.91 1.02 29.88.53 11.71-.59 24.04-1.52 35.05-5.83 3.39-1.32 6.67-2.94 9.73-4.93 1.46-.94 8.05-4.76 7.24-7z" fill="#D7598B"/>
      <g transform="translate(163 101)">
        <ellipse fill="#40C0E7" cx="53.39" cy="52.38" rx="52.42" ry="51.76"/>
        <g fill="#FFF">
          <path d="M15.1 62.34c.04-.03.07-.06.1-.09 3.09-2.77 2.69-7.94 7.04-9.67 7.55-3.01 13.27 3.21 20.04 5.61 8.37 2.96 19.39 3.4 26.72 1.7 10.93-2.52 24.02-9.57 24.21-22.16.1-6.83-3.11-12.74-7.52-17.13-6.16-6.13-12.01-9.99-19.07-12.17-4.17-1.29-8.92-2-13.29-2-9.82 0-19.45 3.25-27.06 9.6-7.35 6.14-13.52 14.18-15.48 23.85C9.57 45.91 9 53.34 9.88 59.46c.42 2.78 2.76 5.02 5.22 2.88zM85.7 68.32l-.08.08c-4.37 3.7-7.71 8.5-12.18 12.05-3.56 2.83-7.77 4.8-12.13 6.03-4.49 1.28-9.07.91-13.65 1.51-2.59.34-4.56 2.04-1.09 3.27 2.8.99 5.89 1.43 8.84 1.56 12.63.55 26.57-4.57 34.57-14.64 1.62-2.05 3.04-4.87 3.09-7.55.06-4.38-4.72-4.68-7.37-2.31z"/>
        </g>
      </g>
      <path d="M186.05 204.5c15.71-6.37 33.2-6.33 49.82-4.2 4.53.59 9.07 1.44 13.44 2.73 1.5.44 3.17.72 4.59 1.34 5 2.16-6.51 3.59-7.88 3.76-4.85.62-9.35 1.44-14.24 1.01-4.84-.42-9.88.52-14.76.6-9.95.16-20.11-.75-29.97-1.96-.67-.08-3.19-.3-3.5-1.11-.29-.79.99-1.56 2.5-2.17z" fill="#D7598B"/>
    </g>
  </g>
</svg>
