<svg width="272" height="276" xmlns="http://www.w3.org/2000/svg">
  <defs>
    <filter x="-4%" y="-3.9%" width="108%" height="107.9%" filterUnits="objectBoundingBox" id="a">
      <feOffset dy="2" in="SourceAlpha" result="shadowOffsetOuter1"/>
      <feGaussianBlur stdDeviation="2" in="shadowOffsetOuter1" result="shadowBlurOuter1"/>
      <feColorMatrix values="0 0 0 0 0 0 0 0 0 0 0 0 0 0 0 0 0 0 0.5 0" in="shadowBlurOuter1" result="shadowMatrixOuter1"/>
      <feMerge>
        <feMergeNode in="shadowMatrixOuter1"/>
        <feMergeNode in="SourceGraphic"/>
      </feMerge>
    </filter>
  </defs>
  <g filter="url(#a)" transform="translate(-2 -11)" fill="none" fill-rule="evenodd">
    <path d="M60.852 202.164c-20.733-24.814-31.041-58.116-25.585-92.562 8.139-51.391 48.862-89.52 97.771-96.661L256.08 81.144c8.648 19.664 11.941 41.957 8.331 64.751-3.862 24.381-15.058 45.776-30.981 62.295l36.514 1.275-2.478 70.957-260.84-9.108 2.477-70.957 51.749 1.807z" fill="#000"/>
    <path d="M60.852 202.164c-20.733-24.814-31.041-58.116-25.585-92.562 8.139-51.391 48.862-89.52 97.771-96.661L256.08 81.144c8.648 19.664 11.941 41.957 8.331 64.751-3.862 24.381-15.058 45.776-30.981 62.295l36.514 1.275-2.478 70.957-260.84-9.108 2.477-70.957 51.749 1.807z" fill="#FFF"/>
    <path d="M256.87 80.93a117.123 117.123 0 0 1-14.75 1.19c-48.203.84-90.052-27.844-108.289-69.39l123.039 68.2z" fill="#E1E1E1"/>
    <text transform="rotate(1 -12565.335 2254.094)" fill="#232045" font-family="Chalkboard SE, Comic Sans MS, sans-serif" font-size="24">
      <tspan x=".82" y="24.208">Make my own plan.</tspan>
    </text>
    <g>
      <path d="M183.46 188.16h-80.27c-1.55 0-2.81-1.26-2.81-2.81V81.98c0-1.55 1.26-2.81 2.81-2.81h80.27c1.55 0 2.81 1.26 2.81 2.81v103.38c0 1.55-1.26 2.8-2.81 2.8z" fill="#78909C"/>
      <path d="M180.81 185.52h-80.27c-1.55 0-2.81-1.26-2.81-2.81V79.33c0-1.55 1.26-2.81 2.81-2.81h80.27c1.55 0 2.81 1.26 2.81 2.81v103.38c0 1.55-1.26 2.81-2.81 2.81z" fill="#E0E0E0"/>
      <g fill="#616161">
        <path d="M171.43 109.67h-61.5a2.5 2.5 0 0 1 0-5h61.5a2.5 2.5 0 0 1 0 5zM171.43 123.4h-61.5a2.5 2.5 0 0 1 0-5h61.5a2.5 2.5 0 0 1 0 5zM171.43 137.13h-61.5a2.5 2.5 0 0 1 0-5h61.5a2.5 2.5 0 0 1 0 5zM171.43 150.87h-61.5a2.5 2.5 0 0 1 0-5h61.5a2.5 2.5 0 0 1 0 5zM136.23 164.6h-26.3a2.5 2.5 0 0 1 0-5h26.3a2.5 2.5 0 0 1 0 5z"/>
      </g>
      <path d="M183.62 157.41l-12.33 15.42-15.87 12.69h25.39c1.57 0 2.81-1.21 2.81-2.81v-25.3z" fill="#B0BEC5"/>
      <path d="M155.42 185.52c.8-4.37 1.08-9.48.36-15.99-.16-1.49.94-2.81 2.44-2.88 3.46-.17 9.4-.61 13.61-1.73 6.03-1.6 11.79-7.51 11.79-7.51s-3.51 9.33-12.76 18.26c-6.52 6.29-15.44 9.85-15.44 9.85z" fill="#78A3AD"/>
      <g>
        <path d="M116.15 88.04c-5.08 0-9.06-4.88-9.06-11.1s3.98-11.1 9.06-11.1 9.06 4.88 9.06 11.1c0 .57-.03 1.13-.1 1.68-.2 1.65-1.7 2.81-3.34 2.61-1.64-.2-2.81-1.7-2.61-3.35.04-.3.06-.62.06-.95 0-2.92-1.62-5.1-3.06-5.1s-3.06 2.18-3.06 5.1c0 2.92 1.62 5.1 3.06 5.1 1.66 0 3 1.34 3 3s-1.35 3.01-3.01 3.01z" fill="#616161"/>
        <path fill="#E0E0E0" d="M118.3 76.58h7.84v6.08h-7.84z"/>
      </g>
      <g>
        <path d="M140.46 88.04c-5.08 0-9.06-4.88-9.06-11.1s3.98-11.1 9.06-11.1 9.06 4.88 9.06 11.1c0 .56-.03 1.12-.1 1.67-.2 1.64-1.7 2.81-3.34 2.62a2.996 2.996 0 0 1-2.62-3.34c.04-.31.06-.63.06-.95 0-2.92-1.62-5.1-3.06-5.1s-3.06 2.18-3.06 5.1c0 2.92 1.62 5.1 3.06 5.1 1.66 0 3 1.34 3 3s-1.34 3-3 3z" fill="#616161"/>
        <path fill="#E0E0E0" d="M142.61 76.58h7.84v6.08h-7.84z"/>
      </g>
      <g>
        <path d="M164.77 88.04c-5.08 0-9.06-4.88-9.06-11.1s3.98-11.1 9.06-11.1 9.06 4.88 9.06 11.1c0 .56-.03 1.12-.1 1.67-.2 1.64-1.7 2.81-3.34 2.62a2.996 2.996 0 0 1-2.62-3.34c.04-.31.06-.63.06-.95 0-2.92-1.62-5.1-3.06-5.1s-3.06 2.18-3.06 5.1c0 2.92 1.62 5.1 3.06 5.1 1.66 0 3 1.34 3 3s-1.34 3-3 3z" fill="#616161"/>
        <path fill="#E0E0E0" d="M166.92 76.58h7.84v6.08h-7.84z"/>
      </g>
    </g>
  </g>
</svg>
