<svg width="271" height="252" xmlns="http://www.w3.org/2000/svg">
  <defs>
    <filter x="-3.1%" y="-3.1%" width="106.2%" height="106.2%" filterUnits="objectBoundingBox" id="a">
      <feOffset dy="2" in="SourceAlpha" result="shadowOffsetOuter1"/>
      <feGaussianBlur stdDeviation="2" in="shadowOffsetOuter1" result="shadowBlurOuter1"/>
      <feColorMatrix values="0 0 0 0 0 0 0 0 0 0 0 0 0 0 0 0 0 0 0.5 0" in="shadowBlurOuter1" result="shadowMatrixOuter1"/>
      <feMerge>
        <feMergeNode in="shadowMatrixOuter1"/>
        <feMergeNode in="SourceGraphic"/>
      </feMerge>
    </filter>
  </defs>
  <g filter="url(#a)" transform="translate(-45 -37)" fill="none" fill-rule="evenodd">
    <path d="M77.666 211.008c-13.035-23.881-17.477-51.98-11.852-79.163L171.987 39.55c21.436-1.4 43.512 3.13 63.696 14.318 54.66 30.299 75.264 98.227 47.407 153.552l27.132-.473 1.24 70.99L50.5 282.493l-1.238-70.99 28.403-.494v-.001z" fill="#000"/>
    <path d="M77.666 211.008c-13.035-23.881-17.477-51.98-11.852-79.163L171.987 39.55c21.436-1.4 43.512 3.13 63.696 14.318 54.66 30.299 75.264 98.227 47.407 153.552l27.132-.473 1.24 70.99L50.5 282.493l-1.238-70.99 28.403-.494v-.001z" fill="#FFF"/>
    <path d="M172 39.6a117.123 117.123 0 0 1-3.927 14.266c-15.696 45.584-56.964 75.098-102.243 78.026L172 39.6z" fill="#E1E1E1"/>
    <text transform="rotate(-2 6629.862 -2488.443)" fill="#232045" font-family="Chalkboard SE, Comic Sans MS, sans-serif" font-size="24">
      <tspan x=".771" y="24.049">Money is boring.</tspan>
    </text>
    <g>
      <path d="M123.812 191.913c1.686 13.727 31.388 21.364 66.365 17.07 34.967-4.294 61.948-18.901 60.264-32.618-1.685-13.727-11.667-82.876-73.512-75.282-61.857 7.584-54.802 77.103-53.117 90.83z" fill="#FCC21B"/>
      <g fill="#D7598B">
        <path d="M218.724 128.523c-.347-.118-.709-.195-1.082-.28-.436-.107-.863-.216-1.304-.283-.68-.118-1.348-.227-2.017-.347-.815-.152-1.63-.313-2.447-.475-1.558-.302-3.587-1.232-4.286 1.03-.144.471-.298 1.104-.21 1.577.137.78.725 1.06 1.434 1.255.73.192 1.484.352 2.227.492.248.05.495.09.741.13.145.033.387.034.39.215.005.13-.14.259-.23.35-.153.15-.317.291-.49.443l-.236.21c-.493.414-.975.836-1.46 1.228-.384.33-.776.66-1.148.997-.155.13-.31.27-.475.401-.52.437-.948.892-1.423 1.374l-.176.203c-.433.496-.87 1.044-.838 1.715.036.862.75 1.177 1.548 1.442.284.096.574.161.872.215l.021.008c.972.283 2.046.413 3.079.619.815.152 1.63.314 2.445.466 1.558.302 3.595 1.22 4.288-1.02.153-.473.306-1.116.208-1.588-.135-.77-.725-1.06-1.434-1.254a27.198 27.198 0 0 0-2.217-.494l-.494-.09c-.114-.027-.325-.02-.404-.092-.212-.165.126-.368.235-.462.359-.276.706-.57 1.052-.865.366-.306.732-.603 1.063-.946.183-.154.367-.297.55-.45.38-.34.786-.651 1.141-1.037.9-.967 3.14-2.25 2.143-3.8-.2-.318-.675-.743-1.066-.887zM230.155 112.239c-.374-.176-.762-.3-1.141-.434-.474-.164-.926-.32-1.396-.453-.72-.204-1.438-.388-2.17-.6-.867-.257-1.736-.523-2.605-.789-1.683-.498-3.79-1.731-4.797.65-.211.489-.44 1.172-.406 1.692.065.858.674 1.227 1.435 1.516.772.298 1.568.543 2.364.788.261.079.543.155.804.234.156.04.423.079.397.273-.003.142-.18.264-.28.347-.194.145-.398.29-.592.435-.102.073-.185.134-.288.197a65.32 65.32 0 0 1-1.729 1.18c-.456.307-.91.635-1.353.961-.185.134-.371.258-.558.381-.613.418-1.141.876-1.71 1.339-.071.069-.145.128-.217.198-.524.487-1.06 1.047-1.111 1.778-.046.943.693 1.376 1.534 1.746.309.134.604.239.927.33l.022.017c1.028.408 2.19.679 3.298 1.006.877.255 1.746.521 2.615.787 1.673.5 3.79 1.731 4.797-.65.211-.489.44-1.172.406-1.692-.066-.868-.665-1.238-1.426-1.527-.773-.298-1.568-.543-2.364-.788l-.532-.146c-.115-.036-.338-.05-.43-.139-.215-.195.173-.394.305-.47.421-.264.83-.546 1.238-.828.428-.294.856-.578 1.268-.92.213-.148.438-.286.642-.432.464-.32.941-.62 1.377-1.006 1.083-.949 3.66-2.111 2.755-3.904-.186-.37-.663-.886-1.08-1.077zM239.958 90.331c-.282-.49-.936-1.144-1.498-1.368-.5-.21-1.021-.358-1.553-.504-.616-.176-1.254-.37-1.887-.514-.964-.224-1.946-.426-2.912-.66-1.172-.28-2.348-.578-3.532-.866-2.255-.56-5.138-2.05-6.323 1.18-.24.674-.51 1.583-.425 2.278.14 1.142.961 1.595 2 1.93 1.05.345 2.12.617 3.202.887.363.087.716.174 1.068.252.207.045.555.083.555.335-.006.192-.216.369-.363.488-.246.211-.503.414-.75.616-.11.094-.24.18-.358.285-.737.564-1.483 1.14-2.222 1.684-.59.445-1.179.9-1.745 1.373-.23.179-.479.37-.719.551-.793.591-1.46 1.237-2.185 1.89l-.269.276c-.663.675-1.351 1.465-1.354 2.433-.016 1.261 1.005 1.78 2.148 2.225.401.152.809.273 1.244.37l.042.016c1.39.484 2.944.756 4.44 1.117 1.173.289 2.347.578 3.531.866 2.265.558 5.148 2.048 6.324-1.18.24-.664.51-1.584.425-2.278-.14-1.142-.961-1.595-1.99-1.932-1.06-.344-2.12-.616-3.202-.887a19.097 19.097 0 0 1-.715-.164c-.166-.04-.46-.054-.574-.16-.294-.257.207-.53.373-.651a42.12 42.12 0 0 0 1.588-1.183c.543-.419 1.108-.82 1.624-1.297.277-.205.554-.41.84-.627.589-.455 1.2-.893 1.75-1.424 1.4-1.31 4.747-3.021 3.422-5.357z"/>
      </g>
      <g fill="#2F2F2F">
        <path d="M214.963 146.96a2.728 2.728 0 0 1 3.589-1.378 2.72 2.72 0 0 1 1.405 3.565c-.141.33-3.637 8.124-13.334 9.314-9.707 1.192-14.985-5.525-15.212-5.81a2.735 2.735 0 0 1 1.842-4.366 2.73 2.73 0 0 1 2.483 1.025c.156.202 3.701 4.543 10.222 3.742 6.521-.8 8.9-5.878 9.005-6.093zM147.314 154.308c.396-.31.857-.488 1.314-.544a2.758 2.758 0 0 1 2.506 1.043c.133.185 3.659 4.527 10.19 3.725 6.64-.815 8.992-6.03 9.015-6.084a2.724 2.724 0 0 1 4.993 2.178c-.14.33-3.637 8.124-13.344 9.316-9.697 1.19-14.965-5.528-15.182-5.813a2.735 2.735 0 0 1 .508-3.82z"/>
      </g>
      <path d="M204.986 170.571c-3.799-2.304-11.318-5.119-19.804-4.077-8.487 1.042-15.101 5.592-18.23 8.747-3.972 4.004-7.118 9.478-5.043 13.828.908 1.893 2.956 3.475 6.543 3.559 3.192.071 14.489-1.225 19.7-1.865 5.21-.64 16.493-2.126 19.575-2.957 3.47-.95 5.075-2.981 5.487-5.037.972-4.723-3.405-9.274-8.228-12.198z" fill="#ED6C30"/>
    </g>
  </g>
</svg>
