<svg width="283" height="263" xmlns="http://www.w3.org/2000/svg">
  <defs>
    <filter x="-3.5%" y="-3.4%" width="106.9%" height="106.8%" filterUnits="objectBoundingBox" id="a">
      <feOffset dy="2" in="SourceAlpha" result="shadowOffsetOuter1"/>
      <feGaussianBlur stdDeviation="2" in="shadowOffsetOuter1" result="shadowBlurOuter1"/>
      <feColorMatrix values="0 0 0 0 0 0 0 0 0 0 0 0 0 0 0 0 0 0 0.5 0" in="shadowBlurOuter1" result="shadowMatrixOuter1"/>
      <feMerge>
        <feMergeNode in="shadowMatrixOuter1"/>
        <feMergeNode in="SourceGraphic"/>
      </feMerge>
    </filter>
  </defs>
  <g filter="url(#a)" transform="translate(-55 -48)" fill="none" fill-rule="evenodd">
    <path d="M94.66 230.592c-13.856-13.267-24.608-30.162-30.615-49.81-15.213-49.759 4.675-101.88 45.503-129.74l140.488 7.363c16.393 13.883 29.125 32.477 35.873 54.546 9.832 32.164 5 65.316-10.674 92.263l48.69-6.843 9.882 70.31-258.46 36.323-9.881-70.31 29.194-4.103v.001z" fill="#000"/>
    <path d="M94.66 230.592c-13.856-13.267-24.608-30.162-30.615-49.81-15.213-49.759 4.675-101.88 45.503-129.74l140.488 7.363c16.393 13.883 29.125 32.477 35.873 54.546 9.832 32.164 5 65.316-10.674 92.263l48.69-6.843 9.882 70.31-258.46 36.323-9.881-70.31 29.194-4.103v.001z" fill="#FFF"/>
    <path d="M250.652 57.867a117.123 117.123 0 0 1-12.735 7.534C194.96 87.29 144.772 79.852 110.168 50.505l140.484 7.362z" fill="#E1E1E1"/>
    <g fill="#232045" font-family="Chalkboard SE, Comic Sans MS, sans-serif" font-size="24">
      <text transform="rotate(-9 1541.401 -533.377)">
        <tspan x=".479" y="24.095">Never think about</tspan>
      </text>
      <text transform="rotate(-9 1687.082 -794.148)">
        <tspan x=".068" y="24.095">this again!</tspan>
      </text>
    </g>
    <g transform="rotate(-13 545.402 -352.898)">
      <path d="M32.165 31.314c-.594-.907-1.59-1.473-2.584-1.862-5.024-1.944-14.296 2.64-12.305 8.778.388 1.225 1.832 2.627 2.232 3.852.91 2.816 1.372 4.713 1.323 7.647-.036 2.05-.279 4.076-.279 6.126 0 1.956.024 4.006.789 5.832.17.424.291.943.594 1.308.207.26.462.424.62.742.388.79.363 1.803.29 2.663-.048.566-.242 1.108-.218 1.673.06 1.308.45 2.97 1.808 3.487 2.233.86 4.672.472 6.007-1.284 1.456-1.908 1.675-4.7 1.675-6.998 0-1.155-.146-2.357-.389-3.464-.17-.695-.23-1.378-.485-2.085-.255-.672-.497-1.32-.692-2.003-.376-1.32-.934-2.592-1.152-3.924-.219-1.296-.413-2.521-.425-3.852 0-1.19.182-2.416.364-3.57.145-.99.546-1.838.813-2.804.146-.554.364-1.096.522-1.638.145-.483.497-.86.74-1.296.218-.377.4-.766.655-1.131 1.226-1.732 1.226-4.465.097-6.197zM121.836 31.314c.594-.907 1.588-1.473 2.595-1.862 5.032-1.944 14.273 2.64 12.296 8.778-.388 1.225-1.831 2.627-2.219 3.852-.897 2.816-1.37 4.713-1.322 7.647.037 2.05.28 4.076.28 6.126 0 1.956-.037 4.006-.79 5.832-.181.424-.302.943-.581 1.308-.218.26-.461.424-.619.742-.388.79-.376 1.803-.279 2.663.061.566.243 1.108.219 1.673-.06 1.308-.449 2.97-1.795 3.487-2.243.86-4.68.472-6.015-1.284-1.455-1.908-1.661-4.7-1.661-6.998 0-1.155.133-2.357.388-3.464.158-.695.218-1.378.485-2.085.255-.672.485-1.32.691-2.003.376-1.32.922-2.592 1.14-3.924.219-1.296.413-2.521.425-3.852 0-1.19-.182-2.416-.364-3.57-.158-.99-.546-1.838-.825-2.804-.157-.554-.351-1.096-.521-1.638-.146-.483-.497-.86-.752-1.296-.218-.377-.388-.766-.655-1.131-1.249-1.732-1.261-4.465-.121-6.197z" fill="#2F2F2F"/>
      <path d="M125.87 49.244c-.776-13.992-7.432-28.389-17.751-37.339C99.78 4.659 88.018.976 76.506 1 64.982.976 53.232 4.66 44.893 11.905c-10.319 8.95-16.976 23.347-17.763 37.339-.74 13.288 1.48 26.672 11.703 35.908 5.643 5.113 12.693 8.581 19.946 10.464 2.756.715 9.89 2.384 17.357 2.384 7.48 0 15.294-1.657 18.05-2.384 7.264-1.87 14.303-5.35 19.957-10.464 10.248-9.248 12.467-22.632 11.727-35.908z" fill="#2F2F2F"/>
      <path d="M141.955 64.555c-.19-.31-.31-.596-.478-.906a18.353 18.353 0 0 1-1.111-2.466c-.43-1.227-.694-2.347-.813-3.348 2.665-6.136 2.797-12.177.239-18.027-.956-2.18-4.447-9.318-9.228-9.318-1.207 0-2.51.465-3.86 1.382-1.913 1.3-1.854 3.122-.587 6.565.228.632.49 1.3.801 2.038.646 1.56 1.255 3.038 1.494 4.396.096.513.144 1.013.18 1.514.227 3.384-.694 6.589-1.566 9.698-.717 2.526-1.363 4.945-1.35 7.209.011.56.011 1.12.107 1.656.227 1.263.74 2.848 1.793 4.015.048.072.071.131.12.203a84.731 84.731 0 0 1 1.709 3.062c.334.632.705 1.335 1.087 2.085a124.67 124.67 0 0 1 3.347 7.018c1.805 4.099 1.662 8.84-2.223 8.352-4.136-.524-7.877-4.968-10.28-7.732a24.805 24.805 0 0 0-2.522-2.49c1.96-2.765 3.443-5.755 4.53-8.913a10.14 10.14 0 0 1-.55-1 14.078 14.078 0 0 1-1.29-3.837c-.048-.25-.06-.5-.096-.751-.418-3.443.514-6.803 1.434-10.056.92-3.265 1.793-6.339 1.291-9.318-.012-.06-.048-.155-.072-.226-.155-.798-.561-1.811-1.027-2.92-.048-.106-.084-.202-.132-.32-1.29-3.099-3.072-7.424-1.267-10.963-3.108-7.59-7.758-14.512-13.674-19.635C99.593 4.277 87.796.572 76.249.608 64.69.584 52.905 4.278 44.537 11.522c-5.761 4.98-10.315 11.664-13.423 19.016 2.355 3.586.406 8.257-.968 11.557-.215.525-.419 1.025-.61 1.514-.25.655-.454 1.25-.562 1.751-.024.06-.047.155-.06.214-.501 2.98.36 6.065 1.292 9.318.992 3.491 2.008 7.09 1.338 10.807-.024.119-.06.214-.083.321a14.293 14.293 0 0 1-1.16 3.408 11.53 11.53 0 0 1-.956 1.597c1.112 3.086 2.606 6.005 4.566 8.71-.765.69-1.518 1.417-2.2 2.204-2.402 2.764-6.143 7.22-10.291 7.732-3.885.489-4.016-4.253-2.211-8.352a124.67 124.67 0 0 1 3.347-7.018c.382-.75.74-1.453 1.087-2.085a88.417 88.417 0 0 1 1.638-2.919c.072-.131.143-.238.215-.357 1.04-1.168 1.566-2.753 1.793-4.016.096-.512.096-1.048.108-1.584 0-.048.012-.084.012-.131 0-1.275-.204-2.586-.526-3.944a55.815 55.815 0 0 0-.837-3.217c-.909-3.194-1.829-6.494-1.53-9.973.036-.417.072-.834.143-1.251.24-1.37.86-2.86 1.518-4.42.311-.763.586-1.442.813-2.086 1.267-3.431 1.327-5.242-.586-6.458-1.147-.738-2.247-1.084-3.37-1.084-4.83 0-8.965 6.59-10.113 8.603-2.964 5.135-1.924 12.022.586 18.05a16.492 16.492 0 0 1-.777 3.492 16.305 16.305 0 0 1-1.135 2.573c-.18.346-.335.703-.55 1.06C5.02 73.587-3.526 89.696 2.39 101.73c3.562 7.257 12.204 11.081 19.603 9.14 9.562-2.491 20.798-14.585 25.34-19.851a50.716 50.716 0 0 0 11.14 4.313c2.774.715 9.922 2.383 17.416 2.383 7.507 0 15.348-1.668 18.121-2.383a50.95 50.95 0 0 0 11.774-4.67c4.208 5.063 15.456 17.657 25.221 20.207 7.411 1.93 16.041-1.894 19.603-9.139 5.917-12.034-2.63-28.143-8.654-37.174z" fill="#855C52"/>
      <path d="M76.237 88.516c-7.22.143-14.953-1.085-21.265-4.29-6.383-3.24-12.754-9.043-12.3-17.622.168-3.133 1.698-6.064 2.08-9.198.407-3.289.371-7.59-.502-10.783-1.111-4.11-1.65-8.233-.12-12.308 1.639-4.361 4.531-8.102 8.655-9.592 1.47-.536 3.084-.488 4.602-.62 6.538-.523 12.312 6.53 18.838 6.316 6.515.214 12.288-6.828 18.826-6.315 1.518.13 3.132.083 4.602.62 4.124 1.489 7.029 5.23 8.654 9.59 1.518 4.064.992 8.186-.12 12.309-.872 3.205-.908 7.494-.501 10.783.394 3.134 1.924 6.053 2.091 9.198.467 8.59-5.904 14.382-12.3 17.622-6.299 3.205-14.032 4.433-21.24 4.29z" fill="#FCC21B"/>
      <ellipse fill="#2F2F2F" cx="61" cy="46" rx="6" ry="7"/>
      <path d="M92.006 39C88.686 39 86 42.125 86 46c0 3.863 2.687 7 6.006 7C95.313 53 98 49.863 98 46c0-3.875-2.687-7-5.994-7z" fill="#2F2F2F"/>
      <path d="M76.81 64.096c-1.433-.35-2.724.29-3.719 1.34-3.245 3.465-5.056 12.556.355 14.958 2.25 1.002 5.66.87 7.26-1.22 1.942-2.546 1.456-7.255.13-10.647-.83-2.125-1.67-3.851-4.026-4.43z" fill="#ED6C30"/>
      <path d="M73.582 59.492c.817.372 1.883.598 3.09.474 1.967-.215 2.665-.824 3.352-1.557 1.114-1.197 1.516-2.867-.106-3.758-1.327-.745-4.18-.79-6.052-.44-4.5.846-2.997 4.062-.284 5.28z" fill="#2F2F2F"/>
    </g>
  </g>
</svg>
