<svg width="271" height="277" xmlns="http://www.w3.org/2000/svg">
  <defs>
    <filter x="-4.6%" y="-4.5%" width="109.1%" height="108.9%" filterUnits="objectBoundingBox" id="a">
      <feOffset dy="2" in="SourceAlpha" result="shadowOffsetOuter1"/>
      <feGaussianBlur stdDeviation="2" in="shadowOffsetOuter1" result="shadowBlurOuter1"/>
      <feColorMatrix values="0 0 0 0 0 0 0 0 0 0 0 0 0 0 0 0 0 0 0.5 0" in="shadowBlurOuter1" result="shadowMatrixOuter1"/>
      <feMerge>
        <feMergeNode in="shadowMatrixOuter1"/>
        <feMergeNode in="SourceGraphic"/>
      </feMerge>
    </filter>
  </defs>
  <g filter="url(#a)" transform="translate(4 2)" fill="none" fill-rule="evenodd">
    <path d="M38.043 197.081C17.6 176.168 5 147.556 5 116 5 56.938 49.14 8.185 106.232.931l121.83 70.339C233.819 85.035 237 100.146 237 116c0 30.099-11.464 57.52-30.263 78.137l54.756-.956 1.24 70.99-260.96 4.554-1.24-70.989 37.51-.655z" fill="#000"/>
    <path d="M38.043 197.081C17.6 176.168 5 147.556 5 116 5 56.938 49.14 8.185 106.232.931l121.83 70.339C233.819 85.035 237 100.146 237 116c0 30.099-11.464 57.52-30.263 78.137l54.756-.956 1.24 70.99-260.96 4.554-1.24-70.989 37.51-.655z" fill="#FFF"/>
    <text transform="translate(60 209)" fill="#232045" font-family="Chalkboard SE, Comic Sans MS, sans-serif" font-size="32">
      <tspan x="0" y="31">Woo hoo!</tspan>
    </text>
    <path d="M106.428 97.575c1.152.985 2.314 1.97 3.472 2.921l.96.795.077.074a48.412 48.412 0 0 1 9.448-3.592c.445-.124.899-.235 1.353-.345a25.813 25.813 0 0 1 .194-6.15c-4.091.736-8.481 2.246-13.123 4.818-.804.452-1.587.967-2.38 1.48zM135.74 96.668c-.08.411-.14.837-.178 1.268 6.635 3.675 8.282 11.738 5.797 19.436-3.89 12.092-15.281 21.666-27.554 23.232-2.458.33-4.806.15-7.27-.238-6.346-1.003-12.85-3.558-14.202-10.538l-.018-.084c-.045-.228-.058-.45-.082-.673a33.81 33.81 0 0 1-2.46.974c-1.24.427-2.496.586-3.69.596 1.012 7.399 6.168 12.79 12.176 17.035 5.752 4.057 50.635 31.874 50.635 31.874l6.018 3.728c2.089 1.282 4.097 3.032 6.556 3.51 2.87.558 5.339-1.682 5.111-4.79-.157-2.083-.73-4.452-1.12-6.614-.862-4.58-2.654-13.11-2.654-13.11l-6.827-35.527s-2.521-16.979-7.362-24.856c-2.348-3.821-6.131-7.253-11.03-9.392-.165.21-.343.429-.488.654-.66 1.024-1.096 2.172-1.357 3.515zM90.006 113.365c1.863-.57 3.975-1.187 6.425-1.098a30.092 30.092 0 0 1 3.415-4.259 227.495 227.495 0 0 1-4.632-2.606c-.197.216-.417.427-.602.645-1.857 2.191-3.566 4.726-4.998 7.435.14-.045.254-.083.392-.117z" fill="#FCC21B"/>
    <path d="M85.275 47.642c1.094.39 2.702.658 3.84.702 1.275.06 2.645.048 3.9-.15 1.764-.29 1.335-1.15 1.406-2.72.06-1.086.33-2.054.307-3.144-.023-1.146-.115-2.295-.127-3.439-.016-2.685-.373-4.096-3.353-4.11-2.15-.008-4.34.243-6.49.357-.53.385-.46 1.34-.432 1.922.045 1.029-.087 2.012-.098 3.03-.04 1.832-.176 3.734-.075 5.56.03.926.18 1.664 1.122 1.992z" fill="#D7598B"/>
    <path d="M116.121 68.287c1.049-.215.996-1.25 1.406-2.174.93-2.046 1.298-4.234 1.725-6.433.16-.818.885-2.827.23-3.56-.534-.589-1.85-.426-2.587-.503-.964-.1-1.917-.196-2.88-.295-.455-.045-3.361-.687-3.677-.373-.554.531-.57 1.741-.695 2.444-.205 1.294-.284 2.59-.538 3.897-.328 1.69-.66 3.52-.555 5.239 1.483.883 3.175 1.047 4.925 1.387.814.158 1.829.532 2.646.371z" fill="#40C0E7"/>
    <path d="M160.61 85.353c-1.471.637-3.298.738-3.493 2.756-.183 1.898.953 3.83 1.425 5.623.3 1.159 1.058 2.107 2.156 2.542 1.25.499 2.39.154 3.621-.263.925-.31 1.946-.433 2.895-.638.982-.209 1.909-.64 2.883-.862.685-.145.616-.07.952-.615a4.49 4.49 0 0 0 .417-1.075c.417-1.864-1.055-4.262-1.888-5.836-.653-1.26-.777-3.552-2.456-3.645-1.245-.075-2.583.554-3.742.94a41.3 41.3 0 0 0-2.77 1.073z" fill="#D7598B"/>
    <path d="M174.528 65.28a1.83 1.83 0 0 0-.438.648c-.436 1.113.84 2.151 1.586 3.245.865 1.308 1.468 2.78 2.453 4.011 1.08 1.328 2.4.715 3.306-.26.98-1.064 2.124-1.96 3.135-3.005.908-.93 1.698-1.669 1.172-3.002-.48-1.211-1.576-2.045-2.445-2.982-1.624-1.739-2.693-4.375-5.22-2.483-1.418 1.057-2.318 2.599-3.55 3.827zM88.935 167.613c-.501-.155-4.316-2.408-4.523-1.995-.439.95-1.09 1.8-1.553 2.755-.527 1.107-.993 2.26-1.74 3.242-.9 1.185-.734 2.054-.116 2.744.874.972 2.663 1.575 3.716 2.164.823.462 1.79.836 2.536.33.84-.58 1.472-1.69 1.954-2.561.605-1.091 1.525-2.26 1.87-3.438.496-1.6-.796-2.805-2.144-3.24zM62.465 92.591c.877-1.253 1.482-2.514 2.155-3.84.244-.467.547-.736.374-1.306-.208-.73-1.232-1.696-1.803-2.19-1.419-1.184-2.862-2.133-4.419-3.06-.83-.5-2.094-1.753-3.089-1.694-.84.055-1.561 1.12-2.036 1.706-.622.787-1.395 1.502-1.956 2.313-.717 1.043-1.557 2.5-1.974 3.688-.236.655-.055 1.183.305 1.636.324.413.79.767 1.215 1.112 2.194 1.751 5.561 4.037 8.392 4.532 1.341.24 2.186-1.972 2.836-2.897z" fill="#40C0E7"/>
    <path d="M67.345 153.925c1.312-.563 2.505-1.06 3.783-1.774 1.232-.702 1.565-1.31.9-2.592-.401-.806-.67-1.687-1.12-2.47-.414-.74-.995-1.403-1.43-2.148-.316-.532-.545-1.506-1.054-1.874-.718-.51-1.546.103-2.214.444-.833.42-1.704.699-2.548 1.173-1.065.611-2.09 1.297-3.11 2.017-.835.588-2.071 1.255-2.769 1.97a1.81 1.81 0 0 0-.4.674c-.325.956-.013 2.226.273 3.077.386 1.162 1.07 2.347 1.667 3.416.943 1.673 2.818.592 4.141-.024 1.282-.625 2.545-1.32 3.88-1.89z" fill="#D7598B"/>
    <path d="M41.402 148.553c.936-.577 2.072-1.298 2.724-2.236.584-.828-.052-1.915-.362-2.734-.347-.918-.957-1.728-1.576-2.483-.576-.69-1.168-1.587-1.881-2.157-.81-.656-1.28-.067-1.95.494-.816.669-1.657 1.344-2.583 1.867-1.258.708-2.65 1.39-3.83 2.169-.406.26-.57.637-.574 1.067-.033 1.343 1.51 3.24 1.967 4.123.355.704.985 1.937 1.732 2.275.837.4 1.786.053 2.61-.24 1.329-.48 2.5-1.385 3.723-2.145z" fill="#40C0E7"/>
    <path d="M68.943 120.98c5.472-.552 8.656 4.375 13.467 5.778 1.39.41 2.807.686 4.218.703.918.014 1.834-.077 2.713-.386 1.156-.407 2.233-.923 3.332-1.377 1.063-.449 2.125-.828 3.291-1 2.587-.374 4.658.637 6.989 1.465 1.857.665 3.466 2.031 4.743 3.544.393.462.788 1.604 1.517 1.489.126-.011.213-.228.277-.555.263-1.354.094-4.7-.022-5.202-.546-2.213-2.22-3.767-3.854-5.173-2.423-2.087-5.407-3.709-8.618-3.876-.731-.049-1.441.024-2.138.146-2.083.38-4.057 1.295-6.174 1.62-.256.045-.511.089-.773.108-4.073.285-7.385-2.945-10.06-5.642-2.615-2.65-6.898-4.291-10.644-3.497-1.897.403-3.881 1.258-5.45 2.463-1.872 1.427-3.778 3.784-6.37 2.976-2.256-.696-4.363-2.791-6.027-4.39-.844-.797-2.44-3.097-3.556-3.243-1.136-.163-2.016 1.364-2.827 2.014-1.834 1.469-3.253 2.645-4.372 4.768-.21.381-.329.709-.39 1.025-.283 1.455.883 2.208 2.088 3.285 2.23 1.979 4.606 3.962 7.139 5.484 4.697 2.857 9.866 4.154 15.39 1.026 1.926-1.077 4.05-3.345 6.111-3.553zM116.372 111.852c.336-.224.505-.458.55-.693.086-.436-.28-.866-.735-1.245a6.974 6.974 0 0 0-1.113-.75c-2.291-1.222-4.417-3.178-6.431-4.845-.357-.301-.704-.6-1.052-.889a178.639 178.639 0 0 1-4.125-3.527c-1.076-.94-2.163-1.882-3.185-2.87-2.7-2.589-5.471-5.91-6.537-9.62-.692-2.339-.736-4.83-1.415-7.176-.752-2.663-2.328-4.443-4.134-6.429-1.786-1.97-4.205-3.288-6.126-5.145-.814-.785-1.654-.856-2.098-2.044-.97-2.636.066-5.368.087-8.078.054-6.403-7.735-8.486-9.602-14.09-.389-1.178-.73-2.37-1.074-3.55-.204-.689-.37-1.974-.88-2.525-.873-.947-2.481.213-3.495.457-1.746.426-3.575 1.219-5.254 1.878-1.413.56-2.689 1.055-2.967 2.485l-.033.284c-.324 3.289.49 6.44 2.482 8.972 2.436 3.083 6.887 4.296 7.72 8.564.54 2.772-.46 5.721.507 8.437 1.15 3.216 4.35 4.8 7.16 6.182 2.05 1.025 4.653 1.565 6.023 3.595 1.837 2.746 1.44 6.299 2.09 9.487.18.859.434 1.697.821 2.48 2.132 4.3 6.408 7.334 10.285 9.827 1.589 1.017 3.224 1.972 4.861 2.917 1.527.877 3.056 1.742 4.6 2.587.792.433 1.58.887 2.384 1.322 2.012 1.098 4.089 2.152 6.044 3.367 1.245.822 3.247 1.57 4.642.635zM148.92 42.086c-.257.17-.338.466-.396.767l-.056.348-.048.187c-.173.66-.564 1.163-.906 1.767-1.588 2.78-2.798 4.546-5.034 6.84-2.519 2.588-4.991 5.635-5.864 9.26l-.094.42c-.702 3.612.506 7.305-.198 10.927l-.005.023c-.801 4.008-4.252 6.934-6.918 9.7-.226.235-.44.47-.649.73-1.85 2.22-2.966 4.78-3.523 7.47-.013.067-.05.141-.063.208-.362 1.861-.444 3.788-.3 5.713.13 1.876.49 3.739 1.026 5.555a42.665 42.665 0 0 0 3.01 7.513c.676 1.323 1.462 2.783 2.558 3.806.58.552 2.984 1.62 3.606.62l.061-.139c.082-.423-.217-1.199-.343-1.535-.975-2.688-1.74-5.474-2.038-8.343-.252-2.35-.298-4.777.063-7.1.026-.193.054-.395.091-.585.323-1.66.893-3.261 1.813-4.748l.045-.06c1.304-2.072 3.165-3.654 4.99-5.22 2.676-2.301 3.74-5.229 4.338-8.305.466-2.396.656-4.88 1.118-7.255.483-2.485 1.265-4.831 2.966-6.803 1.403-1.6 3.097-2.96 4.833-4.069 1.894-1.228 3.61-2.93 4.405-5.17.343-.95.592-1.828.795-2.818l.005-.022c.325-1.672-1.429-2.672-2.338-3.728-1.229-1.441-2.743-2.569-4.067-3.925-.586-.576-1.997-2.643-2.882-2.029z" fill="#ED6C30"/>
    <path d="M228.062 70.338c-4.836.615-9.765.932-14.768.932-48.211 0-89.553-29.411-107.062-71.27l121.83 70.338z" fill="#E1E1E1"/>
  </g>
</svg>
