<svg width="311" height="245" xmlns="http://www.w3.org/2000/svg">
  <defs>
    <filter x="-2.6%" y="-2.6%" width="105.3%" height="105.3%" filterUnits="objectBoundingBox" id="a">
      <feOffset dy="2" in="SourceAlpha" result="shadowOffsetOuter1"/>
      <feGaussianBlur stdDeviation="2" in="shadowOffsetOuter1" result="shadowBlurOuter1"/>
      <feColorMatrix values="0 0 0 0 0 0 0 0 0 0 0 0 0 0 0 0 0 0 0.5 0" in="shadowBlurOuter1" result="shadowMatrixOuter1"/>
      <feMerge>
        <feMergeNode in="shadowMatrixOuter1"/>
        <feMergeNode in="SourceGraphic"/>
      </feMerge>
    </filter>
  </defs>
  <g filter="url(#a)" transform="translate(-81 -71)" fill="none" fill-rule="evenodd">
    <path d="M133.138 237.29c-15.62-19.377-25.15-43.906-25.618-70.718-.631-36.142 15.338-68.712 40.88-90.434l147.074-2.568c26.285 20.818 43.38 52.81 44.01 88.952.443 25.358-7.285 48.957-20.76 68.286l66.23-2.313 2.478 70.956L88.32 309.897l-2.477-70.957 47.294-1.652.001.002z" fill="#000"/>
    <path d="M133.138 237.29c-15.62-19.377-25.15-43.906-25.618-70.718-.631-36.142 15.338-68.712 40.88-90.434l147.074-2.568c26.285 20.818 43.38 52.81 44.01 88.952.443 25.358-7.285 48.957-20.76 68.286l66.23-2.313 2.478 70.956L88.32 309.897l-2.477-70.957 47.294-1.652.001.002z" fill="#FFF"/>
    <path d="M287.706 73.856a117.123 117.123 0 0 1-12.18 8.404c-41.323 24.83-91.908 20.913-128.476-5.949l140.656-2.455z" fill="#E1E1E1"/>
    <text transform="rotate(-4 3735.237 -1378.645)" fill="#232045" font-family="Chalkboard SE, Comic Sans MS, sans-serif" font-size="24">
      <tspan x=".615" y="24.339">Planning is important!</tspan>
    </text>
    <g>
      <path d="M253.087 161.71c-.847-24.256-1.727-43.82-2.017-48.18-.29-4.358-2.618-7.53-8.154-7.53-5.537 0-7.286 4.06-7.286 8.695v32.763s-.925 2.218-2.584-.932c-1.081-2.063-4.178-3.482-7.33-2.795-2.741.61-5.76 2.096-6.395 6.366-.557 3.738-2.44.278-4.21-1.397-1.104-1.043-4.067-2.617-6.863-2.174-3.598.577-6.862 2.485-7.486 6.211-.624 3.727-2.652.621-3.743-.932-1.092-1.552-4.367-2.794-7.486-1.708-3.12 1.087-6.55 3.261-6.707 8.385-.156 5.124-2.651 29.014 1.872 42.057C189.22 213.582 198.913 228 222.45 228c23.54 0 37.72-23.125 36.473-37.864-1.248-14.74-5.325-13.664-5.837-28.426z" fill="#FAC036"/>
      <g fill="#E48C15">
        <path d="M246.317 176.267s-.368-.145-1.026-.456c-.613-.289-1.505-.722-2.653-1.267-1.126-.544-2.464-1.188-4.058-1.788-1.594-.59-3.467-1.067-5.618-1.378-2.107-.334-4.504-.445-7.045-.478-2.553-.033-5.262.022-8.038.144-1.382.067-2.798.156-4.158.323-.334.044-.68.077-.97.144l-.234.045h-.033c.033-.012-.112.022.067-.012l-.067.023-.134.033c-.156.044-.423.089-.48.133a5.604 5.604 0 0 0-.59.256c-.2.122-.39.244-.557.378-.67.566-1.048 1.4-1.126 2.466-.078 1.056.167 2.345.624 3.423.446 1.033 1.193 2.01 2.107 2.766a9.578 9.578 0 0 0 3.222 1.678c.601.167 1.203.3 1.839.367.312.033.624.077.936.077.301.012.625.023 1.015.023 1.46 0 2.91.01 4.325.01 1.427.023 2.999.012 4.682.479 1.806.533 2.965 1.388 4.136 2.222 1.148.855 2.185 1.8 3.087 2.878.892 1.077 1.706 2.288 2.107 3.777.1.367.179.756.201 1.156l.011.144.011.2v.623c-.022.333-.055.71-.089 1.044-.056.311-.111.622-.167.922a10.957 10.957 0 0 1-1.27 3.167c-1.06 1.844-2.42 3.1-3.602 3.955-1.192.867-2.251 1.3-2.954 1.59-.724.233-1.114.355-1.114.355a.914.914 0 0 1-.814-1.611l.067-.045s.29-.21.836-.589c.524-.41 1.293-.988 2.118-1.855.814-.867 1.705-2 2.363-3.422.323-.711.59-1.49.747-2.311.033-.2.056-.412.09-.623l.033-.555-.012-.411V194v.067-.011l-.01-.056c-.012-.156-.056-.322-.101-.489-.412-1.433-1.995-3.178-3.88-4.522-.936-.656-2.04-1.345-2.875-1.533-.96-.256-2.219-.256-3.623-.245l-4.326.067c-1.527.022-3.322-.122-4.971-.6a13.507 13.507 0 0 1-4.716-2.422 11.583 11.583 0 0 1-3.344-4.356c-.714-1.7-1.104-3.444-.981-5.4.111-1.911 1.003-4.056 2.664-5.4a8.112 8.112 0 0 1 1.282-.867 8.328 8.328 0 0 1 1.46-.589c.29-.1.39-.1.591-.155l.134-.033.245-.056.312-.056c.424-.077.814-.122 1.204-.166 1.55-.178 3.01-.256 4.46-.322 2.898-.123 5.673-.123 8.327-.045 2.653.089 5.194.256 7.569.656 2.34.377 4.515.966 6.365 1.677 1.862.7 3.367 1.59 4.504 2.423a17.923 17.923 0 0 1 2.43 2.177c.468.556.702.867.702.867a1.069 1.069 0 0 1-.256 1.5c-.268.245-.658.278-.981.156z"/>
        <path d="M235.604 147.722l3.266 21.011a2.392 2.392 0 0 1-4.727.733 1.818 1.818 0 0 1-.022-.255l-1.059-21.233a1.27 1.27 0 0 1 1.204-1.334 1.295 1.295 0 0 1 1.338 1.078zM219.306 151.322l2.553 15.567a2.39 2.39 0 0 1-1.973 2.744c-1.304.211-2.542-.666-2.754-1.966l-.033-.311-.513-15.767a1.375 1.375 0 0 1 1.327-1.411 1.357 1.357 0 0 1 1.393 1.144zM200.467 154.522s.123 1.734.312 4.345c.1 1.3.212 2.81.334 4.433.134 1.611.28 3.333.502 5.011.1.845.234 1.667.38 2.467.055.41.166.778.244 1.155.078.39.179.745.29 1.078.19.7.457 1.278.714 1.767.156.2.267.455.412.61.156.123.268.3.401.4.145.068.268.156.38.234.144.034.278.078.4.122.28.067.558.067.792.1.546-.044.847-.044.847-.044h.413a2.37 2.37 0 0 1 2.397 2.367 2.37 2.37 0 0 1-2.375 2.389h-.089s-.569-.023-1.55-.045c-.512-.089-1.17-.178-1.895-.433a20.55 20.55 0 0 1-1.159-.534 18.075 18.075 0 0 1-1.126-.866c-.345-.334-.635-.734-.947-1.122-.29-.4-.469-.823-.703-1.256a12.903 12.903 0 0 1-.847-2.656c-.111-.455-.19-.9-.245-1.344-.056-.444-.145-.911-.179-1.356-.078-.9-.167-1.81-.189-2.7-.09-1.788-.09-3.544-.1-5.188.01-1.634.022-3.167.022-4.478.022-2.611.033-4.356.033-4.356 0-.7.58-1.255 1.271-1.255.67 0 1.204.51 1.26 1.155z"/>
        <path d="M201.247 164.733s.011.178.023.523c.022.333.033.844.033 1.522-.011 1.333-.022 3.233-.468 5.578-.234 1.166-.546 2.455-1.16 3.822-.624 1.333-1.627 2.81-3.221 3.822-1.594 1.022-3.5 1.322-5.14 1.3-1.95-.067-3.7-.778-5.16-1.844-1.45-1.078-2.542-2.467-3.323-3.878a18.3 18.3 0 0 1-1.716-4.311c-.736-2.856-.948-5.511-1.026-7.767-.044-2.256.078-4.122.156-5.422.123-1.29.19-2.034.19-2.034a1.205 1.205 0 0 1 1.304-1.077c.613.055 1.07.566 1.081 1.166v.045s.011.722.023 1.978c.022 1.255.067 3.044.29 5.155.2 2.1.557 4.556 1.337 6.967.401 1.2.88 2.389 1.539 3.455.635 1.067 1.449 1.99 2.374 2.634.914.633 2.029.989 2.965.977 1.226 0 2.24-.21 2.965-.688.736-.467 1.327-1.245 1.75-2.178.458-.911.759-1.934.982-2.9.423-1.956.59-3.711.68-4.922l.122-1.967a1.705 1.705 0 0 1 1.806-1.589c.87.067 1.55.778 1.594 1.633z"/>
      </g>
    </g>
  </g>
</svg>
