<svg width="271" height="265" xmlns="http://www.w3.org/2000/svg">
  <defs>
    <filter x="-4%" y="-3.9%" width="107.9%" height="107.9%" filterUnits="objectBoundingBox" id="a">
      <feOffset dy="2" in="SourceAlpha" result="shadowOffsetOuter1"/>
      <feGaussianBlur stdDeviation="2" in="shadowOffsetOuter1" result="shadowBlurOuter1"/>
      <feColorMatrix values="0 0 0 0 0 0 0 0 0 0 0 0 0 0 0 0 0 0 0.5 0" in="shadowBlurOuter1" result="shadowMatrixOuter1"/>
      <feMerge>
        <feMergeNode in="shadowMatrixOuter1"/>
        <feMergeNode in="SourceGraphic"/>
      </feMerge>
    </filter>
  </defs>
  <g filter="url(#a)" transform="translate(-4 -13)" fill="none" fill-rule="evenodd">
    <path d="M42.636 196.577c-15.346-22.883-22.644-51.287-18.507-80.721 8.22-58.487 58.715-100.623 116.261-99.86l110.855 86.61c3.786 14.432 4.833 29.838 2.626 45.538-2.722 19.367-10.08 36.94-20.793 51.758l37.737.658-1.239 70.989-260.96-4.553 1.24-70.99 32.78.571z" fill="#000"/>
    <path d="M42.636 196.577c-15.346-22.883-22.644-51.287-18.507-80.721 8.22-58.487 58.715-100.623 116.261-99.86l110.855 86.61c3.786 14.432 4.833 29.838 2.626 45.538-2.722 19.367-10.08 36.94-20.793 51.758l37.737.658-1.239 70.989-260.96-4.553 1.24-70.99 32.78.571z" fill="#FFF"/>
    <path d="M251.375 101.683a117.25 117.25 0 0 1-14.754-1.133c-47.742-6.71-84.588-41.588-96.101-85.476l110.855 86.609z" fill="#E1E1E1"/>
    <text transform="rotate(2 -5789.934 1362.78)" fill="#232045" font-family="Chalkboard SE, Comic Sans MS, sans-serif" font-size="36">
      <tspan x=".852" y="35.469">This stinks!</tspan>
    </text>
    <g>
      <path d="M199.923 138.386c-1.394-2.905-3.682-5.906-7.418-7.829a23.956 23.956 0 0 0-6.397-2.81c1.629-5.98-.68-10.744-3.927-14.301-4.821-5.213-9.866-5.971-9.866-5.971h-.01c1.66-3.237 2.288-6.986 1.447-10.67-1.065-4.551-3.502-7.414-6.716-9.326-3.289-1.954-7.354-2.915-11.526-3.663-2.001-.363-10.441-1.549-13.943-6.409-2.82-3.941-2.905-11.034-3.672-13.16-.82-2.189-3.597-1.228-6.63.813-3.545 2.37-10.888 9.987-13.72 17.613-2.16 5.843-2.213 10.905-1.362 14.836-3.501.588-6.13 1.773-6.63 2.008-.17.054-.34.107-.522.182-3.203 1.324-10.036 7.498-10.653 16.93a26.1 26.1 0 0 0 1.277 9.89c-4.194 1.175-6.62 2.714-6.663 2.746-2.128.8-5.513 3.15-6.545 4.411-2.097 2.542-3.555 5.565-4.417 8.737-1.884 6.9-1.192 14.751 2.15 21.117 1.852 3.536 4.385 7.295 7.173 10.169 9.1 9.388 24.81 12.935 37.208 14.985 15.103 2.5 30.918 1.624 45.052-4.24 21.201-8.78 26.842-22.9 27.672-26.885 1.863-8.876-.393-17.175-1.362-19.173z" fill="#865D53"/>
      <g transform="translate(145.722 109)">
        <ellipse fill="#FFF" transform="rotate(-83.65 19.08 19.382)" cx="19.08" cy="19.382" rx="17.51" ry="16.48"/>
        <path d="M26.189 19.352c-.245 3.479-3.339 6.135-6.9 5.924-3.574-.2-6.274-3.204-6.03-6.682.234-3.49 3.318-6.135 6.89-5.924 3.573.2 6.284 3.204 6.04 6.682" fill="#2F2F2F"/>
      </g>
      <g transform="translate(100 109)">
        <ellipse fill="#FFF" transform="rotate(-4.313 18.568 19.395)" cx="18.568" cy="19.395" rx="16.481" ry="17.509"/>
        <path d="M25.54 18.056c.404 3.468-2.137 6.64-5.678 7.083-3.551.453-6.762-2.003-7.166-5.46-.426-3.468 2.116-6.64 5.667-7.094 3.54-.442 6.763 2.014 7.177 5.47" fill="#2F2F2F"/>
      </g>
      <path d="M166.642 152.853c-2.342-1.61-5.297-.547-7.904 0-7.282 1.524-13.667 1.588-16.738 1.588-3.071 0-9.456-.064-16.738-1.588-2.607-.547-5.562-1.61-7.905 0-2.976 2.04-.781 9.38 3.905 14.337 2.828 2.994 9.572 8.81 20.748 8.81 11.166 0 17.91-5.816 20.749-8.81 4.664-4.958 6.86-12.287 3.883-14.337z" fill="#ED6D31"/>
    </g>
  </g>
</svg>
