<svg width="271" height="263" xmlns="http://www.w3.org/2000/svg">
  <defs>
    <filter x="-2.8%" y="-2.8%" width="105.5%" height="105.6%" filterUnits="objectBoundingBox" id="a">
      <feOffset dy="2" in="SourceAlpha" result="shadowOffsetOuter1"/>
      <feGaussianBlur stdDeviation="2" in="shadowOffsetOuter1" result="shadowBlurOuter1"/>
      <feColorMatrix values="0 0 0 0 0 0 0 0 0 0 0 0 0 0 0 0 0 0 0.5 0" in="shadowBlurOuter1" result="shadowMatrixOuter1"/>
      <feMerge>
        <feMergeNode in="shadowMatrixOuter1"/>
        <feMergeNode in="SourceGraphic"/>
      </feMerge>
    </filter>
    <linearGradient x1="49.992%" y1="99.992%" x2="49.992%" y2=".483%" id="b">
      <stop stop-color="#43A047" offset="0%"/>
      <stop stop-color="#66BB6A" offset="99.92%"/>
    </linearGradient>
  </defs>
  <g filter="url(#a)" transform="translate(-86 -51)" fill="none" fill-rule="evenodd">
    <path d="M134.878 235.772a117.372 117.372 0 0 1-7.112-9.16C97.922 183.99 100.73 128.273 130.95 89.16l135.887-36.41c19.88 8.137 37.736 21.887 50.972 40.79 30.27 43.231 26.951 99.932-4.495 139.117l38.339-.67 1.238 70.99-260.96 4.554-1.24-70.989 44.187-.77v-.001z" fill="#000"/>
    <path d="M134.878 235.772a117.372 117.372 0 0 1-7.112-9.16C97.922 183.99 100.73 128.273 130.95 89.16l135.887-36.41c19.88 8.137 37.736 21.887 50.972 40.79 30.27 43.231 26.951 99.932-4.495 139.117l38.339-.67 1.238 70.99-260.96 4.554-1.24-70.989 44.187-.77v-.001z" fill="#FFF"/>
    <path d="M266.828 52.8a117.123 117.123 0 0 1-9.785 11.1c-34.09 34.09-84.12 42.527-126.099 25.309l135.884-36.41v.001z" fill="#E1E1E1"/>
    <text transform="translate(133.962 246.255)" fill="#232045" font-family="Chalkboard SE, Comic Sans MS, sans-serif" font-size="24">
      <tspan x="0" y="24">i can save money</tspan>
    </text>
    <g>
      <g transform="translate(157 119)">
        <path d="M121.345 80.013H5.435c-2.498 0-4.529-2.025-4.529-4.517V5.442A4.542 4.542 0 0 1 5.456.903h115.868c2.51 0 4.551 2.025 4.551 4.539v70.054a4.52 4.52 0 0 1-4.53 4.517z" fill="#2E7D32"/>
        <path d="M121.47 67.375H5.31a4.39 4.39 0 0 1-4.394-4.382V5.442A4.542 4.542 0 0 1 5.466.903h115.869c2.51 0 4.55 2.025 4.55 4.539v57.54a4.41 4.41 0 0 1-4.415 4.393z" fill="url(#b)"/>
        <g fill="#FFF">
          <path d="M38.06 41.892c0-1.278-.447-2.358-1.343-3.23-.896-.872-2.416-1.672-4.55-2.378-2.968-.904-5.134-2.077-6.488-3.53-1.364-1.455-2.041-3.303-2.041-5.536 0-2.285.666-4.154 2-5.608 1.332-1.464 3.165-2.326 5.487-2.606V15.4c0-.53.437-.965.969-.965h1.176c.531 0 .969.436.969.965v3.625c2.343.322 4.165 1.298 5.467 2.938 1.166 1.475 1.812 3.427 1.936 5.868a.848.848 0 0 1-.853.872h-2.156c-.458 0-.812-.363-.854-.82-.114-1.59-.573-2.877-1.374-3.863-.938-1.153-2.198-1.735-3.78-1.735-1.656 0-2.926.426-3.801 1.288-.875.852-1.323 2.056-1.323 3.583 0 1.422.469 2.554 1.396 3.396.926.84 2.457 1.61 4.582 2.295 2.124.685 3.78 1.443 4.977 2.274 1.187.83 2.072 1.786 2.635 2.887.562 1.1.843 2.388.843 3.863 0 2.347-.708 4.237-2.124 5.67-1.416 1.433-3.395 2.284-5.946 2.544v3.012c0 .53-.438.965-.969.965H31.74a.972.972 0 0 1-.969-.965v-3.012c-2.593-.239-4.623-1.153-6.092-2.762-1.312-1.433-2.04-3.323-2.176-5.66-.031-.478.375-.872.854-.872h2.176c.438 0 .812.322.844.758.114 1.568.614 2.804 1.5 3.707 1.02 1.039 2.457 1.568 4.331 1.568 1.822 0 3.26-.436 4.311-1.319 1.02-.903 1.541-2.108 1.541-3.613z"/>
          <path d="M33.864 50.947l-3.093-.883.354-30.977v-1.039l3.114.966-.375 31.019z"/>
        </g>
        <ellipse fill="#2E7D32" opacity=".5" cx="85.024" cy="34.145" rx="19.264" ry="19.212"/>
        <path d="M107.6 8.37c.895 5.608 5.352 10.052 10.975 10.945v29.638c-5.623.893-10.08 5.338-10.975 10.945H19.056c-1.145-5.306-5.477-9.398-10.85-10.25V20.012c5.862-.924 10.444-5.701 11.069-11.641H107.6zm1.916-2.077H17.244c.01.229.021.457.021.696 0 6.137-4.988 11.111-11.142 11.111v33.47c5.915 0 10.757 4.6 11.121 10.416h92.272c0-6.138 4.988-11.112 11.142-11.112v-33.47c-6.154 0-11.142-4.974-11.142-11.11z" fill="#2E7D32" fill-rule="nonzero"/>
        <path fill="#FFECB3" d="M51.931.914h22.92v79.11h-22.92z"/>
        <path fill="#FFB74D" opacity=".5" d="M51.931 67.375h22.92v12.648h-22.92z"/>
        <path d="M121.324 1.952a3.506 3.506 0 0 1 3.51 3.5v70.055a3.484 3.484 0 0 1-3.489 3.478H5.435a3.484 3.484 0 0 1-3.488-3.478V5.442c0-1.932 1.573-3.5 3.51-3.5h115.867v.01zm0-1.038H5.457A4.542 4.542 0 0 0 .906 5.452v70.055a4.527 4.527 0 0 0 4.53 4.517h115.899c2.5 0 4.53-2.025 4.53-4.517V5.442c.01-2.503-2.03-4.528-4.54-4.528z" opacity=".2" fill="#424242" fill-rule="nonzero"/>
      </g>
    </g>
  </g>
</svg>
