<svg width="273" height="291" xmlns="http://www.w3.org/2000/svg">
  <defs>
    <filter x="-3%" y="-2.9%" width="105.9%" height="105.8%" filterUnits="objectBoundingBox" id="a">
      <feOffset dy="2" in="SourceAlpha" result="shadowOffsetOuter1"/>
      <feGaussianBlur stdDeviation="2" in="shadowOffsetOuter1" result="shadowBlurOuter1"/>
      <feColorMatrix values="0 0 0 0 0 0 0 0 0 0 0 0 0 0 0 0 0 0 0.5 0" in="shadowBlurOuter1" result="shadowMatrixOuter1"/>
      <feMerge>
        <feMergeNode in="shadowMatrixOuter1"/>
        <feMergeNode in="SourceGraphic"/>
      </feMerge>
    </filter>
  </defs>
  <g filter="url(#a)" transform="translate(-86 -38)" fill="none" fill-rule="evenodd">
    <path d="M142.153 248.644a115.206 115.206 0 0 1-27.102-28.929l9.813-140.334c9.848-11.209 22.036-20.692 36.285-27.642 57.581-28.084 127.027-4.172 155.111 53.41 22.905 46.961 11.223 101.816-25.102 135.686l59.708-3.13 3.716 70.903L93.94 322.27l-3.716-70.903 51.93-2.722z" fill="#000"/>
    <path d="M142.153 248.644a115.206 115.206 0 0 1-27.102-28.929l9.813-140.334c9.848-11.209 22.036-20.692 36.285-27.642 57.581-28.084 127.027-4.172 155.111 53.41 22.905 46.961 11.223 101.816-25.102 135.686l59.708-3.13 3.716 70.903L93.94 322.27l-3.716-70.903 51.93-2.722z" fill="#FFF"/>
    <path d="M124.027 79.79a117.123 117.123 0 0 1 7.31 12.866c21.135 43.331 12.824 93.382-17.123 127.468l9.813-140.334z" fill="#E1E1E1"/>
    <text transform="rotate(-4 3751.307 -1450.494)" fill="#232045" font-family="Chalkboard SE, Comic Sans MS, sans-serif" font-size="36">
      <tspan x=".861" y="35.857">Stressed out!</tspan>
    </text>
    <g>
      <path d="M212 107.56c-62.41 0-63.88 69.96-63.88 83.8 0 13.86 28.59 25.08 63.88 25.08 35.28 0 63.88-11.22 63.88-25.08 0-13.84-1.48-83.8-63.88-83.8z" fill="#FCC21B"/>
      <g fill="#2F2F2F">
        <path d="M190.21 160.3c-4.49.04-8.17-4.27-8.22-9.62-.05-5.37 3.55-9.75 8.04-9.79 4.48-.04 8.17 4.27 8.22 9.64.05 5.35-3.55 9.72-8.04 9.77zM234.32 160.3c4.48-.01 8.11-4.36 8.1-9.71-.01-5.37-3.66-9.7-8.14-9.69-4.49.01-8.13 4.36-8.12 9.73.02 5.35 3.67 9.68 8.16 9.67z"/>
      </g>
      <path d="M237.69 186.75c-11.57-2-20.132-3-25.685-3-5.865 0-14.43 1-25.695 3-1.66 0-3-1.34-3-3s1.34-3 3-3c11.293-2.054 19.858-3.08 25.695-3.08 5.583 0 14.148 1.026 25.695 3.08 1.66 0 3 1.34 3 3s-1.35 3-3.01 3z" fill="#2F2F2F"/>
      <path d="M265.56 164.97c-1.23 5.24-4.71 8.47-7.61 9.33-3.25.96-6.18.44-8.25-1.46-2.62-2.4-3.49-6.59-2.46-11.81 1.88-9.38.85-25.96.85-26.12-.04-.64.29-1.22.87-1.48a1.51 1.51 0 0 1 1.7.27c15.89 14.83 16.16 25.96 14.9 31.27z" fill="#FFF"/>
    </g>
  </g>
</svg>
