<svg width="286" height="269" xmlns="http://www.w3.org/2000/svg">
  <defs>
    <filter x="-3.3%" y="-3.1%" width="106.5%" height="106.3%" filterUnits="objectBoundingBox" id="a">
      <feOffset dy="2" in="SourceAlpha" result="shadowOffsetOuter1"/>
      <feGaussianBlur stdDeviation="2" in="shadowOffsetOuter1" result="shadowBlurOuter1"/>
      <feColorMatrix values="0 0 0 0 0 0 0 0 0 0 0 0 0 0 0 0 0 0 0.5 0" in="shadowBlurOuter1" result="shadowMatrixOuter1"/>
      <feMerge>
        <feMergeNode in="shadowMatrixOuter1"/>
        <feMergeNode in="SourceGraphic"/>
      </feMerge>
    </filter>
  </defs>
  <g filter="url(#a)" transform="translate(-66 -52)" fill="none" fill-rule="evenodd">
    <path d="M115.042 240.044c-16.055-12.524-29.016-29.438-36.844-49.833-18.647-48.576-2.444-101.957 36.341-132.597L255.2 55.16c17.32 12.705 31.32 30.366 39.59 51.91 15.122 39.396 7.323 81.952-16.854 112.975l61.345-7.532 8.653 70.47L88.878 314.79l-8.653-70.47 34.818-4.275z" fill="#000"/>
    <path d="M115.042 240.044c-16.055-12.524-29.016-29.438-36.844-49.833-18.647-48.576-2.444-101.957 36.341-132.597L255.2 55.16c17.32 12.705 31.32 30.366 39.59 51.91 15.122 39.396 7.323 81.952-16.854 112.975l61.345-7.532 8.653 70.47L88.878 314.79l-8.653-70.47 34.818-4.275z" fill="#FFF"/>
    <path d="M255.776 54.58a117.123 117.123 0 0 1-12.18 8.404c-41.324 24.83-91.909 20.912-128.476-5.95l140.656-2.454z" fill="#E1E1E1"/>
    <text transform="rotate(-9 1701.086 -609.481)" fill="#232045" font-family="Chalkboard SE, Comic Sans MS, sans-serif" font-size="24">
      <tspan x=".593" y="24.302">Teach my friends.</tspan>
    </text>
    <g>
      <path d="M192.944 131.753c4.981-4.004 15.104-8.052 18.13-9.086 5.293-1.812 10.383-4.103 13.912 1.754 2.37 3.947 2.584 8.365-3.35 11.687-2.089 1.17-4.713 2.436-6.774 3.723l-.921 2.64c1.926-1.143 6.65-3.04 7.985-3.813 5.637-3.251 11.675-3 14.857 2.395 2.788 4.727.655 10.195-4.827 12.174-1.875.677-6.748 3.581-11.825 5.9l.045 1.208-.05.39a454.81 454.81 0 0 1 8.737-3.317c6.063-2.226 10.655-.416 12.37 3.853 2.082 5.189-1.912 9.165-5.233 10.912-2.488 1.306-11.824 4.954-18.234 7.077l-.269 2.08c.446-.178 12.553-4.643 13.016-4.807 5.612-1.904 8.768-.92 10.279 3.024 2.12 5.531-3.084 9.446-6.022 11.28-4.764 2.978-11.678 5.63-16.58 7.874-10.609 4.85-32.369 14.652-46.437 10.02-4.799-1.58-10.094-4.253-13.603-4.176-7.35.165-11.37-7.797-15.481-18.274-1.987-5.066-9.675-18.391-5.046-24.376 6.496-8.396 19.417-18.139 22.62-23.952 5.25-9.54 5.574-21.573 5.168-28.364-.776-12.936-3.007-21.57 3.98-24.536 12.242-5.197 16.562 5.876 19.113 11.246 4.995 10.514.194 35.93 4.44 35.464z" fill="#FAC036"/>
      <path d="M192.861 160.838c2.46 5.463 7.717 6.023 7.954 6.042-2.463.98-6.696 5.7-4.465 10.956 1.84 4.335 5.631 6.713 8.485 6.86-1.415.991-3.452 4.355-1.49 8.976 2.875 6.775 8.952 7.117 12.953 5.973 4-1.144 14.299-6.265 17.56-8.28 1.748-1.078-9.435 3.517-18.035 5.907-2.467.689-6.19-.327-7.9-3.1 0 0-2.323-3.63.292-7.402 0 0 .958-1.939 7.987-4.857l2.129-.87c.682-.236 9.266-3.532 12.17-4.526 1.28-.435 2.423-.713 3.453-.846a1.656 1.656 0 0 1-.711-.959c-.334-1.118.346-1.461.53-1.54l-1.714.62-6.11 2.191c-6.098 2.165-14.717 5.15-15.848 5.174 0 0-6.461 1.004-9-4.98 0 0-2.465-4.96 5.22-8.506 0 0 17.952-8.869 26.177-11.143 0 0-1.993-1.599-.546-3.31 0 0-13 5.898-21.135 9.612-8.135 3.714-11.75.088-12.973-2.206-.18-.348-.496-.887-.781-1.559-2.012-4.74 1.883-7.133 7.51-10.434 12.135-7.139 17.353-9.973 17.353-9.973a16.973 16.973 0 0 1 1.983-.983c-.445-.05-1.093-.22-1.423-.82-.209-.389-.268-1.091-.268-1.091s-5.35 2.803-13.417 7.574c-8.058 4.768-15.11 7.142-17.849 2.406-2.006-3.472-2.378-6.063-1.564-8.549 1.002-3.065 3.668-5.51 3.668-5.51s-.39.078-.706-.103c-.32-.19-.513-.62-.513-.62-6.593 3.842-9.482 10.294-6.671 15.815 1.929 3.776 4.061 5.934 7.183 6.098.006-.014-1.944 2.509.512 7.963z" fill="#E48C15"/>
      <path d="M190.462 147.277l-2.68 2.18s11.604 14.749-.236 33.332c0 0-1.535 2.347-.038 2.982 0 0 1.259.944 3.337-2.709-.004-.009 11.79-17.574-.383-35.785z" fill="#E48C15"/>
    </g>
  </g>
</svg>
