<svg width="277" height="285" xmlns="http://www.w3.org/2000/svg">
  <defs>
    <filter x="-2.8%" y="-2.8%" width="105.5%" height="105.5%" filterUnits="objectBoundingBox" id="a">
      <feOffset dy="2" in="SourceAlpha" result="shadowOffsetOuter1"/>
      <feGaussianBlur stdDeviation="2" in="shadowOffsetOuter1" result="shadowBlurOuter1"/>
      <feColorMatrix values="0 0 0 0 0 0 0 0 0 0 0 0 0 0 0 0 0 0 0.5 0" in="shadowBlurOuter1" result="shadowMatrixOuter1"/>
      <feMerge>
        <feMergeNode in="shadowMatrixOuter1"/>
        <feMergeNode in="SourceGraphic"/>
      </feMerge>
    </filter>
  </defs>
  <g filter="url(#a)" transform="translate(-92 -48)" fill="none" fill-rule="evenodd">
    <path d="M139.983 249.74a117.372 117.372 0 0 1-8.317-8.08c-35.486-38.054-40.461-93.619-15.977-136.557l129.497-54.968c20.82 5.292 40.415 16.423 56.153 33.3 35.993 38.597 40.597 95.21 14.91 138.389l37.872-6 11.107 70.126-257.787 40.83-11.107-70.126 43.649-6.912v-.001z" fill="#000"/>
    <path d="M139.983 249.74a117.372 117.372 0 0 1-8.317-8.08c-35.486-38.054-40.461-93.619-15.977-136.557l129.497-54.968c20.82 5.292 40.415 16.423 56.153 33.3 35.993 38.597 40.597 95.21 14.91 138.389l37.872-6 11.107 70.126-257.787 40.83-11.107-70.126 43.649-6.912v-.001z" fill="#FFF"/>
    <path d="M245.183 50.185a117.123 117.123 0 0 1-8.143 12.354c-29.015 38.503-77.383 53.821-121.35 42.612l129.493-54.966z" fill="#E1E1E1"/>
    <g fill="#232045" font-family="Chalkboard SE, Comic Sans MS, sans-serif" font-size="24">
      <text transform="rotate(-8 1888.38 -972.347)">
        <tspan x=".695" y="24.219">Writing things</tspan>
      </text>
      <text transform="rotate(-8 2054.988 -1055.85)">
        <tspan x=".311" y="24.219">down helps!</tspan>
      </text>
    </g>
    <g>
      <path fill="#EEE" d="M212.957 118.3l6.47-14.087 12.143 5.238-6.47 14.087z"/>
      <path fill="#C5C5C5" d="M225.092 123.534l6.47-14.088 17.178 7.41-6.47 14.086z"/>
      <path fill="#E0E0E0" d="M242.277 130.945l6.47-14.088 12.144 5.238-6.47 14.088z"/>
      <path d="M236.291 84.612c-3.678-1.551-8.037.123-9.733 3.736l-7.255 15.465 12.083 5.096 10.337-22.031-5.432-2.266z" fill="#E95F5D"/>
      <path d="M264.809 97.242l-5.434-2.29-10.364 22.075 12.11 5.104 7.276-15.496c1.71-3.642.098-7.84-3.588-9.393z" fill="#D64545"/>
      <path fill="#DF4C49" d="M231.572 109.441l10.246-22.306 17.176 7.409-10.244 22.307z"/>
      <path d="M219.695 210.871l-11.628-5.177 6.815 3.035z"/>
      <path d="M190.817 198.178l33.914-74.641-12.11-5.282-33.909 74.656.907 11.224c.969.422 2.757.513 9.037-5.145 1.084-.968 2.067-.828 2.14-.821l.021.009z" fill="#FFD05F"/>
      <path fill="#F59252" d="M185.026 226.397l-.181-.08zM187.52 227.507l-2.585-1.15zM184.867 226.318c.026.012.048.068.08.098l.028-.096s-.089-.009-.108-.002zM184.95 226.308l-.028.096z"/>
      <path d="M190.85 198.378l-5.974 27.977-.024.077c.104.132.22.344.212.69-.007 3.263.5 3.755.898 3.911.381.162 1.109.209 3.64-1.98.263-.239.507-.298.678-.313l.045-.068 17.744-22.973-17.218-7.32zM190.077 228.7l.053-.085z" fill="#F59252"/>
      <path d="M192.236 231.457a.82.82 0 0 1-.43-.064c-.298-.133-.736-.493-.93-2.746-.036-.321-.184-.476-.26-.536-.02-.009-.067.009-.103.005-.172.013-.414.07-.674.312-2.502 2.212-3.223 2.171-3.612 1.986-.383-.17-.911-.673-.94-4.012a1.081 1.081 0 0 0-.22-.709c-.027-.025-.045-.071-.066-.08-.094-.017-.308-.023-.57.166-1.79 1.357-2.346 1.288-2.665 1.146a.819.819 0 0 1-.336-.277l-.006-.015.774 9.136c.112 1.35 1.665 2.04 2.743 1.22l7.295-5.532c.015-.006.015-.006 0 0z" fill="#333"/>
      <path d="M190.174 228.673c-.026-.011-.066-.06-.066-.06l-.054.084c.038-.014.094-.035.12-.024z" fill="#F59252"/>
      <path fill="#E5823B" d="M192.28 231.538l.018-.006 2.453-1.928-.024-.012zM192.28 231.538l2.464-1.952-2.464 1.952z"/>
      <path d="M207.739 205.82l-17.257 22.983.147.065s-.037-.004-.088-.001c.075.058.22.21.255.527.184 2.204.601 2.565.916 2.704a.81.81 0 0 0 .425.063l2.171-1.65 25.508-19.324-12.077-5.367zM190.194 228.697l-.181-.08s.04.049.066.06c.07.016.115.02.115.02z" fill="#E5823B"/>
      <path d="M190.073 197.883s-1.038-.214-2.157.81c-6.201 5.67-8 5.555-8.945 5.13l1.77 20.642.23 2.728c.11.15.227.227.332.275.294.132.848.216 2.625-1.13.259-.187.47-.18.563-.164-.032-.04-.06-.065-.06-.065l.148.066 5.494-28.292zM185.026 226.397l-.181-.08s.033.03.073.078a.513.513 0 0 1 .108.002z" fill="#F9A371"/>
      <path d="M225.126 123.095l-34.53 74.844 17.258 7.405 34.544-74.85-17.272-7.4zm-34.53 74.844s1.03.743 1.032 2.503c-.021 9.827 1.537 11.3 2.704 11.801 1.168.501 3.345.632 10.902-5.962 1.357-1.177 2.62-.937 2.62-.937l-8.618-3.698-8.64-3.707z" fill="#FFBF24" fill-rule="nonzero"/>
      <path d="M241.986 130.548l-33.861 74.672 12.104 5.29 33.86-74.672-12.103-5.29zm-33.861 74.672s.852.623.836 2.133c-.084 8.361 1.202 9.613 2.15 10.027l9.118-6.87-5.01-2.19-7.094-3.1z" fill="#EBA81B" fill-rule="nonzero"/>
    </g>
  </g>
</svg>
