<svg xmlns="http://www.w3.org/2000/svg" xmlns:xlink="http://www.w3.org/1999/xlink" width="90" height="90" viewBox="0 0 90 90">
    <defs>
        <circle id="a" cx="45" cy="45" r="45"/>
        <filter id="c" width="123.8%" height="178.3%" x="-11.5%" y="-37.5%" filterUnits="objectBoundingBox">
            <feOffset dx="2" dy="4" in="SourceAlpha" result="shadowOffsetOuter1"/>
            <feColorMatrix in="shadowOffsetOuter1" result="shadowMatrixOuter1" values="0 0 0 0 0 0 0 0 0 0 0 0 0 0 0 0 0 0 0.25 0"/>
            <feMerge>
                <feMergeNode in="shadowMatrixOuter1"/>
                <feMergeNode in="SourceGraphic"/>
            </feMerge>
        </filter>
    </defs>
    <g fill="none" fill-rule="evenodd">
        <g>
            <mask id="b" fill="#fff">
                <use xlink:href="#a"/>
            </mask>
            <use fill="#EA4DC3" fill-rule="nonzero" xlink:href="#a"/>
            <path fill="#000" fill-rule="nonzero" d="M79.403 37.105l37.314 37.314-60.12 17.936-39.67-39.67 2.618-8.966 3.83.049 4.903-1.312 13.47-2.516 9.17 1.8 15.266 1.683 8.942-4.454z" mask="url(#b)" opacity=".161"/>
        </g>
        <g filter="url(#c)" transform="translate(10.263 34.737)">
            <path fill="#000" d="M31.897 2.584C22.72.215 13.764-.431 2.622.86c-3.496.43-3.059 5.598.218 6.244.874 2.369 1.31 6.675 2.622 9.259 2.84 6.459 16.167 5.598 21.191 2.368 3.277-1.938 4.37-6.46 5.462-9.904.656-1.938 4.588-1.938 5.243 0 1.311 3.445 2.185 7.966 5.462 9.904 5.025 3.23 18.352 4.091 21.41-2.368 1.093-2.584 1.53-6.89 2.404-9.259 3.277-.646 3.714-5.813.218-6.244C55.71-.43 46.752.215 37.577 2.584c-1.31.215-4.37.215-5.68 0z"/>
            <path fill="#80CDFC" fill-rule="nonzero" d="M10.137 1.965C4.54 2.11 4.12 3.985 4.122 4.88c.004.894 1.177 11.358 4.706 13.19 3.529 1.833 12.485 3.014 17.31-1.085 4.825-4.1 4.533-8.28 4.231-11.737-.3-3.457-14.635-3.429-20.232-3.283z"/>
            <path fill="#C9F2F8" fill-rule="nonzero" d="M21.14 2.162c-4.042-.306-8.439-.264-11.003-.197C4.54 2.11 4.12 3.985 4.122 4.88c.004.894 1.177 11.358 4.706 13.19"/>
            <path fill="#80CDFC" fill-rule="nonzero" d="M59.483 1.985c5.597.146 6.018 2.021 6.015 2.916-.003.894-1.177 11.358-4.705 13.19-3.53 1.833-12.486 3.014-17.31-1.085-4.826-4.1-4.533-8.28-4.232-11.737.301-3.458 14.635-3.43 20.232-3.284z"/>
            <path fill="#C9F2F8" fill-rule="nonzero" d="M43.482 17.006c-4.825-4.1-4.532-8.28-4.231-11.737C39.485 2.58 48.198 2 54.696 1.943c.995-.009 1.938-.005 2.791.005"/>
        </g>
    </g>
</svg>
