<svg xmlns="http://www.w3.org/2000/svg" xmlns:xlink="http://www.w3.org/1999/xlink" width="90" height="90" viewBox="0 0 90 90">
    <defs>
        <circle id="a" cx="45" cy="45" r="45"/>
        <filter id="c" width="126.7%" height="130.1%" x="-13.3%" y="-15.6%" filterUnits="objectBoundingBox">
            <feOffset dx="2" dy="4" in="SourceAlpha" result="shadowOffsetOuter1"/>
            <feColorMatrix in="shadowOffsetOuter1" result="shadowMatrixOuter1" values="0 0 0 0 0 0 0 0 0 0 0 0 0 0 0 0 0 0 0.25 0"/>
            <feMerge>
                <feMergeNode in="shadowMatrixOuter1"/>
                <feMergeNode in="SourceGraphic"/>
            </feMerge>
        </filter>
    </defs>
    <g fill="none" fill-rule="evenodd">
        <mask id="b" fill="#fff">
            <use xlink:href="#a"/>
        </mask>
        <use fill="#232045" fill-rule="nonzero" xlink:href="#a"/>
        <g fill-rule="nonzero" mask="url(#b)">
            <path fill="#232045" d="M68.771 32.84l36.166 35.812L50.793 98.04 9.955 57.217l13.469-8.15 6.394-2.696 6.409-5.657-9.732-6.913 5.643-8.082 27.443 4.906z" opacity=".191"/>
            <g filter="url(#c)" transform="rotate(19 1.137 86.365)">
                <path stroke="#FAF700" stroke-width="1.238" d="M16.952 4.519c2.645.714 5.146-.984 4.888-2.77-.014-.095-.185-.377-.29-.402-.107-.026-.524-.442-1.597 1.375-1.073 1.816-.453 6.683 4.393 2.886.748-.586 1.426-1.22 1.895-1.893.376-.538.586-1.12.593-1.671.005-.377.041-1.139-.558-1.016-2.304.47-3.098 4.051-1.695 4.813 2.468 1.34 5.914-3.033 6.289-3.966.184-.46.566-1.19-.064-1.356-2.053-.545-2.153 4.139-.018 4.54 3.044.574 5.643-3.029 5.714-4.414.013-.24.016-.626-.358-.644-2.25-.102-3.594 5.254.38 5.51.398.025.842-.025 1.237-.14.639-.184 1.195-.491 1.793-.737"/>
                <path stroke="#FFF" stroke-width=".895" d="M33.197 20.43l7.966-16.203M22.595 22.643L14.833 4.227"/>
                <path stroke="#FFA9EA" stroke-width="4.473" d="M31.52 40.17c7.558-4.15 13.27-1.884 17.135 6.798"/>
                <path fill="#C7C7C7" d="M59.085 48.25c-1.978-4.443-7.193-6.437-11.647-4.454-4.455 1.983-6.462 7.193-4.484 11.636"/>
                <path stroke="#FFA9EA" stroke-width="4.473" d="M17.351 39.45c-6.388.094-9.582 4.5-9.582 13.217"/>
                <rect width="41.673" height="15.498" x="7.063" y="13.385" fill="#C7C7C7" rx="2.684"/>
                <g transform="translate(31.784 16.203)">
                    <ellipse cx="5.297" cy="5.284" fill="#FFF" stroke="#979797" stroke-width=".895" rx="5.297" ry="5.284"/>
                    <ellipse cx="5.297" cy="5.284" fill="#EA4DC3" rx="3.178" ry="3.17"/>
                </g>
                <g transform="translate(13.42 16.203)">
                    <ellipse cx="5.297" cy="5.284" fill="#FFF" stroke="#979797" stroke-width=".895" rx="5.297" ry="5.284"/>
                    <ellipse cx="5.297" cy="5.284" fill="#EA4DC3" rx="3.178" ry="3.17"/>
                </g>
                <rect width="26.134" height="15.498" x="14.833" y="31.701" fill="#C7C7C7" rx="2.684"/>
                <rect width="19.071" height="9.863" x="18.364" y="34.519" fill="#232045" rx=".895"/>
                <path fill="#FAF700" d="M20.13 35.928h15.54a.352.352 0 1 1 0 .704H20.13a.352.352 0 1 1 0-.704zm0 2.113h15.54a.352.352 0 1 1 0 .705H20.13a.352.352 0 0 1 0-.705zm0 2.114h15.54a.352.352 0 1 1 0 .704H20.13a.352.352 0 1 1 0-.704zm0 2.113h15.54a.352.352 0 1 1 0 .705H20.13a.352.352 0 1 1 0-.705z"/>
                <ellipse cx="15.186" cy="5.988" fill="#16E1D0" rx="2.472" ry="2.466"/>
                <ellipse cx="40.613" cy="5.988" fill="#16E1D0" rx="2.472" ry="2.466"/>
                <path fill="#C7C7C7" d="M17.658 56.005c0-4.863-3.953-8.806-8.83-8.806C3.954 47.2 0 51.142 0 56.005"/>
            </g>
        </g>
    </g>
</svg>
