<svg xmlns="http://www.w3.org/2000/svg" xmlns:xlink="http://www.w3.org/1999/xlink" width="90" height="90" viewBox="0 0 90 90">
    <defs>
        <circle id="a" cx="45" cy="45" r="45"/>
        <filter id="c" width="126.7%" height="130%" x="-12.5%" y="-14.8%" filterUnits="objectBoundingBox">
            <feOffset dx="2" dy="4" in="SourceAlpha" result="shadowOffsetOuter1"/>
            <feColorMatrix in="shadowOffsetOuter1" result="shadowMatrixOuter1" values="0 0 0 0 0 0 0 0 0 0 0 0 0 0 0 0 0 0 0.25 0"/>
            <feMerge>
                <feMergeNode in="shadowMatrixOuter1"/>
                <feMergeNode in="SourceGraphic"/>
            </feMerge>
        </filter>
        <path id="d" d="M0 0h21.316c-1.667 11.33-4.036 21.593-7.105 30.79-.62 1.856-1.941 2.811-3.963 2.866-2.045-.046-3.356-1.002-3.932-2.867C3.476 21.601 1.37 11.34 0 0z"/>
        <path id="f" d="M22.895 13.816v16.92a4 4 0 0 1-4 4H4a4 4 0 0 1-4-4V11.448C0 5.125 5.125 0 11.447 0c6.323 0 11.448 5.125 11.448 11.447v2.369z"/>
    </defs>
    <g fill="none" fill-rule="evenodd">
        <g>
            <mask id="b" fill="#fff">
                <use xlink:href="#a"/>
            </mask>
            <use fill="#009EFF" fill-rule="nonzero" xlink:href="#a"/>
            <path fill="#232045" fill-rule="nonzero" d="M69.794 23.684l35.6 35.661-28.815 54.08-41.842-41.843-6.764-25.399 18.379-17.057 9.398 10.01z" mask="url(#b)" opacity=".221"/>
        </g>
        <g filter="url(#c)" transform="translate(13.421 15)">
            <g transform="rotate(-10 31.34 2.742)">
                <g transform="translate(4.737 22.105)">
                    <mask id="e" fill="#fff">
                        <use xlink:href="#d"/>
                    </mask>
                    <use fill="#E9BD8F" fill-rule="nonzero" xlink:href="#d"/>
                    <path fill="#B37E52" fill-rule="nonzero" d="M1.826 18.96l2.856-2.836-3.194-3.17-2.663 2.644-1.193-1.184L.295 11.77l-2.663-2.643 1.193-1.184 2.663 2.643 3.194-3.17L-2.368.42l1.193-1.184 7.05 6.997 3.195-3.17L-2.368-8.29l1.193-1.184L10.263 1.878 21.702-9.474l1.193 1.184L11.456 3.062l3.195 3.17L21.7-.765 22.896.419l-7.051 6.997 3.194 3.17 2.664-2.643 1.193 1.184-2.664 2.643 2.664 2.644-1.193 1.184-2.664-2.644-3.194 3.17L18.7 18.96l3-2.978 1.194 1.184-3.001 2.979 3 2.978-1.192 1.184-3.001-2.978-3.195 3.17 7.389 7.332-1.193 1.184-7.389-7.332-2.857 2.835 11.439 11.351-1.193 1.185L10.263 29.7-1.175 41.053l-1.193-1.185L9.07 28.517l-2.857-2.835-7.388 7.332-1.193-1.184 7.388-7.332-3.194-3.17-3.001 2.978-1.193-1.184 3-2.978-3-2.979 1.193-1.184 3 2.978zm1.193 1.184l3.194 3.17 2.857-2.835-3.194-3.17-2.857 2.835zm4.387 4.354l2.857 2.835 2.857-2.835-2.857-2.835-2.857 2.835zm6.907-1.184l3.194-3.17-2.856-2.835-3.195 3.17 2.857 2.835zm-4.05-4.02l3.194-3.17-3.194-3.17-3.194 3.17 3.194 3.17zM5.876 14.94l3.194-3.17L5.876 8.6 2.68 11.77l3.195 3.17zm1.193-7.524l3.194 3.17 3.194-3.17-3.194-3.17-3.194 3.17zm4.387 4.354l3.195 3.17 3.194-3.17L14.65 8.6l-3.195 3.17z" mask="url(#e)" opacity=".541"/>
                </g>
                <path fill="#000" fill-rule="nonzero" d="M16.8 31.741a4.739 4.739 0 0 1-7.85-1.751 4.737 4.737 0 0 1-7.264-4.944 2.764 2.764 0 0 1 .199-5.167 13.87 13.87 0 0 1-.306-2.905c0-7.63 6.185-13.816 13.816-13.816 7.63 0 13.816 6.185 13.816 13.816 0 1.532-.25 3.005-.71 4.382a2.764 2.764 0 0 1-.929 5.449 4.738 4.738 0 0 1-6.394 3.664A2.764 2.764 0 0 1 16.8 31.74z" opacity=".142"/>
                <path fill="#FFF" fill-rule="nonzero" d="M16.8 29.373a4.739 4.739 0 0 1-7.85-1.751 4.737 4.737 0 0 1-7.264-4.944 2.764 2.764 0 0 1 .199-5.167 13.87 13.87 0 0 1-.306-2.906C1.579 6.975 7.764.79 15.395.79c7.63 0 13.816 6.186 13.816 13.816 0 1.532-.25 3.006-.71 4.383a2.764 2.764 0 0 1-.929 5.449 4.738 4.738 0 0 1-6.394 3.663 2.764 2.764 0 0 1-4.378 1.273z"/>
                <path fill="#FFA9EA" fill-rule="nonzero" d="M27.768 8.451c-.334-.67-.721-1.31-1.156-1.912A13.798 13.798 0 0 0 15.395.789C10.267.79 5.79 3.583 3.407 7.732a13.727 13.727 0 0 0-1.469 3.729c-.235 1.01-.92 4.204-.213 6.61.706 2.408.705-3.54 1.866-5.09 1.16-1.55 2.678-2.161 4.183-1.063 1.506 1.098.162 2.126.602 2.91.441.783 2.232.554 2.945-.796.713-1.35-.849-2.755 1.818-2.69 2.666.065.453-3.332 3.775-2.975 3.322.358 3.793 6.237 3.56 8.343-.234 2.106-.247 3.49 1.553 3.894 1.8.405 3.406-2.87 2.73-5.205-.678-2.333-.2-4.342 1.855-2.475 2.055 1.866.838 4.581 2.646 5.267 1.808.686 3.242-2.178 1.166-5.226-1.384-2.032-2.27-3.537-2.656-4.514z"/>
                <circle cx="2.763" cy="20.132" r="2.763" fill="#FFF" fill-rule="nonzero"/>
                <path stroke="#05F" d="M12.633 3.093l-2.74 1.445"/>
                <path stroke="#EA4DC3" d="M16.807 3.22l2.249 1.583"/>
                <path stroke="#FFF" d="M20.56 2.39l.863 3.378"/>
                <path stroke="#EA4DC3" d="M7.279 4.737c-.321 1.083-.642 1.377-.963 2.46l.963-2.46z"/>
                <path stroke="#FFF" d="M7.19 8.124l2.746 1.114"/>
                <path stroke="#05F" d="M11.944 6.23l3.292.343"/>
                <path stroke="#EA4DC3" d="M21.583 7.06l.718 2.126"/>
                <path stroke="#05F" d="M24.998 8.191l2.21-2.085"/>
                <path stroke="#EA4DC3" d="M4.514 10.125l-2.146-.513"/>
                <path stroke="#05F" d="M21.823 11.684l1.68 1.382"/>
                <path stroke="#EA4DC3" d="M27.779 11.226l1.584 1.796"/>
                <path stroke="#05F" d="M19.02 7.07l-1.127 1.815"/>
                <path stroke="#FFF" d="M14.67 2.23L15.765.602"/>
            </g>
            <g transform="rotate(10 -10.891 239.27)">
                <rect width="3.947" height="25.263" x="9.474" y="22.105" fill="#F4E0C3" fill-rule="nonzero" rx="1.974"/>
                <mask id="g" fill="#fff">
                    <use xlink:href="#f"/>
                </mask>
                <use fill="#FFD777" fill-rule="nonzero" xlink:href="#f"/>
                <path fill="#F7FFFF" fill-rule="nonzero" d="M0 0h22.895v8.684H0z" mask="url(#g)"/>
                <path fill="#EEA9C6" fill-rule="nonzero" d="M0 8.684h22.895v8.684H0z" mask="url(#g)"/>
                <path fill="#885B32" fill-rule="nonzero" d="M0 17.368h22.895v8.684H0z" mask="url(#g)"/>
                <path fill="#FFD777" fill-rule="nonzero" d="M0 26.053h22.895v8.684H0z" mask="url(#g)"/>
                <rect width="3.947" height="25.263" x="5.526" y="6.316" fill="#000" fill-rule="nonzero" opacity=".15" rx="1.974"/>
                <rect width="3.947" height="25.263" x="14.211" y="6.316" fill="#000" fill-rule="nonzero" opacity=".15" rx="1.974"/>
            </g>
        </g>
    </g>
</svg>
