<svg width="375" height="417" xmlns="http://www.w3.org/2000/svg"><g fill="none"><path d="M125.113 245c39.212 0 71-31.788 71-71s-31.788-71-71-71S54 125.995 54 165.207 85.901 245 125.113 245zm81.933-157c16.017 0 29-12.984 29-29s-12.983-29-29-29C191.03 30 178 39.392 178 55.409 178 71.425 191.03 88 207.046 88z" fill="#FFF" opacity=".4" style="mix-blend-mode:overlay"/><path d="M268.832 371.738c39.212 0 72.832-40.526 72.832-79.738 0-39.212-35.452-71-74.664-71s-71 31.788-71 71 33.62 79.738 72.832 79.738zM311.428 120c8.844 0 16.427-9.14 16.427-17.985 0-8.845-7.996-16.015-16.84-16.015C302.17 86 295 93.17 295 102.015c0 8.844 7.583 17.985 16.428 17.985z" fill="#FFF" opacity=".44" style="mix-blend-mode:overlay"/><path d="M-.044 290c16.129 0 29.957-16.669 29.957-32.797C29.913 241.075 15.33 228-.797 228S-30 241.075-30 257.203-16.172 290-.044 290z" fill="#FFF" opacity=".4" style="mix-blend-mode:overlay"/><path d="M386 228c20.459 0 38-21.144 38-41.603 0-20.46-18.497-37.044-38.956-37.044-20.459 0-37.044 16.585-37.044 37.044C348 206.856 365.541 228 386 228z" fill="#FFF" opacity=".44" style="mix-blend-mode:overlay"/><path d="M51.5 259.515c5.128 3.864 13.52 1.877 17.384-3.251 3.865-5.13 2.361-12.78-2.768-16.646-5.128-3.864-12.419-2.84-16.284 2.289-3.864 5.129-3.461 13.743 1.667 17.608zm60.414 156.875C151.126 416.39 188 390.213 188 351s-31.788-71-71-71-71 31.788-71 71 26.702 65.39 65.914 65.39z" fill="#FFF" opacity=".4" style="mix-blend-mode:overlay"/><path d="M236 299c50.81 0 91.434-49.088 91.434-99.898C327.434 148.292 286.81 115 236 115c-50.81 0-92 41.19-92 92s41.19 92 92 92z" fill="#FFF" opacity=".44" style="mix-blend-mode:overlay"/><path d="M188.362 377c64.893 0 116.776-62.694 116.776-127.588C305.138 184.52 253.255 142 188.362 142c-64.894 0-117.5 52.607-117.5 117.5S123.468 377 188.362 377zm153.214-37.849c13.572 0 24.424-13.112 24.424-26.685C366 298.893 355.148 290 341.576 290 328.003 290 317 301.003 317 314.576c0 13.572 11.003 24.575 24.576 24.575zm-78.028-236.055c8.587 0 15.452-8.296 15.452-16.883S272.135 72 263.548 72 248 78.961 248 87.548s6.961 15.548 15.548 15.548z" stroke="#FFF" stroke-width="2" opacity=".4" style="mix-blend-mode:overlay"/><path d="M41.95 341.725c5.047 6.947 15.794 7.625 22.74 2.578 6.947-5.047 7.464-13.908 2.417-20.855-5.048-6.947-14.77-8.487-21.718-3.44-6.947 5.047-8.487 14.77-3.44 21.717zM75.143 96.286c18.304 0 32.939-17.684 32.939-35.989C108.082 41.993 93.447 30 75.142 30 56.84 30 42 44.839 42 63.143c0 18.304 14.839 33.143 33.143 33.143z" stroke="#FFF" stroke-width="2" opacity=".44" style="mix-blend-mode:overlay"/><path d="M332 392c5.523 0 9.938-5.336 9.938-10.859 0-5.522-4.415-9.141-9.938-9.141-5.523 0-10 4.477-10 10s4.477 10 10 10zm-118.48-16.96c3.601 0 6.48-3.479 6.48-7.08 0-3.6-2.879-5.96-6.48-5.96a6.52 6.52 0 1 0 0 13.04zm-32-266c3.601 0 6.48-3.479 6.48-7.08 0-3.6-2.879-5.96-6.48-5.96a6.52 6.52 0 1 0 0 13.04zm-99-96c3.601 0 6.48-3.479 6.48-7.08C89 2.36 86.121 0 82.52 0a6.52 6.52 0 1 0 0 13.04z" fill="#FFF" opacity=".44" style="mix-blend-mode:overlay"/><path d="M328.52 59.04c3.601 0 6.48-3.479 6.48-7.08 0-3.6-2.879-5.96-6.48-5.96a6.52 6.52 0 1 0 0 13.04zm13 182c3.601 0 6.48-3.479 6.48-7.08 0-3.6-2.879-5.96-6.48-5.96a6.52 6.52 0 1 0 0 13.04z" fill="#FFF" opacity=".4" style="mix-blend-mode:overlay"/></g></svg>