<svg width="280" height="276" xmlns="http://www.w3.org/2000/svg" xmlns:xlink="http://www.w3.org/1999/xlink"><defs><path d="M5.48 24.385h230.04a5.48 5.48 0 1 1 0 10.962H5.48a5.48 5.48 0 0 1 0-10.962z" id="a"/><filter x="-.2%" y="-4.6%" width="100.4%" height="109.1%" filterUnits="objectBoundingBox" id="b"><feOffset dy="1" in="SourceAlpha" result="shadowOffsetInner1"/><feComposite in="shadowOffsetInner1" in2="SourceAlpha" operator="arithmetic" k2="-1" k3="1" result="shadowInnerInner1"/><feColorMatrix values="0 0 0 0 0 0 0 0 0 0 0 0 0 0 0 0 0 0 0.5 0" in="shadowInnerInner1"/></filter><path d="M5.48 24.385h230.04a5.48 5.48 0 1 1 0 10.962H5.48a5.48 5.48 0 0 1 0-10.962z" id="c"/><filter x="-.2%" y="-4.6%" width="100.4%" height="109.1%" filterUnits="objectBoundingBox" id="d"><feOffset dy="1" in="SourceAlpha" result="shadowOffsetInner1"/><feComposite in="shadowOffsetInner1" in2="SourceAlpha" operator="arithmetic" k2="-1" k3="1" result="shadowInnerInner1"/><feColorMatrix values="0 0 0 0 0 0 0 0 0 0 0 0 0 0 0 0 0 0 0.5 0" in="shadowInnerInner1"/></filter><path d="M5.48 24.385h230.04a5.48 5.48 0 1 1 0 10.962H5.48a5.48 5.48 0 0 1 0-10.962z" id="e"/><filter x="-.2%" y="-4.6%" width="100.4%" height="109.1%" filterUnits="objectBoundingBox" id="f"><feOffset dy="1" in="SourceAlpha" result="shadowOffsetInner1"/><feComposite in="shadowOffsetInner1" in2="SourceAlpha" operator="arithmetic" k2="-1" k3="1" result="shadowInnerInner1"/><feColorMatrix values="0 0 0 0 0 0 0 0 0 0 0 0 0 0 0 0 0 0 0.5 0" in="shadowInnerInner1"/></filter><path d="M5.48 21.385h230.04a5.48 5.48 0 1 1 0 10.962H5.48a5.48 5.48 0 0 1 0-10.962z" id="g"/><filter x="-.2%" y="-4.6%" width="100.4%" height="109.1%" filterUnits="objectBoundingBox" id="h"><feOffset dy="1" in="SourceAlpha" result="shadowOffsetInner1"/><feComposite in="shadowOffsetInner1" in2="SourceAlpha" operator="arithmetic" k2="-1" k3="1" result="shadowInnerInner1"/><feColorMatrix values="0 0 0 0 0 0 0 0 0 0 0 0 0 0 0 0 0 0 0.5 0" in="shadowInnerInner1"/></filter><path id="i" d="M0 0h55.558v79.576H0z"/><path id="k" d="M0 0h56.536v80.552H0z"/></defs><g fill="none" fill-rule="evenodd"><rect fill="#05F" fill-rule="nonzero" opacity=".517" style="mix-blend-mode:multiply" width="280" height="276" rx="10"/><g transform="translate(18 31)"><text font-family="Chalkboard, Marker felt, sans-serif" font-size="14" fill="#FFF"><tspan x="0" y="14">Clothes</tspan></text><text font-family="Chalkboard, Marker felt, sans-serif" font-size="14" fill="#FFF"><tspan x="187.174" y="14">$100.05</tspan></text><g opacity=".2"><use fill="#05F" style="mix-blend-mode:multiply" xlink:href="#a"/><use fill="#000" filter="url(#b)" xlink:href="#a"/></g><rect fill="#FAF700" y="24.385" width="147.521" height="10.962" rx="5.481"/><g transform="translate(120.67 11.23)"><ellipse fill="#C5C307" cx="16.262" cy="18.635" rx="15.702" ry="15.712"/><ellipse fill="#FAF700" cx="16.262" cy="15.712" rx="15.702" ry="15.712"/><ellipse fill="#FFF" cx="16.262" cy="15.712" rx="10.589" ry="10.596"/></g></g><g transform="translate(18 84)"><text font-family="Chalkboard, Marker felt, sans-serif" font-size="14" fill="#FFF"><tspan x="0" y="14">Groceries</tspan></text><text font-family="Chalkboard, Marker felt, sans-serif" font-size="14" fill="#FFF"><tspan x="193.244" y="14">$65.99</tspan></text><g opacity=".2"><use fill="#05F" style="mix-blend-mode:multiply" xlink:href="#c"/><use fill="#000" filter="url(#d)" xlink:href="#c"/></g><rect fill="#EA4DC3" y="24.385" width="162.127" height="10.962" rx="5.481"/><g transform="translate(149.882 11.23)"><ellipse fill="#AD358F" cx="16.262" cy="18.635" rx="15.702" ry="15.712"/><ellipse fill="#EA4DC3" cx="16.262" cy="15.712" rx="15.702" ry="15.712"/><ellipse fill="#FFF" cx="16.262" cy="15.712" rx="10.589" ry="10.596"/></g></g><g transform="translate(18 144)"><text font-family="Chalkboard, Marker felt, sans-serif" font-size="14" fill="#FFF"><tspan x="0" y="14">Dining out</tspan></text><text font-family="Chalkboard, Marker felt, sans-serif" font-size="14" fill="#FFF"><tspan x="193.688" y="14">$56.82</tspan></text><g opacity=".2"><use fill="#05F" style="mix-blend-mode:multiply" xlink:href="#e"/><use fill="#000" filter="url(#f)" xlink:href="#e"/></g><rect fill="#FFA9EA" y="24.385" width="147.521" height="10.962" rx="5.481"/><g transform="translate(127.973 11.23)"><ellipse fill="#D389C1" cx="16.262" cy="18.635" rx="15.702" ry="15.712"/><ellipse fill="#FFA9EA" cx="16.262" cy="15.712" rx="15.702" ry="15.712"/><ellipse fill="#FFF" cx="16.262" cy="15.712" rx="10.589" ry="10.596"/></g></g><g transform="translate(18 206)"><text font-family="Chalkboard, Marker felt, sans-serif" font-size="16" fill="#FFF"><tspan x="0" y="15">Fun</tspan></text><text font-family="Chalkboard, Marker felt, sans-serif" font-size="14" fill="#FFF"><tspan x="194.516" y="15">$72.38</tspan></text><g opacity=".2"><use fill="#05F" style="mix-blend-mode:multiply" xlink:href="#g"/><use fill="#000" filter="url(#h)" xlink:href="#g"/></g><rect fill="#16E1D0" y="21.385" width="118.309" height="10.962" rx="5.481"/><g transform="translate(91.458 8.23)"><ellipse fill="#07A497" cx="16.262" cy="18.635" rx="15.702" ry="15.712"/><ellipse fill="#16E1D0" cx="16.262" cy="15.712" rx="15.702" ry="15.712"/><ellipse fill="#FFF" cx="16.262" cy="15.712" rx="10.589" ry="10.596"/></g></g><g transform="rotate(-11 692.139 -810.528)"><mask id="j" fill="#fff"><use xlink:href="#i"/></mask><path d="M50.369 35.344h-.34a5.178 5.178 0 0 0-3.992 1.89c-.312-2.57-2.508-4.577-5.15-4.577h-.34a5.18 5.18 0 0 0-4.007 1.907c-.383-2.817-2.807-5.007-5.717-5.007a5.78 5.78 0 0 0-4.947 2.817V4.754C25.876 2.139 23.742 0 21.135 0h-1.237c-2.607 0-4.74 2.14-4.74 4.754V46.76l-.825-1.496c-.148-.234-8.04-9.507-11.296-7.933l-.853.494C.1 39.032-.62 41.728.583 43.818L15.952 70.51c1.886 5.269 6.926 9.065 12.81 9.065h13.192c7.482 0 13.604-6.139 13.604-13.642V40.548c0-2.862-2.335-5.204-5.19-5.204" fill="#FFA9EA" mask="url(#j)"/></g><g transform="rotate(-11 681.266 -817.157)"><mask id="l" fill="#fff"><use xlink:href="#k"/></mask><path d="M55.507 59.485v6.92c0 7.231-5.866 13.115-13.077 13.115H29.25c-5.498 0-10.446-3.504-12.313-8.718l-.015-.043L1.544 44.045a3.85 3.85 0 0 1-.38-2.933 3.836 3.836 0 0 1 1.792-2.35l.834-.482c1.11-.517 3.29.597 6.141 3.138 2.314 2.063 4.269 4.355 4.47 4.611l1.773 3.216V5.267a4.233 4.233 0 0 1 4.222-4.234h1.235c2.328 0 4.222 1.9 4.222 4.234v29.457l.955-1.59a5.288 5.288 0 0 1 4.502-2.565c2.612 0 4.848 1.958 5.201 4.556l.16 1.171.748-.912a4.653 4.653 0 0 1 3.606-1.717h.34a4.678 4.678 0 0 1 4.633 4.118l.144 1.19.763-.922a4.655 4.655 0 0 1 3.593-1.701h.339c2.575 0 4.67 2.1 4.67 4.683v13.08h1.03v-13.08c0-3.152-2.557-5.716-5.7-5.716h-.34a5.66 5.66 0 0 0-3.683 1.362 5.708 5.708 0 0 0-5.45-4.047h-.34a5.66 5.66 0 0 0-3.704 1.38c-.79-2.611-3.221-4.478-6.01-4.478-1.666 0-3.26.683-4.428 1.845V5.267c0-2.904-2.355-5.267-5.25-5.267h-1.236c-2.896 0-5.252 2.363-5.252 5.267v40.05c-1.046-1.262-8.304-9.66-11.817-7.96l-.886.511A4.863 4.863 0 0 0 .17 40.845a4.879 4.879 0 0 0 .483 3.716l15.331 26.634c2.025 5.6 7.35 9.357 13.267 9.357h13.18c7.777 0 14.105-6.346 14.105-14.148v-6.92h-1.03z" fill="#232045" mask="url(#l)"/></g></g></svg>