<svg width="375" height="399" xmlns="http://www.w3.org/2000/svg">
  <g style="mix-blend-mode:darken" fill="none" opacity=".727">
    <path d="M363.43 165.145c31.756 0 50.586-27.889 50.586-59.645 0-31.756-25.744-57.5-57.5-57.5C324.759 48 300 80.564 300 112.32c0 31.757 31.673 52.825 63.43 52.825zM72.254 324c50.693 0 80.751-44.518 80.751-95.212 0-50.693-41.095-91.788-91.788-91.788S-29 188.982-29 239.676C-29 290.369 21.56 324 72.254 324zm191 75c50.693 0 80.751-44.518 80.751-95.212 0-50.693-41.095-91.788-91.788-91.788S162 263.982 162 314.676C162 365.369 212.56 399 263.254 399zM83.234 79c21.145 0 33.683-18.57 33.683-39.714C116.917 18.141 99.775 1 78.63 1 57.486 1 41 22.683 41 43.827 41 64.972 62.09 79 83.234 79z" fill="#00F" style="mix-blend-mode:darken"/>
    <path d="M94.064 99c26.566 0 42.318-23.33 42.318-49.897S114.846 1 88.28 1C61.713 1 41 28.242 41 54.809 41 81.375 67.497 99 94.064 99zM67.21 324c53.675 0 85.501-47.137 85.501-100.812 0-53.676-43.512-97.188-97.187-97.188S-40 181.04-40 234.715C-40 288.391 13.535 324 67.21 324zm327-93c53.675 0 85.501-47.137 85.501-100.812C479.711 76.512 436.2 33 382.524 33S287 88.04 287 141.715C287 195.391 340.535 231 394.21 231z" stroke="#00F" style="mix-blend-mode:darken"/>
  </g>
</svg>
