<svg width="290" height="290" xmlns="http://www.w3.org/2000/svg"><g fill="none" fill-rule="evenodd"><path d="M149.824 280.441c74.835 0 134.387-60.08 134.387-134.914 0-74.834-64.38-134.914-139.215-134.914-74.834 0-132.035 55.002-132.035 129.836 0 74.835 62.029 139.992 136.863 139.992z" fill="#FFA9EA"/><path d="M74.355 265.8c63.464 39.657 152.13 22.527 191.786-40.937 39.656-63.463 21.768-159.68-41.696-199.336-26.218-16.383-60.894-24.35-88.277-22.246C97.269 6.271 44.043 34.693 20.77 71.938-18.887 135.4 10.892 226.144 74.355 265.8z" stroke="#FFA9EA" stroke-width="4"/><path d="M232.876 31.169l-98.738 74.87-115.392 69.4L13 166.174c33.533-18.837 64.272-38.038 92.215-57.604 27.325-19.133 66.932-49.087 118.822-89.86l-7.55-10.643L262.972 4l-19.73 41.782-10.367-14.613h.001z" fill="#FAF700"/><path fill="#14B4A7" d="M30.329 146.265l16.114 7.807V238l-16.114-8.133z"/><path fill="#16E1D0" d="M79 138.133l-32.557 15.851V238L79 221.495z"/><g transform="translate(31 130)" fill-rule="nonzero"><path d="M15.56 25L47 8.123 31.448 0 0 16.7 15.56 25z" stroke="#12A08F" fill="#16E1D0"/><ellipse fill="#12A08F" cx="23" cy="13" rx="7" ry="4"/><ellipse fill="#12A08F" cx="31.5" cy="2" rx="3" ry="2"/><ellipse fill="#12A08F" cx="3.5" cy="16.5" rx="2.5" ry="1.5"/><ellipse fill="#12A08F" cx="15.787" cy="23.023" rx="2.868" ry="1.978"/><ellipse fill="#12A08F" cx="43.509" cy="8.487" rx="2.39" ry="1.483"/></g><path fill="#14B4A7" d="M91.326 112.32l15.995 7.833v118.34l-15.995-8.159z"/><path fill="#16E1D0" d="M139.635 104.16l-32.314 15.905v118.428l32.314-16.561z"/><g transform="translate(92 96)" fill-rule="nonzero"><path d="M15.56 25L47 8.123 31.448 0 0 16.7 15.56 25z" stroke="#12A08F" fill="#16E1D0"/><ellipse fill="#12A08F" cx="23" cy="13" rx="7" ry="4"/><ellipse fill="#12A08F" cx="31.5" cy="2" rx="3" ry="2"/><ellipse fill="#12A08F" cx="3.5" cy="16.5" rx="2.5" ry="1.5"/><ellipse fill="#12A08F" cx="15.787" cy="23.023" rx="2.868" ry="1.978"/><ellipse fill="#12A08F" cx="43.509" cy="8.487" rx="2.39" ry="1.483"/></g><path fill="#14B4A7" d="M152.326 87.32l15.995 7.833v135.405l-15.995-8.159z"/><path fill="#16E1D0" d="M200.635 79.16l-32.314 15.905v135.493l32.314-16.56z"/><g transform="translate(153 71)" fill-rule="nonzero"><path d="M15.56 25L47 8.123 31.448 0 0 16.7 15.56 25z" stroke="#12A08F" fill="#16E1D0"/><ellipse fill="#12A08F" cx="23" cy="13" rx="7" ry="4"/><ellipse fill="#12A08F" cx="31.5" cy="2" rx="3" ry="2"/><ellipse fill="#12A08F" cx="3.5" cy="16.5" rx="2.5" ry="1.5"/><ellipse fill="#12A08F" cx="15.787" cy="23.023" rx="2.868" ry="1.978"/><ellipse fill="#12A08F" cx="43.509" cy="8.487" rx="2.39" ry="1.483"/></g><g><path fill="#14B4A7" d="M213.329 52.346l16.114 7.846V230l-16.114-8.173z"/><path fill="#16E1D0" d="M262 44.173l-32.557 15.93V230L262 213.412z"/><g transform="translate(214 36)" fill-rule="nonzero"><path d="M15.56 25L47 8.123 31.448 0 0 16.7 15.56 25z" stroke="#12A08F" fill="#16E1D0"/><ellipse fill="#12A08F" cx="23" cy="13" rx="7" ry="4"/><ellipse fill="#12A08F" cx="31.5" cy="2" rx="3" ry="2"/><ellipse fill="#12A08F" cx="3.5" cy="16.5" rx="2.5" ry="1.5"/><ellipse fill="#12A08F" cx="15.787" cy="23.023" rx="2.868" ry="1.978"/><ellipse fill="#12A08F" cx="43.509" cy="8.487" rx="2.39" ry="1.483"/></g></g></g></svg>