<svg width="333" height="303" xmlns="http://www.w3.org/2000/svg"><g fill="none" fill-rule="evenodd"><g fill-rule="nonzero"><path d="M.913 11.844h309.364v399.362H.913V11.844zm25.312 81.56a8.437 8.437 0 1 0 0-16.874 8.437 8.437 0 0 0 0 16.874zm0 126.558a8.437 8.437 0 1 0 0-16.874 8.437 8.437 0 0 0 0 16.874zm0 126.558a8.437 8.437 0 1 0 0-16.874 8.437 8.437 0 0 0 0 16.874z" fill="#000" opacity=".151"/><path d="M4.219 8h309.364v399.361H4.219V8zM29.53 89.56a8.437 8.437 0 1 0 0-16.875 8.437 8.437 0 0 0 0 16.875zm0 126.558a8.437 8.437 0 1 0 0-16.875 8.437 8.437 0 0 0 0 16.875zm0 126.558a8.437 8.437 0 1 0 0-16.875 8.437 8.437 0 0 0 0 16.875z" fill="#FFF"/><path d="M3.516 61.787h310.77M3.516 89.911h310.77M3.516 103.973h310.77M3.516 118.035h310.77M3.516 132.097h310.77M3.516 146.16h310.77M3.516 160.221h310.77M3.516 174.283h310.77M3.516 188.345h310.77M36.5 202.407h277.786m-310.786 0h19M3.516 216.47h310.77M3.516 230.531h310.77M3.516 244.593h310.77M3.516 258.655h310.77M3.516 272.717h310.77M3.516 286.78h310.77M3.516 300.841h310.77M3.516 314.903h310.77M3.516 343.027h310.77M3.516 357.09h310.77M3.516 371.151h310.77M36.5 329.407h277.786m-310.786 0h19m14-253h277.786m-310.786 0h19M3.516 385.213h310.77" stroke="#009EFF" opacity=".415" stroke-linecap="square"/><path d="M56.951 8.703v397.955" stroke="#EA4DC3" opacity=".468" stroke-linecap="square"/></g><path d="M181.205 6.3l18.43.749L316.562 45.04l7.795 2.533 7.795 2.533-4.974 15.31-7.796-2.533-7.795-2.533L194.66 22.36l-15.35-10.227-.026.08-9.42-6.373 11.366.381-.025.08z" fill-opacity=".2" fill="#000" style="mix-blend-mode:darken"/><path fill="#FAF700" d="M197.852 1.931l116.929 37.993-4.975 15.31-116.928-37.992z"/><path fill="#D7D7D7" d="M314.78 39.924l7.796 2.533-4.975 15.31-7.795-2.533z"/><path fill="#FFA9EA" d="M322.576 42.457l7.795 2.533-4.974 15.31-7.795-2.533z"/><path fill="#EFECC2" d="M168.082.722l29.77 1.21-4.974 15.31z"/><path fill="#9B9B9B" d="M168.082.722l11.367.381-1.946 5.992z"/><text style="mix-blend-mode:multiply" transform="rotate(13 2053.873 160.567)" font-family="Chalkboard, Marker felt, sans-serif" font-size="20" letter-spacing=".519" fill="#232045"><tspan x="206" y="498.721">MOVIES</tspan></text><text style="mix-blend-mode:multiply" transform="rotate(-4 -5709.956 723.585)" font-family="Chalkboard, Marker felt, sans-serif" font-size="20" letter-spacing=".519" fill="#232045"><tspan x="118.208" y="498.722">House</tspan></text><text style="mix-blend-mode:multiply" transform="rotate(-12 -1840.688 473.715)" font-family="Chalkboard, Marker felt, sans-serif" font-size="20" letter-spacing=".519" fill="#232045"><tspan x="93" y="541">CAR</tspan></text><text style="mix-blend-mode:multiply" font-family="Chalkboard, Marker felt, sans-serif" font-size="20" letter-spacing=".519" fill="#232045" transform="translate(-30 -409)"><tspan x="120" y="585">CANDY</tspan></text><text style="mix-blend-mode:multiply" transform="rotate(-4 -5717.456 861.445)" font-family="Chalkboard, Marker felt, sans-serif" font-size="20" letter-spacing=".519" fill="#232045"><tspan x="89.658" y="629.401">VIDEO</tspan> <tspan x="89.658" y="650.401"> GAMEs</tspan></text><text style="mix-blend-mode:multiply" transform="rotate(5 4924.32 -2.556)" font-family="Chalkboard, Marker felt, sans-serif" font-size="20" letter-spacing=".519" fill="#232045"><tspan x="207" y="551">TICKETS</tspan></text><text style="mix-blend-mode:multiply" transform="rotate(-3 -7545.04 981.827)" font-family="Chalkboard, Marker felt, sans-serif" font-size="20" letter-spacing=".519" fill="#232045"><tspan x="231" y="619">PHONE</tspan></text><path d="M125.852 108.387c16.568 0 26.484-8.639 26.484-25.207 0-16.569-27.728-25.207-44.297-25.207-16.568 0-32.8 8.638-32.8 25.207 0 16.568 34.044 25.207 50.613 25.207zm135.277 114.074c14.763-7.522 18.531-20.239 11.01-35.001-7.523-14.763-41.122-13.056-55.885-5.534-14.763 7.522-20.332 25.773-12.81 40.535 7.522 14.763 42.922 7.522 57.685 0z" stroke="#EA4DC3" stroke-width="3" style="mix-blend-mode:multiply"/></g></svg>