<svg width="375" height="194" xmlns="http://www.w3.org/2000/svg" xmlns:xlink="http://www.w3.org/1999/xlink"><defs><ellipse id="a" cx="61.5" cy="63.845" rx="57.027" ry="57.125"/><path d="M52.058 102.457c26.66 0 48.272-21.661 48.272-48.382C100.33 27.354 87.061.888 60.401.888c-26.66 0-56.615 26.466-56.615 53.187 0 26.72 21.612 48.382 48.272 48.382z" id="c"/></defs><g fill="none" fill-rule="evenodd"><g transform="translate(-17 105)" fill="#16E1D0" fill-rule="nonzero"><path d="M37.5 75.515c20.71 0 37.5 1.696 37.5-19.015C75 35.79 58.21 19 37.5 19S0 35.79 0 56.5s16.79 19.015 37.5 19.015z"/><circle cx="44" cy="19" r="19"/></g><g transform="translate(316 96)" fill="#16E1D0" fill-rule="nonzero"><path d="M38.5 84.005C83.07 84.005 76 77.21 76 56.5S59.21 19 38.5 19 1 35.79 1 56.5s-7.07 27.505 37.5 27.505z"/><circle cx="20" cy="19" r="19"/></g><g fill-rule="nonzero"><path fill="#FFF" d="M194 43h149v138H194z"/><path fill="#FFF" d="M31 85h176v96H31z"/><path fill="#F7F7F7" d="M50 43h144v42H50z"/><path fill="#FFF" d="M268.5 1L343 43H194z"/><path fill="#F7F7F7" d="M50 43l19 42H31zm8 62h119v76H58zm195 19h31v57h-31zm-38-66h31v38h-31z"/><path fill="#F7F7F7" d="M215 58h31v38h-31zm69 0h31v38h-31z"/></g><g transform="translate(165 1)"><mask id="b" fill="#fff"><use xlink:href="#a"/></mask><use fill="#FFA9EA" xlink:href="#a"/><path d="M62.618 98.568c22.232 0 40.255-9.664 40.255-21.584s-18.023 0-40.255 0c-22.232 0-40.254-11.92-40.254 0s18.022 21.584 40.254 21.584z" stroke="#05F" stroke-width="2" mask="url(#b)"/><path d="M61.54 123.21c31.53 0 61.46-24.688 61.46-55.86C123 36.18 104.14 0 72.61 0S0 30.371 0 61.543s30.01 61.667 61.54 61.667z" stroke="#05F" stroke-width="2"/><ellipse fill="#FAF700" fill-rule="nonzero" cx="87.218" cy="42.563" rx="8.945" ry="8.961"/><ellipse fill="#FAF700" fill-rule="nonzero" cx="38.018" cy="42.563" rx="8.945" ry="8.961"/><ellipse stroke="#05F" fill="#05F" fill-rule="nonzero" cx="39.136" cy="34.723" rx="3.355" ry="3.36"/><ellipse stroke="#05F" fill="#05F" fill-rule="nonzero" cx="88.336" cy="34.723" rx="3.355" ry="3.36"/><path d="M18.924 126.257l84.018 2.71a10 10 0 0 1 9.66 9.41l2.947 50.39a4 4 0 0 1-3.993 4.233H12.601a4 4 0 0 1-4-4v-52.748c0-5.523 4.478-10 10-10a10 10 0 0 1 .323.005z" fill="#16E1D0" fill-rule="nonzero"/><ellipse stroke="#05F" stroke-width="2" cx="65.801" cy="132.257" rx="9.892" ry="9.047"/><path d="M24.052 122.949a9 9 0 0 0-9.29 8.995v52.748a3 3 0 0 0 3 3h98.955a3 3 0 0 0 2.995-3.175l-2.947-50.39a9 9 0 0 0-8.694-8.469l-84.019-2.71z" stroke="#05F" stroke-width="2"/><path d="M59.092 139.847l-10.064 46.26m43.007-58.589l-11.182 56.004m-36.986-56.866l5.161 57.728m24.944-42.219l6.541 41.476" stroke="#05F" stroke-width="2" stroke-linecap="square"/><path d="M74.593 144.965l-17.585 6.462m17.566 2.198l-20.127 8.96m22.692.517l-22.677 8.96m25.266-.315l-26.995 11.488" stroke="#05F" stroke-linecap="square"/><path d="M41.22 127.518l-9.048 14.76 9.049 5.31-12.836 9.286c10.54 24.025 16.848 33.665 18.923 28.921m46.198-58.467l7.456 15.626-9.554 4.333 11.796 10.578c-12.995 22.791-20.276 31.72-21.843 26.785" stroke="#05F"/><path d="M56.77 124.933l-11.183 15.509m30.105-12.924l12.616 18.716" stroke="#05F" stroke-linecap="square"/></g><path d="M108.34 74.12c19.054-4.575 46.036-.042 80.945 13.601l4.994 38.147-106.763-10.352c-5.17-23.021 1.77-36.82 20.824-41.395z" fill="#FFA9EA" fill-rule="nonzero"/><g transform="translate(91.023 31)"><mask id="d" fill="#fff"><use xlink:href="#c"/></mask><use fill="#FFA9EA" xlink:href="#c"/><path d="M53.005 83.484c18.818 0 34.074-8.185 34.074-18.281 0-10.097-15.256 0-34.074 0-18.82 0-34.075-10.097-34.075 0 0 10.096 15.256 18.28 34.075 18.28z" stroke="#05F" stroke-width="2" mask="url(#d)"/><path d="M52.092 104.354c26.689 0 52.024-20.91 52.024-47.31C104.116 30.642 88.151 0 61.463 0 34.773 0 0 25.724 0 52.125s25.403 52.23 52.092 52.23z" stroke="#05F" stroke-width="2"/><ellipse fill="#FAF700" fill-rule="nonzero" cx="73.828" cy="36.05" rx="7.572" ry="7.589"/><ellipse fill="#FAF700" fill-rule="nonzero" cx="32.181" cy="36.05" rx="7.572" ry="7.589"/><ellipse stroke="#05F" fill="#05F" fill-rule="nonzero" cx="33.128" cy="29.409" rx="2.84" ry="2.846"/><ellipse stroke="#05F" fill="#05F" fill-rule="nonzero" cx="74.774" cy="29.409" rx="2.84" ry="2.846"/></g><path d="M109.089 137.656l68.199 2.193a10 10 0 0 1 9.661 9.41l2.375 40.507A4 4 0 0 1 185.33 194h-82.564a4 4 0 0 1-4-4v-42.35a10.001 10.001 0 0 1 10.321-9.995z" fill="#FAF700" fill-rule="nonzero"/><path d="M130.552 135.515c-15.907-.516-29.681 10.96-32.046 26.7l-3.589 23.89a3 3 0 0 0 2.967 3.445h93.753a3 3 0 0 0 2.975-3.387l-3.604-27.703c-1.58-12.15-11.734-21.364-23.98-21.762l-36.476-1.183zm25.006-103.653c31.833 40.413 44.874 71.748 39.122 94.006M152.116 31C100.5 63.739 78.655 90.762 86.584 112.069" stroke="#05F" stroke-width="2"/><path d="M159.433 136.4l20.384 16.672-14.6.012 7.136 8.193c-14.181 19.58-22.316 27.361-24.404 23.34m-12.534-48.319l-23.13 16.496 17.025.008-10.164 5.617c16.435 21.665 25.966 30.71 28.595 27.136" stroke="#05F"/><path d="M134.968 138.236l11.064 48.57m15.549-47.139l-13.767 49.158" stroke="#05F" stroke-linecap="square"/><path d="M113.645 53.134a4.5 4.5 0 0 0-4.09 4.875l1.032 11.807c.7 8.01 7.762 13.934 15.772 13.234 8.01-.701 13.934-7.762 13.234-15.772l-1.033-11.807a4.5 4.5 0 0 0-4.876-4.09l-20.04 1.753zm40.272-1.6a4.5 4.5 0 0 0-4.803 4.176l-.827 11.823c-.561 8.02 5.486 14.977 13.507 15.538 8.02.56 14.977-5.487 15.538-13.507l.827-11.823a4.5 4.5 0 0 0-4.175-4.803l-20.067-1.404zM139.21 61.788c2.737-1.954 5.892-1.954 9.464 0" stroke="#05F"/></g></svg>