<svg xmlns="http://www.w3.org/2000/svg">
  <g fill="none" fill-rule="evenodd">
    <g fill-rule="nonzero">
      <rect fill="#E0A36D" y="45" width="317" height="502" rx="10"/>
      <path fill="#FFF" d="M14 59h290v475H14z"/>
      <path d="M88 16h142c5.523 0 10 4.477 10 10v19H78V26c0-5.523 4.477-10 10-10z" fill="#FAD300"/>
      <path d="M149 0h22c5.523 0 10 4.477 10 10v23h-42V10c0-5.523 4.477-10 10-10z" fill="#FAD300"/>
      <rect stroke="#000" stroke-width="6" opacity=".195" style="mix-blend-mode:multiply" x="92" y="34" width="129" height="39" rx="10"/>
      <rect stroke="#DB0" stroke-width="6" x="94" y="32" width="129" height="39" rx="10"/>
      <path fill="#BA885C" d="M10 63h4v450h-4z"/>
    </g>
    <text font-family="Chalkboard, Marker felt, sans-serif" font-size="24" letter-spacing="-.5" fill="#000" transform="translate(-29 -299)">
      <tspan x="115.346" y="411">Look for these </tspan> <tspan x="134.65" y="439">behaviors:</tspan>
    </text>
    <text font-family="Chalkboard, Marker felt, sans-serif" font-size="12" fill="#000" transform="translate(-29 -299)">
      <tspan x="105" y="485">Shows the ability to plan ahead and </tspan> <tspan x="105" y="503">delay gratification.</tspan> <tspan x="105" y="541">Has begun to develop a positive </tspan> <tspan x="105" y="559">attitude toward planning, saving, </tspan> <tspan x="105" y="577">frugality, and self-control.</tspan> <tspan x="105" y="615">Can make spending and saving </tspan> <tspan x="105" y="633">decisions aligned with his or her </tspan> <tspan x="105" y="651">goals and values.</tspan>
    </text>
    <path stroke="#232045" d="M42.5 180.5h21v21h-21zm0 55h21v21h-21zm0 73h21v21h-21z"/>
    <path d="M54.207 195.055l.147-.147 20.554-20.554.354-.354.707.707-.354.354-20.554 20.554-.354.354-.5-.5-.5.5-.353-.354-7-7-.354-.353.707-.707.354.353 7 7 .146.147zm0 56l.147-.147 20.554-20.554.354-.354.707.707-.354.354-20.554 20.554-.354.354-.5-.5-.5.5-.353-.354-7-7-.354-.353.707-.707.354.353 7 7 .146.147zm0 72l.147-.147 20.554-20.554.354-.354.707.707-.354.354-20.554 20.554-.354.354-.5-.5-.5.5-.353-.354-7-7-.354-.353.707-.707.354.353 7 7 .146.147z" stroke="#EA4DC3" stroke-width="3" style="mix-blend-mode:darken" stroke-linecap="square"/>
  </g>
</svg>
