<svg width="333" height="403" xmlns="http://www.w3.org/2000/svg">
  <defs>
    <linearGradient x1="73.974%" y1="22.587%" x2="112.284%" y2="-15.739%" id="a">
      <stop stop-color="#FFF" stop-opacity=".5" offset="0%"/>
      <stop stop-color="#FFF" offset="100%"/>
    </linearGradient>
  </defs>
  <g fill="none" fill-rule="evenodd">
    <g fill-rule="nonzero">
      <path d="M.913 11.844h309.364v399.362H.913V11.844zm25.312 81.56a8.437 8.437 0 1 0 0-16.874 8.437 8.437 0 0 0 0 16.874zm0 126.558a8.437 8.437 0 1 0 0-16.874 8.437 8.437 0 0 0 0 16.874zm0 126.558a8.437 8.437 0 1 0 0-16.874 8.437 8.437 0 0 0 0 16.874z" fill="#000" opacity=".151"/>
      <path d="M4.219 8h309.364v399.361H4.219V8zM29.53 89.56a8.437 8.437 0 1 0 0-16.875 8.437 8.437 0 0 0 0 16.875zm0 126.558a8.437 8.437 0 1 0 0-16.875 8.437 8.437 0 0 0 0 16.875zm0 126.558a8.437 8.437 0 1 0 0-16.875 8.437 8.437 0 0 0 0 16.875z" fill="#FFF"/>
      <path d="M3.516 61.787h310.77M3.516 89.911h310.77M3.516 103.973h310.77M3.516 118.035h310.77M3.516 132.097h310.77M3.516 146.16h310.77M3.516 160.221h310.77M3.516 174.283h310.77M3.516 188.345h310.77M36.5 202.407h277.786M3.5 202.407h19M3.516 216.47h310.77M3.516 230.531h310.77M3.516 244.593h310.77M3.516 258.655h310.77M3.516 272.717h310.77M3.516 286.78h310.77M3.516 300.841h310.77M3.516 314.903h310.77M3.516 343.027h310.77M3.516 357.09h310.77M3.516 371.151h310.77M36.5 329.407h277.786M3.5 329.407h19M36.5 76.407h277.786M3.5 76.407h19M3.516 385.213h310.77" stroke="#009EFF" opacity=".415" stroke-linecap="square"/>
      <path d="M56.951 8.703v397.955" stroke="#EA4DC3" opacity=".468" stroke-linecap="square"/>
    </g>
    <g transform="translate(72 158)">
      <ellipse fill="#FFA9EA" cx="99.335" cy="101.539" rx="99.335" ry="100.575"/>
      <path d="M29.924 174.367L169.636 31.371c17.815 18.178 28.82 43.207 28.82 70.839 0 55.546-44.473 100.574-99.334 100.574-26.904 0-51.31-10.829-69.198-28.417z" fill="#EA4DC3"/>
      <path d="M2.517 125.535l97.138-22.392v99.856l-.438.001c-47.006 0-86.387-33.058-96.7-77.465z" fill="#009EFF"/>
      <ellipse fill-opacity=".2" fill="url(#a)" style="mix-blend-mode:overlay" cx="99.335" cy="102.425" rx="99.335" ry="100.575"/>
      <path d="M198.831 102.057h-98.97V.964c54.7.24 98.971 45.21 98.971 100.65v.443z" fill="#FAF700"/>
    </g>
    <path d="M170 367.36c60.751 0 110-34.609 110-95.36 0-18.374-.917-37.161-8.883-52.387-18.372-35.114-55.35-64.054-97.726-64.054-60.752 0-106.61 40.006-106.61 100.757 0 60.752 42.468 111.043 103.219 111.043z" stroke="#FFA9EA" stroke-width="2"/>
    <path d="M79.27 297.555c25.674 55.06 82.112 83.178 137.171 57.504 16.653-7.766 25.743-9.06 36.176-22.714 24.06-31.491 40.98-78.263 23.07-116.67-25.674-55.059-87.631-78.685-142.69-53.01-55.06 25.674-79.402 79.83-53.727 134.89z" stroke="#FFA9EA" stroke-width="2"/>
    <path d="M181.205 6.3l18.43.749L316.562 45.04l7.795 2.533 7.795 2.533-4.974 15.31-7.796-2.533-7.795-2.533L194.66 22.36l-15.35-10.227-.026.08-9.42-6.373 11.366.381-.025.08z" fill-opacity=".2" fill="#000" style="mix-blend-mode:darken"/>
    <path fill="#FAF700" d="M197.852 1.931l116.929 37.993-4.975 15.31-116.928-37.992z"/>
    <path fill="#D7D7D7" d="M314.78 39.924l7.796 2.533-4.975 15.31-7.795-2.533z"/>
    <path fill="#FFA9EA" d="M322.576 42.457l7.795 2.533-4.974 15.31-7.795-2.533z"/>
    <path fill="#EFECC2" d="M168.082.722l29.77 1.21-4.974 15.31z"/>
    <path fill="#9B9B9B" d="M168.082.722l11.367.381-1.946 5.992z"/>
    <text transform="rotate(-18 -1152.25 442.61)" font-family="Chalkboard, Marker felt, sans-serif" font-size="24" letter-spacing=".933" fill="#EA4DC3">
      <tspan x="109.764" y="557.903">My plan</tspan>
    </text>
  </g>
</svg>
