<svg width="375" height="583" xmlns="http://www.w3.org/2000/svg">
  <g fill="none">
    <path d="M-50 6h492v586H-50V6zm40.255 119.676c7.41 0 13.418-5.543 13.418-12.38 0-6.838-6.008-12.38-13.418-12.38-7.411 0-13.419 5.542-13.419 12.38 0 6.837 6.008 12.38 13.419 12.38zm0 185.704c7.41 0 13.418-5.543 13.418-12.38 0-6.837-6.008-12.38-13.418-12.38-7.411 0-13.419 5.543-13.419 12.38 0 6.837 6.008 12.38 13.419 12.38zm0 185.705c7.41 0 13.418-5.543 13.418-12.38 0-6.838-6.008-12.381-13.418-12.381-7.411 0-13.419 5.543-13.419 12.38 0 6.838 6.008 12.38 13.419 12.38z" fill="#000" opacity=".151"/>
    <path d="M-44 0h492v586H-44V0zm40.255 119.676c7.41 0 13.418-5.543 13.418-12.38 0-6.838-6.008-12.38-13.418-12.38-7.411 0-13.419 5.542-13.419 12.38 0 6.837 6.008 12.38 13.419 12.38zm0 185.704c7.41 0 13.418-5.543 13.418-12.38 0-6.837-6.008-12.38-13.418-12.38-7.411 0-13.419 5.543-13.419 12.38 0 6.837 6.008 12.38 13.419 12.38zm0 185.705c7.41 0 13.418-5.543 13.418-12.38 0-6.838-6.008-12.381-13.418-12.381-7.411 0-13.419 5.543-13.419 12.38 0 6.838 6.008 12.38 13.419 12.38z" fill="#FFF"/>
    <path d="M-46.878 79.5h495.756m-495.756 19h495.756m-495.756 22h495.756m-495.756 20h495.756m-495.756 22h495.756m-495.756 20h495.756m-495.756 19h495.756m-495.756 22h495.756m-495.756 20h495.756m-495.756 22h495.756m-495.756 19h495.756m-495.756 22h495.756m-495.756 20h495.756m-495.756 22h495.756m-495.756 20h495.756m-495.756 21h495.756m-495.756 20h495.756m-495.756 20h495.756m-495.756 22h495.756m-495.756 20h495.756m-495.756 20h495.756m-495.756 21h495.756m-495.756 21h495.756m-495.756 21h495.756" stroke="#009EFF" opacity=".415" stroke-linecap="square"/>
    <path d="M39.5 1.032v583.936" stroke="#EA4DC3" opacity=".468" stroke-linecap="square"/>
  </g>
</svg>
