<svg width="62" height="87" xmlns="http://www.w3.org/2000/svg" xmlns:xlink="http://www.w3.org/1999/xlink"><defs><path d="M27.5 54C41.583 54 53 42.583 53 28.5S45.99.468 31.907.468 2 14.417 2 28.5 13.417 54 27.5 54z" id="a"/></defs><g fill="none" fill-rule="evenodd"><path d="M14.423 23.683c10.105-2.416 24.414-.023 42.929 7.18L60 51 3.379 45.535c-2.742-12.153.939-19.437 11.044-21.852z" fill="#FFA9EA" fill-rule="nonzero"/><g transform="translate(5 1)"><mask id="b" fill="#fff"><use xlink:href="#a"/></mask><use fill="#FFA9EA" xlink:href="#a"/><path d="M28 44c9.941 0 18-4.314 18-9.635s-8.059 0-18 0-18-5.321-18 0S18.059 44 28 44z" stroke="#05F" stroke-width="2" mask="url(#b)"/><path d="M27.518 55C41.616 55 55 43.98 55 30.065S46.566 0 32.468 0C18.369 0 0 13.558 0 27.472 0 41.387 13.42 55 27.518 55z" stroke="#05F" stroke-width="2"/><circle fill="#FAF700" fill-rule="nonzero" cx="39" cy="19" r="4"/><circle fill="#FAF700" fill-rule="nonzero" cx="17" cy="19" r="4"/><circle stroke="#05F" fill="#05F" fill-rule="nonzero" cx="17.5" cy="15.5" r="1.5"/><circle stroke="#05F" fill="#05F" fill-rule="nonzero" cx="39.5" cy="15.5" r="1.5"/></g><path d="M19.322 57.332l26.882.866a10 10 0 0 1 9.66 9.41l.888 15.158A4 4 0 0 1 52.76 87H13a4 4 0 0 1-4-4V67.327c0-5.523 4.477-10 10-10a10 10 0 0 1 .322.005z" fill="#FFA9EA" fill-rule="nonzero"/><path d="M26.13 56.488c-8.141-.262-15.192 5.607-16.41 13.662l-1.576 10.4A3 3 0 0 0 11.112 84h45.396a3 3 0 0 0 2.975-3.39l-1.276-9.734a15.924 15.924 0 0 0-15.276-13.847l-16.8-.541zM38.974 1.586C55.836 22.94 62.744 39.5 59.696 51.262M37.526 1.168C10.163 18.515-1.417 32.833 2.786 44.123" stroke="#05F" stroke-width="2"/><path d="M41.04 56.408l10.874 8.826h-7.782l3.807 4.336c-7.55 10.35-11.883 14.46-12.999 12.332m-6.507-25.414l-12.315 8.75h9.062l-5.411 2.979c8.742 11.48 13.813 16.272 15.213 14.377" stroke="#05F"/><path d="M28.5 57.614l6 25.772m7.523-25.232l-7.13 25.77" stroke="#05F" stroke-linecap="square"/><path d="M19.314 12.792a4.5 4.5 0 0 0-4.09 4.875l.348 3.985a7.5 7.5 0 0 0 14.943-1.308l-.349-3.984a4.5 4.5 0 0 0-4.875-4.091l-5.977.523zm21.251-.482a4.5 4.5 0 0 0-4.803 4.175l-.279 3.99a7.5 7.5 0 0 0 14.964 1.047l.279-3.99a4.5 4.5 0 0 0-4.175-4.803l-5.986-.419zm-9.877 4.8c1.436-1.132 3.092-1.132 4.967 0" stroke="#05F"/></g></svg>