<svg width="71" height="50" xmlns="http://www.w3.org/2000/svg" xmlns:xlink="http://www.w3.org/1999/xlink">
  <defs>
    <path id="a" d="M.1.017h19.805V34H.1z"/>
    <path id="c" d="M0 .069h25.921v36.82H0z"/>
  </defs>
  <g fill="none" fill-rule="evenodd">
    <path fill="#FFF" d="M-152-83h375v812h-375z"/>
    <g transform="translate(21 16)">
      <mask id="b" fill="#fff">
        <use xlink:href="#a"/>
      </mask>
      <path d="M9.157 22.062c-.775.648-1.507 1.64-2.195 2.978A19.62 19.62 0 0 0 5.4 29.078c-.29 1.14-.044 1.676.736 1.608.283-.025.534-.082.752-.17.218-.09.413-.231.586-.426.172-.195.32-.405.442-.63a5.41 5.41 0 0 0 .37-.939c.123-.4.23-.792.32-1.178.09-.385.2-.897.332-1.535.076-.344.12-.723.134-1.137l.05-1.495.035-1.114m-.444-4.16l.198-2.124a9.331 9.331 0 0 1-1.871 1.5c-.66.396-1.315.623-1.964.68a4.28 4.28 0 0 1-1.687-.193 4.356 4.356 0 0 1-1.515-.843A4.759 4.759 0 0 1 .741 15.47c-.303-.583-.49-1.255-.56-2.015a16.587 16.587 0 0 1-.04-2.774l.24-3.14c.095-1.244.252-2.234.47-2.967.218-.733.477-1.479.777-2.237.223-.542.577-.97 1.06-1.286.482-.314.966-.493 1.45-.535.413-.036.776.034 1.09.21.313.176.49.477.529.903.012.127.01.267-.005.42a2.67 2.67 0 0 1-.104.496 10.99 10.99 0 0 0-.355 1.937l-.305 2.972-.304 2.946a10.032 10.032 0 0 0-.035 1.927c.026.29.073.571.14.841.066.27.162.508.288.714.126.207.284.369.473.487.19.119.42.166.692.142.436-.038.815-.258 1.136-.66.32-.402.586-.876.798-1.42a9.5 9.5 0 0 0 .48-1.674c.109-.57.17-1.044.182-1.42l.827-6.586c.048-.388.182-.748.402-1.08.209-.32.464-.601.763-.842.3-.241.617-.429.95-.562.334-.134.654-.214.962-.241.366-.032.681.02.944.153.262.134.41.369.44.703.01.104.003.227-.02.368l-.108 1.255-.155 1.79-.24 2.816a703.467 703.467 0 0 1-.254 2.913c-.142 1.737-.278 3.6-.41 5.592a12.78 12.78 0 0 0 1.095-.826c.388-.324.815-.75 1.278-1.278.463-.527.974-1.184 1.533-1.97a39.617 39.617 0 0 0 1.857-2.92l1.203 3.771c-.18.374-.418.758-.715 1.153-.32.42-.663.83-1.03 1.232-.542.578-.935.97-1.178 1.175-.078.065-.478.433-1.202 1.105-.219.217-.951.815-2.2 1.794-.304.236-.49.632-.56 1.19-.07.557-.114 1.586-.133 3.085-.029.43-.041.76-.037.99a946.58 946.58 0 0 0-.06 1.591 14.37 14.37 0 0 1-.188 1.737 13.018 13.018 0 0 1-.422 1.815 8.827 8.827 0 0 1-.738 1.676 6.882 6.882 0 0 1-1.086 1.463 5.277 5.277 0 0 1-1.517 1.047 5.894 5.894 0 0 1-2.019.525 6.708 6.708 0 0 1-1.688-.053 4.765 4.765 0 0 1-1.462-.49 3.248 3.248 0 0 1-1.147-1.04c-.315-.454-.525-1.001-.631-1.642-.207-1.211.017-2.53.672-3.956.368-.798.626-1.351.777-1.66.15-.309.388-.756.716-1.341.328-.575.679-1.098 1.052-1.571a90.492 90.492 0 0 1 1.845-2.371c.487-.6 1.073-1.248 1.759-1.946" fill="#FFF" mask="url(#b)"/>
    </g>
    <g>
      <mask id="d" fill="#fff">
        <use xlink:href="#c"/>
      </mask>
      <path d="M4.588 20.438c.024.48.059 1.126.106 1.938.046.813.12 1.68.224 2.601.103.921.241 1.852.414 2.793.172.941.4 1.788.683 2.541.283.754.622 1.364 1.016 1.83.393.465.87.683 1.427.654a2.017 2.017 0 0 0 1.453-.702c.388-.437.703-.994.942-1.67.24-.675.419-1.435.536-2.28.117-.846.195-1.692.232-2.539a37.79 37.79 0 0 0 .033-2.422 68.158 68.158 0 0 0-.064-1.96l-.042-.824c-.955-.33-1.708-.624-2.258-.883s-.967-.513-1.251-.763c-.284-.25-.47-.52-.558-.809a4.256 4.256 0 0 1-.161-1.02c-.01-.215-.016-.428-.015-.64 0-.21.022-.398.065-.563.042-.164.109-.3.2-.407a.521.521 0 0 1 .39-.174.683.683 0 0 1 .316.056c.098.044.223.104.374.181.383.2.73.36 1.041.484.312.124.577.223.795.296.253.085.482.146.688.183-.008-.153-.02-.457-.038-.913-.017-.454-.008-.976.025-1.564.034-.588.11-1.205.227-1.851a7.08 7.08 0 0 1 .565-1.79c.26-.546.61-1.006 1.052-1.379.441-.372 1-.577 1.677-.613.204-.01.416-.001.634.029.217.03.417.095.6.197.181.103.336.245.465.426.129.182.2.42.215.713.005.083.005.14 0 .17a.637.637 0 0 0-.002.115l-.81 4.617-.083 1.41c1.103-.236 2.048-.57 2.834-1.004.786-.433 1.429-.93 1.93-1.49.5-.562.863-1.168 1.086-1.821a5.282 5.282 0 0 0 .284-1.992 5.995 5.995 0 0 0-.468-1.997c-.278-.675-.733-1.278-1.363-1.81-.631-.532-1.461-.952-2.49-1.263-1.03-.31-2.312-.426-3.846-.344-1.152.06-2.184.342-3.096.842a8.517 8.517 0 0 0-2.405 1.97 11.987 11.987 0 0 0-1.763 2.806 18.805 18.805 0 0 0-1.16 3.366 23.52 23.52 0 0 0-.59 3.644 27.306 27.306 0 0 0-.066 3.625M13.86.097c1.923-.102 3.622.074 5.097.527 1.474.454 2.715 1.096 3.72 1.924a8.687 8.687 0 0 1 2.325 2.919 8.967 8.967 0 0 1 .908 3.51 9.379 9.379 0 0 1-.482 3.439c-.38 1.146-.982 2.216-1.81 3.21-.83.993-1.893 1.87-3.192 2.63-1.299.762-2.84 1.33-4.623 1.706.009.856.02 1.641.033 2.356l.011.915c.004.305.01.583.016.835.007.252.013.472.016.66a16.302 16.302 0 0 1-.734 5.568 14.603 14.603 0 0 1-1.028 2.447 9.269 9.269 0 0 1-1.477 2.06 7.264 7.264 0 0 1-1.946 1.452 5.907 5.907 0 0 1-2.408.627c-.933.05-1.778-.155-2.536-.612-.76-.458-1.435-1.092-2.029-1.903-.594-.812-1.109-1.756-1.545-2.833a25.96 25.96 0 0 1-1.102-3.392 33.71 33.71 0 0 1-.702-3.588 38.752 38.752 0 0 1-.334-3.424 28.242 28.242 0 0 1 .228-5.368 25.396 25.396 0 0 1 1.177-4.9 20.652 20.652 0 0 1 2.033-4.227c.815-1.284 1.75-2.4 2.806-3.345a12.95 12.95 0 0 1 3.486-2.248A11.706 11.706 0 0 1 13.86.097" fill="#FFF" mask="url(#d)"/>
    </g>
    <path d="M42.061 25.711c.33.458.726.667 1.19.627.808-.07 1.422-.754 1.84-2.053a8.716 8.716 0 0 0 .42-3.04l.806-5.853c-1.379.119-2.508 1.12-3.388 3.002-.953 2.004-1.45 3.35-1.495 4.037-.09 1.478.118 2.571.627 3.28m2.104 11.081a19.677 19.677 0 0 0-1.568 4.034c-.29 1.125-.748 1.832.048 1.763.286-.025.535-.081.748-.17.214-.087.407-.228.581-.423.174-.194.448-.67.572-.889.123-.219.121-.262.246-.666.124-.405.234-.8.33-1.184.096-.384.205-.895.326-1.53.076-.343.586-.91.6-1.311.013-.402.274-.883.294-1.474l.038-1.128c-.786.647-1.525 1.64-2.215 2.978m2.858-25.137c.061.012.393.048.491.074.099.027.251.084.371.085.12.001.335.088.491.075l.393.103c.6.162.84.14 1.15.372.082.12.224.308.277.481.176.345.41 2.686.49 4.701.021.626-.059 1.41-.241 2.352-.183.942-.264 1.978-.243 3.107.02 1.13.025 2.601.013 4.415.327-.225.673-.497 1.039-.818 1.308-1.14 2.719-3.173 4.233-6.098L57 24.228c-.274.667-.794 1.453-1.56 2.358-.78.894-1.447 1.59-2 2.085a165.587 165.587 0 0 0-2.568 1.959c-.302.234-.487.627-.556 1.177-.069.55-.106 1.573-.111 3.068a1495.277 1495.277 0 0 0-.099 2.56c-.02.512-.086 1.094-.2 1.746a13.727 13.727 0 0 1-.434 1.808 9.336 9.336 0 0 1-.734 1.678 6.243 6.243 0 0 1-1.096 1.457 5.562 5.562 0 0 1-1.54 1.036c-.609.284-1.312.327-2.036.523-.772.21-1.209.381-1.732.293-.523-.087-1.145-.096-1.603-.329-.46-.232-.746-.502-1.058-.96-.312-.46-.458-1.583-.577-2.221-.207-1.198.02-2.509.678-3.931.382-.798.645-1.353.79-1.667.144-.313.385-.76.72-1.338a14.33 14.33 0 0 1 1.05-1.576c.747-.98 1.758-2.316 2.249-2.908.49-.592.688-.686 1.379-1.383l.167-2.079c-1.219 1.332-2.458 2.052-3.718 2.16a4.43 4.43 0 0 1-2.633-.588 5.277 5.277 0 0 1-1.942-1.864c-.846-1.374-1.074-2.759-.574-4.736.452-1.845.994-3.668 1.516-4.889a10.653 10.653 0 0 1 2.16-3.252c2.199-1.606 2.578-3.285 3.944-3.403.618-.054 1.086.076 1.402.387.039.032-.123-.088-.013-.03" fill="#FFF"/>
    <path d="M56.79 27.731c.314.464.692.676 1.134.635.77-.07 1.356-.764 1.755-2.08a9.356 9.356 0 0 0 .402-3.046c-.001-.023 0-.046.003-.069l.686-5.294c.04-.316-.254-.57-.549-.471-1.034.345-1.902 1.316-2.604 2.91-.908 2.032-1.383 3.395-1.425 4.091-.087 1.499.112 2.607.597 3.324m2.006 11.23a20.707 20.707 0 0 0-1.494 4.087c-.278 1.14-.037 1.675.722 1.606.272-.025.51-.082.713-.171.204-.09.388-.233.554-.43.166-.197.308-.406.425-.628.118-.222.236-.538.355-.948.118-.41.223-.81.315-1.2.092-.39.195-.906.31-1.55.073-.347.116-.724.128-1.131l.048-1.51v-.018c.014-.414-.494-.612-.748-.29-.462.582-.904 1.31-1.328 2.183m-1.71 8.955a4.676 4.676 0 0 1-1.404-.487 2.988 2.988 0 0 1-1.102-1.051c-.298-.466-.503-1.021-.617-1.668-.197-1.214.019-2.542.647-3.984.364-.808.615-1.37.753-1.688.138-.318.367-.77.687-1.357.32-.587.653-1.119 1-1.596a79.444 79.444 0 0 1 1.771-2.39 28.77 28.77 0 0 1 1.584-1.846.441.441 0 0 0 .116-.266l.06-.777c.028-.39-.419-.616-.703-.356-.906.827-1.824 1.283-2.754 1.369-.883.081-1.72-.118-2.51-.597a5.183 5.183 0 0 1-1.853-1.889c-.806-1.392-.971-3.09-.494-5.093.43-1.87.895-3.423 1.393-4.66a10.868 10.868 0 0 1 2.06-3.295c1.272-1.396 2.56-2.153 3.863-2.273.59-.054 1.035.077 1.337.393.037.032.093.095.17.189.077.094.13.15.16.172.03.02.083.063.158.128.074.064.14.102.198.115.058.012.134.032.228.059.094.027.198.041.312.042a3.9 3.9 0 0 0 .396-.018l.747-.087c.51-.047.875.08 1.096.377.079.122.167.285.265.488.167.35.289 1.545.364 3.588.02.634-.056 1.428-.23 2.383a16.053 16.053 0 0 0-.231 3.149c.016.951.022 2.143.017 3.573-.001.372.423.574.698.332.095-.083.19-.17.288-.26.999-.926 2.062-2.433 3.187-4.52a.834.834 0 0 1 1.523.102l.706 1.848c.042.11.038.23-.008.338-.276.637-.748 1.376-1.417 2.215-.738.899-1.37 1.6-1.894 2.1a159.345 159.345 0 0 0-2.462 1.997c-.287.238-.464.636-.53 1.194-.065.558-.1 1.594-.106 3.109a1623.56 1623.56 0 0 0-.094 2.595 14.303 14.303 0 0 1-.19 1.768c-.108.66-.246 1.272-.415 1.833a9.768 9.768 0 0 1-.7 1.7 6.301 6.301 0 0 1-1.045 1.476 5.296 5.296 0 0 1-1.467 1.05 5.458 5.458 0 0 1-1.942.53 6.038 6.038 0 0 1-1.615-.054" fill="#FFF"/>
  </g>
</svg>
