<svg width="309" height="154" viewBox="0 0 309 154">
  <defs>
    <path id="a" d="M0 21.051L39.75 0 60 10.526 20.25 31.577z"/>
    <path id="c" d="M0 21.051L39.75 0 60 10.526 20.25 31.577z"/>
    <path id="e" d="M0 21.051L39.75 0 60 10.526 20.25 31.577z"/>
    <path id="g" d="M0 21.051L39.75 0 60 10.526 20.25 31.577z"/>
    <path id="i" d="M0 21.051L39.75 0 60 10.526 20.25 31.577z"/>
    <path id="k" d="M0 21.051L39.75 0 60 10.526 20.25 31.577z"/>
    <path id="m" d="M0 21.051L39.75 0 60 10.526 20.25 31.577z"/>
    <path id="o" d="M0 21.051L39.75 0 60 10.526 20.25 31.577z"/>
    <path id="q" d="M0 21.051L39.75 0 60 10.526 20.25 31.577z"/>
    <path id="s" d="M0 21.051L39.75 0 60 10.526 20.25 31.577z"/>
    <path id="u" d="M0 21.051L39.75 0 60 10.526 20.25 31.577z"/>
    <path id="w" d="M0 21.051L39.75 0 60 10.526 20.25 31.577z"/>
    <path id="y" d="M0 21.051L39.75 0 60 10.526 20.25 31.577z"/>
    <path id="A" d="M0 21.051L39.75 0 60 10.526 20.25 31.577z"/>
    <path id="C" d="M0 21.051L39.75 0 60 10.526 20.25 31.577z"/>
    <path id="E" d="M0 20.788l40-20 20 9.738-40 21.262z"/>
    <path id="G" d="M0 20.788l40-20 20 9.738-40 21.262z"/>
    <path id="I" d="M0 20.788l40-20 20 9.738-40 21.262z"/>
    <path id="K" d="M0 20.788l40-20 20 9.738-40 21.262z"/>
    <path id="M" d="M0 20.788l40-20 20 9.738-40 21.262z"/>
  </defs>
  <g fill="none" fill-rule="evenodd">
    <path stroke="#15A08F" stroke-width="2.25" fill="#16E1D0" opacity=".835" d="M2.421 73.254l17.824 9.264 37.334-19.771-17.824-9.265z"/>
    <path stroke="#15A08F" stroke-width="2.25" d="M2.421 73.254l17.824 9.264 37.334-19.771-17.824-9.265z"/>
    <g transform="translate(0 52.212)">
      <mask id="b" fill="#fff">
        <use xlink:href="#a"/>
      </mask>
      <ellipse fill="#12A08F" mask="url(#b)" cx="30.375" cy="15.412" rx="8.625" ry="4.135"/>
    </g>
    <g transform="translate(0 52.212)">
      <mask id="d" fill="#fff">
        <use xlink:href="#c"/>
      </mask>
      <ellipse fill="#12A08F" mask="url(#d)" cx="1.875" cy="21.427" rx="6.625" ry="3.135"/>
    </g>
    <g transform="translate(0 52.212)">
      <mask id="f" fill="#fff">
        <use xlink:href="#e"/>
      </mask>
      <ellipse fill="#12A08F" mask="url(#f)" cx="20.625" cy="29.697" rx="6.625" ry="3.135"/>
    </g>
    <g transform="translate(0 52.212)">
      <mask id="h" fill="#fff">
        <use xlink:href="#g"/>
      </mask>
      <ellipse fill="#12A08F" mask="url(#h)" cx="58.125" cy="10.901" rx="7.625" ry="3.135"/>
    </g>
    <g transform="translate(0 52.212)">
      <mask id="j" fill="#fff">
        <use xlink:href="#i"/>
      </mask>
      <ellipse fill="#12A08F" mask="url(#j)" cx="40.125" cy="1.128" rx="6.625" ry="3.135"/>
    </g>
    <path fill="#14B4A7" d="M0 73.263l20.25 10.525v70.005L0 143.185z"/>
    <path fill="#16E1D0" d="M60 62.737L20.25 83.788v69.996L60 132.733z"/>
    <path stroke="#15A08F" stroke-width="2.25" fill="#16E1D0" opacity=".835" d="M169.421 97.254l17.824 9.264 37.334-19.771-17.824-9.265z"/>
    <path stroke="#15A08F" stroke-width="2.25" d="M169.421 97.254l17.824 9.264 37.334-19.771-17.824-9.265z"/>
    <g transform="translate(167 76.212)">
      <mask id="l" fill="#fff">
        <use xlink:href="#k"/>
      </mask>
      <ellipse fill="#12A08F" mask="url(#l)" cx="30.375" cy="15.412" rx="8.625" ry="4.135"/>
    </g>
    <g transform="translate(167 76.212)">
      <mask id="n" fill="#fff">
        <use xlink:href="#m"/>
      </mask>
      <ellipse fill="#12A08F" mask="url(#n)" cx="1.875" cy="21.427" rx="6.625" ry="3.135"/>
    </g>
    <g transform="translate(167 76.212)">
      <mask id="p" fill="#fff">
        <use xlink:href="#o"/>
      </mask>
      <ellipse fill="#12A08F" mask="url(#p)" cx="20.625" cy="29.697" rx="6.625" ry="3.135"/>
    </g>
    <g transform="translate(167 76.212)">
      <mask id="r" fill="#fff">
        <use xlink:href="#q"/>
      </mask>
      <ellipse fill="#12A08F" mask="url(#r)" cx="58.125" cy="10.901" rx="7.625" ry="3.135"/>
    </g>
    <g transform="translate(167 76.212)">
      <mask id="t" fill="#fff">
        <use xlink:href="#s"/>
      </mask>
      <ellipse fill="#12A08F" mask="url(#t)" cx="40.125" cy="1.128" rx="6.625" ry="3.135"/>
    </g>
    <path fill="#14B4A7" d="M167 97.263l20.25 10.525v46.005L167 143.185z"/>
    <path fill="#16E1D0" d="M227 86.737l-39.75 21.051v45.996L227 132.733z"/>
    <path stroke="#15A08F" stroke-width="2.25" fill="#16E1D0" opacity=".835" d="M251.421 97.254l17.824 9.264 37.334-19.771-17.824-9.265z"/>
    <path stroke="#15A08F" stroke-width="2.25" d="M251.421 97.254l17.824 9.264 37.334-19.771-17.824-9.265z"/>
    <g transform="translate(249 76.212)">
      <mask id="v" fill="#fff">
        <use xlink:href="#u"/>
      </mask>
      <ellipse fill="#12A08F" mask="url(#v)" cx="30.375" cy="15.412" rx="8.625" ry="4.135"/>
    </g>
    <g transform="translate(249 76.212)">
      <mask id="x" fill="#fff">
        <use xlink:href="#w"/>
      </mask>
      <ellipse fill="#12A08F" mask="url(#x)" cx="1.875" cy="21.427" rx="6.625" ry="3.135"/>
    </g>
    <g transform="translate(249 76.212)">
      <mask id="z" fill="#fff">
        <use xlink:href="#y"/>
      </mask>
      <ellipse fill="#12A08F" mask="url(#z)" cx="20.625" cy="29.697" rx="6.625" ry="3.135"/>
    </g>
    <g transform="translate(249 76.212)">
      <mask id="B" fill="#fff">
        <use xlink:href="#A"/>
      </mask>
      <ellipse fill="#12A08F" mask="url(#B)" cx="58.125" cy="10.901" rx="7.625" ry="4.135"/>
    </g>
    <g transform="translate(249 76.212)">
      <mask id="D" fill="#fff">
        <use xlink:href="#C"/>
      </mask>
      <ellipse fill="#12A08F" mask="url(#D)" cx="40.125" cy="1.128" rx="6.625" ry="3.135"/>
    </g>
    <path fill="#14B4A7" d="M249 97.263l20.25 10.525v46.005L249 143.185z"/>
    <path fill="#16E1D0" d="M309 86.737l-39.75 21.051v45.996L309 132.733z"/>
    <g>
      <path fill="#14B4A7" d="M83 126l20 11v17l-20-11z"/>
      <path fill="#16E1D0" d="M143 115.737L103 137v17l40-21z"/>
      <path stroke="#15A08F" stroke-width="2.25" fill="#16E1D0" d="M85.421 126.048l17.588 9.673 37.511-19.94-17.513-8.526z"/>
      <g transform="translate(83 105.212)">
        <mask id="F" fill="#fff">
          <use xlink:href="#E"/>
        </mask>
        <ellipse fill="#12A08F" mask="url(#F)" cx="30.375" cy="15.412" rx="8.625" ry="4.135"/>
      </g>
      <g transform="translate(83 105.212)">
        <mask id="H" fill="#fff">
          <use xlink:href="#G"/>
        </mask>
        <ellipse fill="#12A08F" mask="url(#H)" cx="1.875" cy="21.427" rx="6.625" ry="3.135"/>
      </g>
      <g transform="translate(83 105.212)">
        <mask id="J" fill="#fff">
          <use xlink:href="#I"/>
        </mask>
        <ellipse fill="#12A08F" mask="url(#J)" cx="20.625" cy="29.697" rx="6.625" ry="3.135"/>
      </g>
      <g transform="translate(83 105.212)">
        <mask id="L" fill="#fff">
          <use xlink:href="#K"/>
        </mask>
        <ellipse fill="#12A08F" mask="url(#L)" cx="58.125" cy="10.901" rx="7.625" ry="3.135"/>
      </g>
      <g transform="translate(83 105.212)">
        <mask id="N" fill="#fff">
          <use xlink:href="#M"/>
        </mask>
        <ellipse fill="#12A08F" mask="url(#N)" cx="40.125" cy="1.128" rx="8.625" ry="4.135"/>
      </g>
    </g>
    <g fill="#FFF" font-family="Chalkboard" font-size="14">
      <text transform="translate(96 50)">
        <tspan x=".767" y="14">Save</tspan>
      </text>
    </g>
    <g fill="#FFF" font-family="Chalkboard" font-size="14">
      <text transform="translate(10 -3)">
        <tspan x="0" y="14">Spend</tspan>
      </text>
    </g>
    <g fill="#FFF" font-family=".SFNSText, .SF NS Text" font-size="14">
      <text transform="translate(176 21)">
        <tspan x=".834" y="14">Share</tspan>
      </text>
    </g>
    <g fill="#FFF" font-family=".SFNSText, .SF NS Text" font-size="14">
      <text transform="translate(259 21)">
        <tspan x=".001" y="14">Invest</tspan>
      </text>
    </g>
    <g fill="#FFF" font-family=".SFNSDisplay, .SF NS Display" font-size="23">
      <text transform="translate(90 73)">
        <tspan x=".24" y="22">10%</tspan>
      </text>
    </g>
    <g fill="#FFF" font-family=".SFNSDisplay, .SF NS Display" font-size="23">
      <text transform="translate(6 18)">
        <tspan x=".387" y="22">40%</tspan>
      </text>
    </g>
    <g fill="#FFF" font-family=".SFNSDisplay, .SF NS Display" font-size="23">
      <text transform="translate(173 43)">
        <tspan x=".077" y="22">25%</tspan>
      </text>
    </g>
    <g fill="#FFF" font-family=".SFNSDisplay, .SF NS Display" font-size="23">
      <text transform="translate(256 43)">
        <tspan x=".077" y="22">25%</tspan>
      </text>
    </g>
  </g>
</svg>