<svg viewBox="0 0 309 191" xmlns="http://www.w3.org/2000/svg" xmlns:xlink="http://www.w3.org/1999/xlink">
                  <defs>
                    <path id="path-1" d="M0 21.051L39.75 0 60 10.526 20.25 31.577z" />
                    <path id="path-3" d="M0 21.051L39.75 0 60 10.526 20.25 31.577z" />
                    <path id="path-5" d="M0 21.051L39.75 0 60 10.526 20.25 31.577z" />
                    <path id="path-7" d="M0 21.051L39.75 0 60 10.526 20.25 31.577z" />
                    <path id="path-9" d="M0 21.051L39.75 0 60 10.526 20.25 31.577z" />
                    <path id="path-11" d="M0 21.051L39.75 0 60 10.526 20.25 31.577z" />
                    <path id="path-13" d="M0 21.051L39.75 0 60 10.526 20.25 31.577z" />
                    <path id="path-15" d="M0 21.051L39.75 0 60 10.526 20.25 31.577z" />
                    <path id="path-17" d="M0 21.051L39.75 0 60 10.526 20.25 31.577z" />
                    <path id="path-19" d="M0 21.051L39.75 0 60 10.526 20.25 31.577z" />
                    <path id="path-21" d="M0 21.051L39.75 0 60 10.526 20.25 31.577z" />
                    <path id="path-23" d="M0 21.051L39.75 0 60 10.526 20.25 31.577z" />
                    <path id="path-25" d="M0 21.051L39.75 0 60 10.526 20.25 31.577z" />
                    <path id="path-27" d="M0 21.051L39.75 0 60 10.526 20.25 31.577z" />
                    <path id="path-29" d="M0 21.051L39.75 0 60 10.526 20.25 31.577z" />
                    <path id="path-31" d="M0 21.051L39.75 0 60 10.526 20.25 31.577z" />
                    <path id="path-33" d="M0 21.051L39.75 0 60 10.526 20.25 31.577z" />
                    <path id="path-35" d="M0 21.051L39.75 0 60 10.526 20.25 31.577z" />
                    <path id="path-37" d="M0 21.051L39.75 0 60 10.526 20.25 31.577z" />
                    <path id="path-39" d="M0 21.051L39.75 0 60 10.526 20.25 31.577z" />
                    <path id="path-41" d="M0 21.051L39.75 0 60 10.526 20.25 31.577z" />
                    <path id="path-43" d="M0 21.051L39.75 0 60 10.526 20.25 31.577z" />
                    <path id="path-45" d="M0 21.051L39.75 0 60 10.526 20.25 31.577z" />
                    <path id="path-47" d="M0 21.051L39.75 0 60 10.526 20.25 31.577z" />
                    <path id="path-49" d="M0 21.051L39.75 0 60 10.526 20.25 31.577z" />
                    <path id="path-51" d="M0 20.788l40-20 20 9.738-40 21.262z" />
                    <path id="path-53" d="M0 20.788l40-20 20 9.738-40 21.262z" />
                    <path id="path-55" d="M0 20.788l40-20 20 9.738-40 21.262z" />
                    <path id="path-57" d="M0 20.788l40-20 20 9.738-40 21.262z" />
                    <path id="path-59" d="M0 20.788l40-20 20 9.738-40 21.262z" />
                    <path id="path-61" d="M0 21.051L39.75 0 60 10.526 20.25 31.577z" />
                    <path id="path-63" d="M0 21.051L39.75 0 60 10.526 20.25 31.577z" />
                    <path id="path-65" d="M0 21.051L39.75 0 60 10.526 20.25 31.577z" />
                    <path id="path-67" d="M0 21.051L39.75 0 60 10.526 20.25 31.577z" />
                    <path id="path-69" d="M0 21.051L39.75 0 60 10.526 20.25 31.577z" />
                    <path id="path-71" d="M0 21.051L39.75 0 60 10.526 20.25 31.577z" />
                    <path id="path-73" d="M0 21.051L39.75 0 60 10.526 20.25 31.577z" />
                    <path id="path-75" d="M0 21.051L39.75 0 60 10.526 20.25 31.577z" />
                    <path id="path-77" d="M0 21.051L39.75 0 60 10.526 20.25 31.577z" />
                    <path id="path-79" d="M0 21.051L39.75 0 60 10.526 20.25 31.577z" />
                    <path id="path-81" d="M0 21.051L39.75 0 60 10.526 20.25 31.577z" />
                    <path id="path-83" d="M0 21.051L39.75 0 60 10.526 20.25 31.577z" />
                    <path id="path-85" d="M0 21.051L39.75 0 60 10.526 20.25 31.577z" />
                    <path id="path-87" d="M0 21.051L39.75 0 60 10.526 20.25 31.577z" />
                    <path id="path-89" d="M0 21.051L39.75 0 60 10.526 20.25 31.577z" />
                    <path id="path-91" d="M0 21.051L39.75 0 60 10.526 20.25 31.577z" />
                    <path id="path-93" d="M0 21.051L39.75 0 60 10.526 20.25 31.577z" />
                    <path id="path-95" d="M0 21.051L39.75 0 60 10.526 20.25 31.577z" />
                    <path id="path-97" d="M0 21.051L39.75 0 60 10.526 20.25 31.577z" />
                    <path id="path-99" d="M0 21.051L39.75 0 60 10.526 20.25 31.577z" />
                    <path id="path-101" d="M0 21.051L39.75 0 60 10.526 20.25 31.577z" />
                    <path id="path-103" d="M0 21.051L39.75 0 60 10.526 20.25 31.577z" />
                    <path id="path-105" d="M0 21.051L39.75 0 60 10.526 20.25 31.577z" />
                    <path id="path-107" d="M0 21.051L39.75 0 60 10.526 20.25 31.577z" />
                    <path id="path-109" d="M0 21.051L39.75 0 60 10.526 20.25 31.577z" />
                    <path id="path-111" d="M0 21.051L39.75 0 60 10.526 20.25 31.577z" />
                    <path id="path-113" d="M0 21.051L39.75 0 60 10.526 20.25 31.577z" />
                    <path id="path-115" d="M0 21.051L39.75 0 60 10.526 20.25 31.577z" />
                    <path id="path-117" d="M0 21.051L39.75 0 60 10.526 20.25 31.577z" />
                    <path id="path-119" d="M0 21.051L39.75 0 60 10.526 20.25 31.577z" />
                    <path id="path-121" d="M0 21.051L39.75 0 60 10.526 20.25 31.577z" />
                    <path id="path-123" d="M0 21.051L39.75 0 60 10.526 20.25 31.577z" />
                    <path id="path-125" d="M0 21.051L39.75 0 60 10.526 20.25 31.577z" />
                    <path id="path-127" d="M0 21.051L39.75 0 60 10.526 20.25 31.577z" />
                    <path id="path-129" d="M0 21.051L39.75 0 60 10.526 20.25 31.577z" />
                    <path id="path-131" d="M0 20.788l40-20 20 9.738-40 21.262z" />
                    <path id="path-133" d="M0 20.788l40-20 20 9.738-40 21.262z" />
                    <path id="path-135" d="M0 20.788l40-20 20 9.738-40 21.262z" />
                    <path id="path-137" d="M0 20.788l40-20 20 9.738-40 21.262z" />
                    <path id="path-139" d="M0 20.788l40-20 20 9.738-40 21.262z" />
                    <path id="path-141" d="M0 20.788l40-20 20 9.738-40 21.262z" />
                    <path id="path-143" d="M0 20.788l40-20 20 9.738-40 21.262z" />
                    <path id="path-145" d="M0 20.788l40-20 20 9.738-40 21.262z" />
                    <path id="path-147" d="M0 20.788l40-20 20 9.738-40 21.262z" />
                    <path id="path-149" d="M0 20.788l40-20 20 9.738-40 21.262z" />
                    <path id="path-151" d="M0 20.788l40-20 20 9.738-40 21.262z" />
                    <path id="path-153" d="M0 20.788l40-20 20 9.738-40 21.262z" />
                    <path id="path-155" d="M0 20.788l40-20 20 9.738-40 21.262z" />
                    <path id="path-157" d="M0 20.788l40-20 20 9.738-40 21.262z" />
                    <path id="path-159" d="M0 20.788l40-20 20 9.738-40 21.262z" />
                  </defs>
                  <g id="Page-1" fill="none" fill-rule="evenodd">
                    <g id="onboard_money_stacks" transform="translate(0 -1)">
                      <g id="multi-stack" opacity="0" transform="translate(0 24)">
                        <path id="Path" stroke="#15A08F" stroke-width="2.25" fill="#16E1D0" opacity=".835" d="M85.421 36.254l17.824 9.264 37.334-19.771-17.824-9.265z" />
                        <path id="Path" stroke="#15A08F" stroke-width="2.25" d="M85.421 36.254l17.824 9.264 37.334-19.771-17.824-9.265z" />
                        <g id="Group" transform="translate(83 15.212)">
                          <g id="Clipped">
                            <mask id="mask-2" fill="#fff">
                              <use xlink:href="#path-1" />
                            </mask>
                            <ellipse id="Oval" fill="#12A08F" mask="url(#mask-2)" cx="30.375" cy="15.412" rx="8.625" ry="4.135" />
                          </g>
                        </g>
                        <g id="Group" transform="translate(83 15.212)">
                          <g id="Clipped">
                            <mask id="mask-4" fill="#fff">
                              <use xlink:href="#path-3" />
                            </mask>
                            <ellipse id="Oval" fill="#12A08F" mask="url(#mask-4)" cx="1.875" cy="21.427" rx="6.625" ry="3.135" />
                          </g>
                        </g>
                        <g id="Group" transform="translate(83 15.212)">
                          <g id="Clipped">
                            <mask id="mask-6" fill="#fff">
                              <use xlink:href="#path-5" />
                            </mask>
                            <ellipse id="Oval" fill="#12A08F" mask="url(#mask-6)" cx="20.625" cy="29.697" rx="6.625" ry="3.135" />
                          </g>
                        </g>
                        <g id="Group" transform="translate(83 15.212)">
                          <g id="Clipped">
                            <mask id="mask-8" fill="#fff">
                              <use xlink:href="#path-7" />
                            </mask>
                            <ellipse id="Oval" fill="#12A08F" mask="url(#mask-8)" cx="58.125" cy="10.901" rx="7.625" ry="3.135" />
                          </g>
                        </g>
                        <g id="Group" transform="translate(83 15.212)">
                          <g id="Clipped">
                            <mask id="mask-10" fill="#fff">
                              <use xlink:href="#path-9" />
                            </mask>
                            <ellipse id="Oval" fill="#12A08F" mask="url(#mask-10)" cx="40.125" cy="1.128" rx="6.625" ry="3.135" />
                          </g>
                        </g>
                        <path id="Path" fill="#14B4A7" d="M83 36.263l20.25 10.525v120.005L83 156.185z" />
                        <path id="Path" fill="#16E1D0" d="M143 25.737l-39.75 21.051v119.996L143 145.733z" />
                        <path id="Path" stroke="#15A08F" stroke-width="2.25" fill="#16E1D0" opacity=".835" d="M109.421 29.042l17.824 9.264 37.334-19.771-17.824-9.265z" />
                        <path id="Path" stroke="#15A08F" stroke-width="2.25" d="M109.421 29.042l17.824 9.264 37.334-19.771-17.824-9.265z" />
                        <g id="Group" transform="translate(107 8)">
                          <g id="Clipped">
                            <mask id="mask-12" fill="#fff">
                              <use xlink:href="#path-11" />
                            </mask>
                            <ellipse id="Oval" fill="#12A08F" mask="url(#mask-12)" cx="30.375" cy="15.412" rx="8.625"
                              ry="4.135" />
                          </g>
                        </g>
                        <g id="Group" transform="translate(107 8)">
                          <g id="Clipped">
                            <mask id="mask-14" fill="#fff">
                              <use xlink:href="#path-13" />
                            </mask>
                            <ellipse id="Oval" fill="#12A08F" mask="url(#mask-14)" cx="1.875" cy="21.427" rx="6.625" ry="3.135" />
                          </g>
                        </g>
                        <g id="Group" transform="translate(107 8)">
                          <g id="Clipped">
                            <mask id="mask-16" fill="#fff">
                              <use xlink:href="#path-15" />
                            </mask>
                            <ellipse id="Oval" fill="#12A08F" mask="url(#mask-16)" cx="20.625" cy="29.697" rx="6.625"
                              ry="3.135" />
                          </g>
                        </g>
                        <g id="Group" transform="translate(107 8)">
                          <g id="Clipped">
                            <mask id="mask-18" fill="#fff">
                              <use xlink:href="#path-17" />
                            </mask>
                            <ellipse id="Oval" fill="#12A08F" mask="url(#mask-18)" cx="58.125" cy="10.901" rx="7.625"
                              ry="3.135" />
                          </g>
                        </g>
                        <g id="Group" transform="translate(107 8)">
                          <g id="Clipped">
                            <mask id="mask-20" fill="#fff">
                              <use xlink:href="#path-19" />
                            </mask>
                            <ellipse id="Oval" fill="#12A08F" mask="url(#mask-20)" cx="40.125" cy="1.128" rx="6.625" ry="3.135" />
                          </g>
                        </g>
                        <g id="Group" transform="translate(143)">
                          <path id="Path" stroke="#15A08F" stroke-width="2.25" fill="#16E1D0" opacity=".835" d="M2.421 21.042l17.824 9.264 37.334-19.771L39.755 1.27z" />
                          <path id="Path" stroke="#15A08F" stroke-width="2.25" d="M2.421 21.042l17.824 9.264 37.334-19.771L39.755 1.27z" />
                          <g id="Clipped">
                            <mask id="mask-22" fill="#fff">
                              <use xlink:href="#path-21" />
                            </mask>
                            <ellipse id="Oval" fill="#12A08F" mask="url(#mask-22)" cx="30.375" cy="15.412" rx="8.625"
                              ry="4.135" />
                          </g>
                          <g id="Clipped">
                            <mask id="mask-24" fill="#fff">
                              <use xlink:href="#path-23" />
                            </mask>
                            <ellipse id="Oval" fill="#12A08F" mask="url(#mask-24)" cx="1.875" cy="21.427" rx="6.625" ry="3.135" />
                          </g>
                          <g id="Clipped">
                            <mask id="mask-26" fill="#fff">
                              <use xlink:href="#path-25" />
                            </mask>
                            <ellipse id="Oval" fill="#12A08F" mask="url(#mask-26)" cx="20.625" cy="29.697" rx="6.625"
                              ry="3.135" />
                          </g>
                          <g id="Clipped">
                            <mask id="mask-28" fill="#fff">
                              <use xlink:href="#path-27" />
                            </mask>
                            <ellipse id="Oval" fill="#12A08F" mask="url(#mask-28)" cx="58.125" cy="10.901" rx="7.625"
                              ry="3.135" />
                          </g>
                          <g id="Clipped">
                            <mask id="mask-30" fill="#fff">
                              <use xlink:href="#path-29" />
                            </mask>
                            <ellipse id="Oval" fill="#12A08F" mask="url(#mask-30)" cx="40.125" cy="1.128" rx="6.625" ry="3.135" />
                          </g>
                        </g>
                        <g id="Group" transform="translate(167 109)">
                          <path id="Path" stroke="#15A08F" stroke-width="2.25" fill="#16E1D0" opacity=".835" d="M2.421 21.254l17.824 9.264 37.334-19.771-17.824-9.265z" />
                          <path id="Path" stroke="#15A08F" stroke-width="2.25" d="M2.421 21.254l17.824 9.264 37.334-19.771-17.824-9.265z" />
                          <g transform="translate(0 .212)" id="Clipped">
                            <mask id="mask-32" fill="#fff">
                              <use xlink:href="#path-31" />
                            </mask>
                            <ellipse id="Oval" fill="#12A08F" mask="url(#mask-32)" cx="30.375" cy="15.412" rx="8.625"
                              ry="4.135" />
                          </g>
                          <g transform="translate(0 .212)" id="Clipped">
                            <mask id="mask-34" fill="#fff">
                              <use xlink:href="#path-33" />
                            </mask>
                            <ellipse id="Oval" fill="#12A08F" mask="url(#mask-34)" cx="1.875" cy="21.427" rx="6.625" ry="3.135" />
                          </g>
                          <g transform="translate(0 .212)" id="Clipped">
                            <mask id="mask-36" fill="#fff">
                              <use xlink:href="#path-35" />
                            </mask>
                            <ellipse id="Oval" fill="#12A08F" mask="url(#mask-36)" cx="20.625" cy="29.697" rx="6.625"
                              ry="3.135" />
                          </g>
                          <g transform="translate(0 .212)" id="Clipped">
                            <mask id="mask-38" fill="#fff">
                              <use xlink:href="#path-37" />
                            </mask>
                            <ellipse id="Oval" fill="#12A08F" mask="url(#mask-38)" cx="58.125" cy="10.901" rx="7.625"
                              ry="4.135" />
                          </g>
                          <g transform="translate(0 .212)" id="Clipped">
                            <mask id="mask-40" fill="#fff">
                              <use xlink:href="#path-39" />
                            </mask>
                            <ellipse id="Oval" fill="#12A08F" mask="url(#mask-40)" cx="40.125" cy="1.128" rx="6.625" ry="3.135" />
                          </g>
                          <path id="Path" fill="#14B4A7" d="M0 21.263l20.25 10.525v26.005L0 47.185z" />
                          <path id="Path" fill="#16E1D0" d="M60 10.737L20.25 31.788v25.996L60 36.733z" />
                        </g>
                        <g id="Group" transform="translate(249 89)">
                          <path id="Path" stroke="#15A08F" stroke-width="2.25" fill="#16E1D0" opacity=".835" d="M2.421 21.254l17.824 9.264 37.334-19.771-17.824-9.265z" />
                          <path id="Path" stroke="#15A08F" stroke-width="2.25" d="M2.421 21.254l17.824 9.264 37.334-19.771-17.824-9.265z" />
                          <g transform="translate(0 .212)" id="Clipped">
                            <mask id="mask-42" fill="#fff">
                              <use xlink:href="#path-41" />
                            </mask>
                            <ellipse id="Oval" fill="#12A08F" mask="url(#mask-42)" cx="30.375" cy="15.412" rx="8.625"
                              ry="4.135" />
                          </g>
                          <g transform="translate(0 .212)" id="Clipped">
                            <mask id="mask-44" fill="#fff">
                              <use xlink:href="#path-43" />
                            </mask>
                            <ellipse id="Oval" fill="#12A08F" mask="url(#mask-44)" cx="1.875" cy="21.427" rx="6.625" ry="3.135" />
                          </g>
                          <g transform="translate(0 .212)" id="Clipped">
                            <mask id="mask-46" fill="#fff">
                              <use xlink:href="#path-45" />
                            </mask>
                            <ellipse id="Oval" fill="#12A08F" mask="url(#mask-46)" cx="20.625" cy="29.697" rx="6.625"
                              ry="3.135" />
                          </g>
                          <g transform="translate(0 .212)" id="Clipped">
                            <mask id="mask-48" fill="#fff">
                              <use xlink:href="#path-47" />
                            </mask>
                            <ellipse id="Oval" fill="#12A08F" mask="url(#mask-48)" cx="58.125" cy="10.901" rx="7.625"
                              ry="4.135" />
                          </g>
                          <g transform="translate(0 .212)" id="Clipped">
                            <mask id="mask-50" fill="#fff">
                              <use xlink:href="#path-49" />
                            </mask>
                            <ellipse id="Oval" fill="#12A08F" mask="url(#mask-50)" cx="40.125" cy="1.128" rx="6.625" ry="3.135" />
                          </g>
                          <path id="Path" fill="#14B4A7" d="M0 21.263l20.25 10.525v46.005L0 67.185z" />
                          <path id="Path" fill="#16E1D0" d="M60 10.737L20.25 31.788v45.996L60 56.733z" />
                        </g>
                        <g id="Group" transform="translate(0 118)">
                          <path id="Path" fill="#14B4A7" d="M0 21l20 11v17L0 38z" />
                          <path id="Path" fill="#16E1D0" d="M60 10.737L20 32v17l40-21z" />
                          <path id="Path" stroke="#15A08F" stroke-width="2.25" fill="#16E1D0" d="M2.421 21.048l17.588 9.673 37.511-19.94-17.513-8.526z" />
                          <g transform="translate(0 .212)" id="Clipped">
                            <mask id="mask-52" fill="#fff">
                              <use xlink:href="#path-51" />
                            </mask>
                            <ellipse id="Oval" fill="#12A08F" mask="url(#mask-52)" cx="30.375" cy="15.412" rx="8.625"
                              ry="4.135" />
                          </g>
                          <g transform="translate(0 .212)" id="Clipped">
                            <mask id="mask-54" fill="#fff">
                              <use xlink:href="#path-53" />
                            </mask>
                            <ellipse id="Oval" fill="#12A08F" mask="url(#mask-54)" cx="1.875" cy="21.427" rx="6.625" ry="3.135" />
                          </g>
                          <g transform="translate(0 .212)" id="Clipped">
                            <mask id="mask-56" fill="#fff">
                              <use xlink:href="#path-55" />
                            </mask>
                            <ellipse id="Oval" fill="#12A08F" mask="url(#mask-56)" cx="20.625" cy="29.697" rx="6.625"
                              ry="3.135" />
                          </g>
                          <g transform="translate(0 .212)" id="Clipped">
                            <mask id="mask-58" fill="#fff">
                              <use xlink:href="#path-57" />
                            </mask>
                            <ellipse id="Oval" fill="#12A08F" mask="url(#mask-58)" cx="58.125" cy="10.901" rx="7.625"
                              ry="3.135" />
                          </g>
                          <g transform="translate(0 .212)" id="Clipped">
                            <mask id="mask-60" fill="#fff">
                              <use xlink:href="#path-59" />
                            </mask>
                            <ellipse id="Oval" fill="#12A08F" mask="url(#mask-60)" cx="40.125" cy="1.128" rx="8.625" ry="4.135" />
                          </g>
                        </g>
                        <g id="Group" transform="translate(167 93)">
                          <path id="Path" stroke="#15A08F" stroke-width="2.25" fill="#16E1D0" opacity=".835" d="M2.421 21.042l17.824 9.264 37.334-19.771L39.755 1.27z" />
                          <path id="Path" stroke="#15A08F" stroke-width="2.25" d="M2.421 21.042l17.824 9.264 37.334-19.771L39.755 1.27z" />
                          <g id="Clipped">
                            <mask id="mask-62" fill="#fff">
                              <use xlink:href="#path-61" />
                            </mask>
                            <ellipse id="Oval" fill="#12A08F" mask="url(#mask-62)" cx="30.375" cy="15.412" rx="8.625"
                              ry="4.135" />
                          </g>
                          <g id="Clipped">
                            <mask id="mask-64" fill="#fff">
                              <use xlink:href="#path-63" />
                            </mask>
                            <ellipse id="Oval" fill="#12A08F" mask="url(#mask-64)" cx="1.875" cy="21.427" rx="6.625" ry="3.135" />
                          </g>
                          <g id="Clipped">
                            <mask id="mask-66" fill="#fff">
                              <use xlink:href="#path-65" />
                            </mask>
                            <ellipse id="Oval" fill="#12A08F" mask="url(#mask-66)" cx="20.625" cy="29.697" rx="6.625"
                              ry="3.135" />
                          </g>
                          <g id="Clipped">
                            <mask id="mask-68" fill="#fff">
                              <use xlink:href="#path-67" />
                            </mask>
                            <ellipse id="Oval" fill="#12A08F" mask="url(#mask-68)" cx="58.125" cy="10.901" rx="7.625"
                              ry="3.135" />
                          </g>
                          <g id="Clipped">
                            <mask id="mask-70" fill="#fff">
                              <use xlink:href="#path-69" />
                            </mask>
                            <ellipse id="Oval" fill="#12A08F" mask="url(#mask-70)" cx="40.125" cy="1.128" rx="6.625" ry="3.135" />
                          </g>
                        </g>
                        <g id="Group" transform="translate(167 62)">
                          <path id="Path" stroke="#15A08F" stroke-width="2.25" fill="#16E1D0" opacity=".835" d="M2.421 21.042l17.824 9.264 37.334-19.771L39.755 1.27z" />
                          <path id="Path" stroke="#15A08F" stroke-width="2.25" d="M2.421 21.042l17.824 9.264 37.334-19.771L39.755 1.27z" />
                          <g id="Clipped">
                            <mask id="mask-72" fill="#fff">
                              <use xlink:href="#path-71" />
                            </mask>
                            <ellipse id="Oval" fill="#12A08F" mask="url(#mask-72)" cx="30.375" cy="15.412" rx="8.625"
                              ry="4.135" />
                          </g>
                          <g id="Clipped">
                            <mask id="mask-74" fill="#fff">
                              <use xlink:href="#path-73" />
                            </mask>
                            <ellipse id="Oval" fill="#12A08F" mask="url(#mask-74)" cx="1.875" cy="21.427" rx="6.625" ry="3.135" />
                          </g>
                          <g id="Clipped">
                            <mask id="mask-76" fill="#fff">
                              <use xlink:href="#path-75" />
                            </mask>
                            <ellipse id="Oval" fill="#12A08F" mask="url(#mask-76)" cx="20.625" cy="29.697" rx="6.625"
                              ry="3.135" />
                          </g>
                          <g id="Clipped">
                            <mask id="mask-78" fill="#fff">
                              <use xlink:href="#path-77" />
                            </mask>
                            <ellipse id="Oval" fill="#12A08F" mask="url(#mask-78)" cx="58.125" cy="10.901" rx="7.625"
                              ry="3.135" />
                          </g>
                          <g id="Clipped">
                            <mask id="mask-80" fill="#fff">
                              <use xlink:href="#path-79" />
                            </mask>
                            <ellipse id="Oval" fill="#12A08F" mask="url(#mask-80)" cx="40.125" cy="1.128" rx="6.625" ry="3.135" />
                          </g>
                        </g>
                        <g id="Group" transform="translate(167 24)">
                          <path id="Path" stroke="#15A08F" stroke-width="2.25" fill="#16E1D0" opacity=".835" d="M2.421 21.042l17.824 9.264 37.334-19.771L39.755 1.27z" />
                          <path id="Path" stroke="#15A08F" stroke-width="2.25" d="M2.421 21.042l17.824 9.264 37.334-19.771L39.755 1.27z" />
                          <g id="Clipped">
                            <mask id="mask-82" fill="#fff">
                              <use xlink:href="#path-81" />
                            </mask>
                            <ellipse id="Oval" fill="#12A08F" mask="url(#mask-82)" cx="30.375" cy="15.412" rx="8.625"
                              ry="4.135" />
                          </g>
                          <g id="Clipped">
                            <mask id="mask-84" fill="#fff">
                              <use xlink:href="#path-83" />
                            </mask>
                            <ellipse id="Oval" fill="#12A08F" mask="url(#mask-84)" cx="1.875" cy="21.427" rx="6.625" ry="3.135" />
                          </g>
                          <g id="Clipped">
                            <mask id="mask-86" fill="#fff">
                              <use xlink:href="#path-85" />
                            </mask>
                            <ellipse id="Oval" fill="#12A08F" mask="url(#mask-86)" cx="20.625" cy="29.697" rx="6.625"
                              ry="3.135" />
                          </g>
                          <g id="Clipped">
                            <mask id="mask-88" fill="#fff">
                              <use xlink:href="#path-87" />
                            </mask>
                            <ellipse id="Oval" fill="#12A08F" mask="url(#mask-88)" cx="58.125" cy="10.901" rx="7.625"
                              ry="3.135" />
                          </g>
                          <g id="Clipped">
                            <mask id="mask-90" fill="#fff">
                              <use xlink:href="#path-89" />
                            </mask>
                            <ellipse id="Oval" fill="#12A08F" mask="url(#mask-90)" cx="40.125" cy="1.128" rx="6.625" ry="3.135" />
                          </g>
                        </g>
                        <g id="Group" transform="translate(249 79)">
                          <path id="Path" stroke="#15A08F" stroke-width="2.25" fill="#16E1D0" opacity=".835" d="M2.421 21.042l17.824 9.264 37.334-19.771L39.755 1.27z" />
                          <path id="Path" stroke="#15A08F" stroke-width="2.25" d="M2.421 21.042l17.824 9.264 37.334-19.771L39.755 1.27z" />
                          <g id="Clipped">
                            <mask id="mask-92" fill="#fff">
                              <use xlink:href="#path-91" />
                            </mask>
                            <ellipse id="Oval" fill="#12A08F" mask="url(#mask-92)" cx="30.375" cy="15.412" rx="8.625"
                              ry="4.135" />
                          </g>
                          <g id="Clipped">
                            <mask id="mask-94" fill="#fff">
                              <use xlink:href="#path-93" />
                            </mask>
                            <ellipse id="Oval" fill="#12A08F" mask="url(#mask-94)" cx="1.875" cy="21.427" rx="6.625" ry="3.135" />
                          </g>
                          <g id="Clipped">
                            <mask id="mask-96" fill="#fff">
                              <use xlink:href="#path-95" />
                            </mask>
                            <ellipse id="Oval" fill="#12A08F" mask="url(#mask-96)" cx="20.625" cy="29.697" rx="6.625"
                              ry="3.135" />
                          </g>
                          <g id="Clipped">
                            <mask id="mask-98" fill="#fff">
                              <use xlink:href="#path-97" />
                            </mask>
                            <ellipse id="Oval" fill="#12A08F" mask="url(#mask-98)" cx="58.125" cy="10.901" rx="7.625"
                              ry="3.135" />
                          </g>
                          <g id="Clipped">
                            <mask id="mask-100" fill="#fff">
                              <use xlink:href="#path-99" />
                            </mask>
                            <ellipse id="Oval" fill="#12A08F" mask="url(#mask-100)" cx="40.125" cy="1.128" rx="6.625"
                              ry="3.135" />
                          </g>
                        </g>
                        <g id="Group" transform="translate(249 66)">
                          <path id="Path" stroke="#15A08F" stroke-width="2.25" fill="#16E1D0" opacity=".835" d="M2.421 21.042l17.824 9.264 37.334-19.771L39.755 1.27z" />
                          <path id="Path" stroke="#15A08F" stroke-width="2.25" d="M2.421 21.042l17.824 9.264 37.334-19.771L39.755 1.27z" />
                          <g id="Clipped">
                            <mask id="mask-102" fill="#fff">
                              <use xlink:href="#path-101" />
                            </mask>
                            <ellipse id="Oval" fill="#12A08F" mask="url(#mask-102)" cx="30.375" cy="15.412" rx="8.625"
                              ry="4.135" />
                          </g>
                          <g id="Clipped">
                            <mask id="mask-104" fill="#fff">
                              <use xlink:href="#path-103" />
                            </mask>
                            <ellipse id="Oval" fill="#12A08F" mask="url(#mask-104)" cx="1.875" cy="21.427" rx="6.625"
                              ry="3.135" />
                          </g>
                          <g id="Clipped">
                            <mask id="mask-106" fill="#fff">
                              <use xlink:href="#path-105" />
                            </mask>
                            <ellipse id="Oval" fill="#12A08F" mask="url(#mask-106)" cx="20.625" cy="29.697" rx="6.625"
                              ry="3.135" />
                          </g>
                          <g id="Clipped">
                            <mask id="mask-108" fill="#fff">
                              <use xlink:href="#path-107" />
                            </mask>
                            <ellipse id="Oval" fill="#12A08F" mask="url(#mask-108)" cx="58.125" cy="10.901" rx="7.625"
                              ry="3.135" />
                          </g>
                          <g id="Clipped">
                            <mask id="mask-110" fill="#fff">
                              <use xlink:href="#path-109" />
                            </mask>
                            <ellipse id="Oval" fill="#12A08F" mask="url(#mask-110)" cx="40.125" cy="1.128" rx="6.625"
                              ry="3.135" />
                          </g>
                        </g>
                        <g id="Group" transform="translate(239 46)">
                          <path id="Path" stroke="#15A08F" stroke-width="2.25" fill="#16E1D0" opacity=".835" d="M2.421 21.042l17.824 9.264 37.334-19.771L39.755 1.27z" />
                          <path id="Path" stroke="#15A08F" stroke-width="2.25" d="M2.421 21.042l17.824 9.264 37.334-19.771L39.755 1.27z" />
                          <g id="Clipped">
                            <mask id="mask-112" fill="#fff">
                              <use xlink:href="#path-111" />
                            </mask>
                            <ellipse id="Oval" fill="#12A08F" mask="url(#mask-112)" cx="30.375" cy="15.412" rx="8.625"
                              ry="4.135" />
                          </g>
                          <g id="Clipped">
                            <mask id="mask-114" fill="#fff">
                              <use xlink:href="#path-113" />
                            </mask>
                            <ellipse id="Oval" fill="#12A08F" mask="url(#mask-114)" cx="1.875" cy="21.427" rx="6.625"
                              ry="3.135" />
                          </g>
                          <g id="Clipped">
                            <mask id="mask-116" fill="#fff">
                              <use xlink:href="#path-115" />
                            </mask>
                            <ellipse id="Oval" fill="#12A08F" mask="url(#mask-116)" cx="20.625" cy="29.697" rx="6.625"
                              ry="3.135" />
                          </g>
                          <g id="Clipped">
                            <mask id="mask-118" fill="#fff">
                              <use xlink:href="#path-117" />
                            </mask>
                            <ellipse id="Oval" fill="#12A08F" mask="url(#mask-118)" cx="58.125" cy="10.901" rx="7.625"
                              ry="3.135" />
                          </g>
                          <g id="Clipped">
                            <mask id="mask-120" fill="#fff">
                              <use xlink:href="#path-119" />
                            </mask>
                            <ellipse id="Oval" fill="#12A08F" mask="url(#mask-120)" cx="40.125" cy="1.128" rx="6.625"
                              ry="3.135" />
                          </g>
                        </g>
                      </g>
                      <g id="single-stack" transform="translate(125)">
                        <path id="Path" stroke="#15A08F" stroke-width="2.25" fill="#16E1D0" opacity=".835" d="M2.421 135.254l17.824 9.264 37.334-19.771-17.824-9.265z" />
                        <path id="Path" stroke="#15A08F" stroke-width="2.25" fill="#16E1D0" d="M2.421 135.254l17.824 9.264 37.334-19.771-17.824-9.265z" />
                        <g id="Group" transform="translate(0 114.212)">
                          <g id="Clipped">
                            <mask id="mask-122" fill="#fff">
                              <use xlink:href="#path-121" />
                            </mask>
                            <ellipse id="Oval" fill="#12A08F" mask="url(#mask-122)" cx="30.375" cy="15.412" rx="8.625"
                              ry="4.135" />
                          </g>
                        </g>
                        <g id="Group" transform="translate(0 114.212)">
                          <g id="Clipped">
                            <mask id="mask-124" fill="#fff">
                              <use xlink:href="#path-123" />
                            </mask>
                            <ellipse id="Oval" fill="#12A08F" mask="url(#mask-124)" cx="1.875" cy="21.427" rx="6.625"
                              ry="3.135" />
                          </g>
                        </g>
                        <g id="Group" transform="translate(0 114.212)">
                          <g id="Clipped">
                            <mask id="mask-126" fill="#fff">
                              <use xlink:href="#path-125" />
                            </mask>
                            <ellipse id="Oval" fill="#12A08F" mask="url(#mask-126)" cx="20.625" cy="29.697" rx="6.625"
                              ry="3.135" />
                          </g>
                        </g>
                        <g id="Group" transform="translate(0 114.212)">
                          <g id="Clipped">
                            <mask id="mask-128" fill="#fff">
                              <use xlink:href="#path-127" />
                            </mask>
                            <ellipse id="Oval" fill="#12A08F" mask="url(#mask-128)" cx="58.125" cy="10.901" rx="7.625"
                              ry="3.135" />
                          </g>
                        </g>
                        <g id="Group" transform="translate(0 114.212)">
                          <g id="Clipped">
                            <mask id="mask-130" fill="#fff">
                              <use xlink:href="#path-129" />
                            </mask>
                            <ellipse id="Oval" fill="#12A08F" mask="url(#mask-130)" cx="40.125" cy="1.128" rx="6.625"
                              ry="3.135" />
                          </g>
                        </g>
                        <path id="Path" fill="#14B4A7" d="M0 135.263l20.25 10.525v46.005L0 181.185z" />
                        <path id="Path" fill="#16E1D0" d="M60 124.737l-39.75 21.051v45.996L60 170.733z" />
                        <g id="Group" opacity=".33" transform="translate(0 114)" fill="#000">
                          <path id="Path" d="M0 21.263L39.75.212 60 10.737 20.25 31.788z" />
                        </g>
                        <g id="Group" transform="translate(0 66)">
                          <path id="Path" fill="#14B4A7" d="M0 21l20 11v40L0 61z" />
                          <path id="Path" fill="#16E1D0" d="M60 10.737L20 32v40l40-21z" />
                          <path id="Path" stroke="#15A08F" stroke-width="2.25" fill="#16E1D0" d="M2.421 21.048l17.588 9.673 37.511-19.94-17.513-8.526z" />
                          <g transform="translate(0 .212)" id="Clipped">
                            <mask id="mask-132" fill="#fff">
                              <use xlink:href="#path-131" />
                            </mask>
                            <ellipse id="Oval" fill="#12A08F" mask="url(#mask-132)" cx="30.375" cy="15.412" rx="8.625"
                              ry="4.135" />
                          </g>
                          <g transform="translate(0 .212)" id="Clipped">
                            <mask id="mask-134" fill="#fff">
                              <use xlink:href="#path-133" />
                            </mask>
                            <ellipse id="Oval" fill="#12A08F" mask="url(#mask-134)" cx="1.875" cy="21.427" rx="6.625"
                              ry="3.135" />
                          </g>
                          <g transform="translate(0 .212)" id="Clipped">
                            <mask id="mask-136" fill="#fff">
                              <use xlink:href="#path-135" />
                            </mask>
                            <ellipse id="Oval" fill="#12A08F" mask="url(#mask-136)" cx="20.625" cy="29.697" rx="6.625"
                              ry="3.135" />
                          </g>
                          <g transform="translate(0 .212)" id="Clipped">
                            <mask id="mask-138" fill="#fff">
                              <use xlink:href="#path-137" />
                            </mask>
                            <ellipse id="Oval" fill="#12A08F" mask="url(#mask-138)" cx="58.125" cy="10.901" rx="7.625"
                              ry="3.135" />
                          </g>
                          <g transform="translate(0 .212)" id="Clipped">
                            <mask id="mask-140" fill="#fff">
                              <use xlink:href="#path-139" />
                            </mask>
                            <ellipse id="Oval" fill="#12A08F" mask="url(#mask-140)" cx="40.125" cy="1.128" rx="8.625"
                              ry="4.135" />
                          </g>
                          <path d="M0 20L40 0l20 9.737L20 31z" transform="translate(0 1)" opacity=".33" fill="#000" id="Path" />
                        </g>
                        <g id="Group" transform="translate(0 26)">
                          <path id="Path" fill="#14B4A7" d="M0 21l20 11v31L0 52z" />
                          <path id="Path" fill="#16E1D0" d="M60 10.737L20 32v31l40-21z" />
                          <path id="Path" stroke="#15A08F" stroke-width="2.25" fill="#16E1D0" d="M2.421 21.048l17.588 9.673 37.511-19.94-17.513-8.526z" />
                          <g transform="translate(0 .212)" id="Clipped">
                            <mask id="mask-142" fill="#fff">
                              <use xlink:href="#path-141" />
                            </mask>
                            <ellipse id="Oval" fill="#12A08F" mask="url(#mask-142)" cx="30.375" cy="15.412" rx="8.625"
                              ry="4.135" />
                          </g>
                          <g transform="translate(0 .212)" id="Clipped">
                            <mask id="mask-144" fill="#fff">
                              <use xlink:href="#path-143" />
                            </mask>
                            <ellipse id="Oval" fill="#12A08F" mask="url(#mask-144)" cx="1.875" cy="21.427" rx="6.625"
                              ry="3.135" />
                          </g>
                          <g transform="translate(0 .212)" id="Clipped">
                            <mask id="mask-146" fill="#fff">
                              <use xlink:href="#path-145" />
                            </mask>
                            <ellipse id="Oval" fill="#12A08F" mask="url(#mask-146)" cx="20.625" cy="29.697" rx="6.625"
                              ry="3.135" />
                          </g>
                          <g transform="translate(0 .212)" id="Clipped">
                            <mask id="mask-148" fill="#fff">
                              <use xlink:href="#path-147" />
                            </mask>
                            <ellipse id="Oval" fill="#12A08F" mask="url(#mask-148)" cx="58.125" cy="10.901" rx="7.625"
                              ry="3.135" />
                          </g>
                          <g transform="translate(0 .212)" id="Clipped">
                            <mask id="mask-150" fill="#fff">
                              <use xlink:href="#path-149" />
                            </mask>
                            <ellipse id="Oval" fill="#12A08F" mask="url(#mask-150)" cx="40.125" cy="1.128" rx="8.625"
                              ry="4.135" />
                          </g>
                          <path d="M0 20L40 0l20 9.737L20 31z" transform="translate(0 1)" opacity=".33" fill="#000" id="Path" />
                        </g>
                        <g id="Group">
                          <path id="Path" fill="#14B4A7" d="M0 21l20 11v17L0 38z" />
                          <path id="Path" fill="#16E1D0" d="M60 10.737L20 32v17l40-21z" />
                          <path id="Path" stroke="#15A08F" stroke-width="2.25" fill="#16E1D0" d="M2.421 21.048l17.588 9.673L57.52 10.78 40.007 2.254z" />
                          <g transform="translate(0 .212)" id="Clipped">
                            <mask id="mask-152" fill="#fff">
                              <use xlink:href="#path-151" />
                            </mask>
                            <ellipse id="Oval" fill="#12A08F" mask="url(#mask-152)" cx="30.375" cy="15.412" rx="8.625"
                              ry="4.135" />
                          </g>
                          <g transform="translate(0 .212)" id="Clipped">
                            <mask id="mask-154" fill="#fff">
                              <use xlink:href="#path-153" />
                            </mask>
                            <ellipse id="Oval" fill="#12A08F" mask="url(#mask-154)" cx="1.875" cy="21.427" rx="6.625"
                              ry="3.135" />
                          </g>
                          <g transform="translate(0 .212)" id="Clipped">
                            <mask id="mask-156" fill="#fff">
                              <use xlink:href="#path-155" />
                            </mask>
                            <ellipse id="Oval" fill="#12A08F" mask="url(#mask-156)" cx="20.625" cy="29.697" rx="6.625"
                              ry="3.135" />
                          </g>
                          <g transform="translate(0 .212)" id="Clipped">
                            <mask id="mask-158" fill="#fff">
                              <use xlink:href="#path-157" />
                            </mask>
                            <ellipse id="Oval" fill="#12A08F" mask="url(#mask-158)" cx="58.125" cy="10.901" rx="7.625"
                              ry="3.135" />
                          </g>
                          <g transform="translate(0 .212)" id="Clipped">
                            <mask id="mask-160" fill="#fff">
                              <use xlink:href="#path-159" />
                            </mask>
                            <ellipse id="Oval" fill="#12A08F" mask="url(#mask-160)" cx="40.125" cy="1.128" rx="8.625"
                              ry="4.135" />
                          </g>
                        </g>
                      </g>
                    </g>
                  </g>
                </svg>