<svg id="Layer_1" xmlns="http://www.w3.org/2000/svg" viewBox="0 0 245 256" enable-background="new 0 0 245 256">
  <style>
    .st1{fill:#fff}.st3{fill:#ffa9ea}.st8{fill:#ea4dc3}
  </style>
  <text transform="translate(100 400)">
    <tspan x="0" y="0" font-family="MyriadPro-Regular" font-size="12">$text-input-placeholder-color</tspan><tspan x="148.5" y="0" font-family="MyriadPro-Regular" font-size="12" letter-spacing="28"> </tspan><tspan x="180" y="0" font-family="MyriadPro-Regular" font-size="12">#999</tspan>
  </text>
  <text transform="translate(100 400)">
    <tspan x="0" y="0" font-family="MyriadPro-Regular" font-size="12">$text-input-placeholder-color</tspan><tspan x="148.5" y="0" font-family="MyriadPro-Regular" font-size="12" letter-spacing="28"> </tspan><tspan x="180" y="0" font-family="MyriadPro-Regular" font-size="12">#999</tspan>
  </text>
  <g id="Child---Login">
    <g id="Child-_x2F_-Account-_x2F_-Balance-Copy" transform="translate(-65 -537)">
      <g id="Group-28" transform="translate(65 537)">
        <g id="Group-3" transform="translate(0 14)">
          <defs>
            <filter id="Adobe_OpacityMaskFilter" filterUnits="userSpaceOnUse" x="0" y="-.2" width="245" height="230">
              <feColorMatrix values="1 0 0 0 0 0 1 0 0 0 0 0 1 0 0 0 0 0 1 0"/>
            </filter>
          </defs>
          <mask maskUnits="userSpaceOnUse" x="0" y="-.2" width="245" height="230" id="mask-2">
            <g filter="url(#Adobe_OpacityMaskFilter)">
              <path id="path-1" class="st1" d="M0-.2h245v230H0z"/>
            </g>
          </mask>
          <path id="Fill-1" d="M245 114.8c0 63.5-54.8 115-122.5 115S0 178.3 0 114.8 54.8-.2 122.5-.2 245 51.3 245 114.8" mask="url(#mask-2)" fill="#ffa9ea"/>
        </g>
        <path id="Fill-4" class="st3" d="M71 250.8H39.4l-14.4-58h46z"/>
        <path id="Fill-6" class="st3" d="M71 252.8c0 1.7-6.9 3-15.5 3s-15.5-1.3-15.5-3 6.9-3 15.5-3 15.5 1.3 15.5 3"/>
        <path id="Fill-8" class="st3" d="M175 250.8h31.6l14.4-58h-46z"/>
        <path id="Fill-10" class="st3" d="M175 252.8c0 1.7 6.9 3 15.5 3s15.5-1.3 15.5-3-6.9-3-15.5-3-15.5 1.3-15.5 3"/>
        <g id="Group-14" transform="translate(9)">
          <defs>
            <filter id="Adobe_OpacityMaskFilter_1_" filterUnits="userSpaceOnUse" x=".6" y="0" width="65.8" height="62.5">
              <feColorMatrix values="1 0 0 0 0 0 1 0 0 0 0 0 1 0 0 0 0 0 1 0"/>
            </filter>
          </defs>
          <mask maskUnits="userSpaceOnUse" x=".6" y="0" width="65.8" height="62.5" id="mask-4">
            <g filter="url(#Adobe_OpacityMaskFilter_1_)">
              <path id="path-3" class="st1" d="M.6 0h65.8v62.5H.6z"/>
            </g>
          </mask>
          <path id="Fill-12" d="M66.4 26.5C47.8 4.2 22.4-6 8.9 3.7s-10.1 35.7 7.4 58.8l50.1-36z" mask="url(#mask-4)" fill="#ffa9ea"/>
        </g>
        <g id="Group-17" transform="translate(165)">
          <defs>
            <filter id="Adobe_OpacityMaskFilter_2_" filterUnits="userSpaceOnUse" x=".6" y="0" width="65.8" height="62.5">
              <feColorMatrix values="1 0 0 0 0 0 1 0 0 0 0 0 1 0 0 0 0 0 1 0"/>
            </filter>
          </defs>
          <mask maskUnits="userSpaceOnUse" x=".6" y="0" width="65.8" height="62.5" id="mask-6">
            <g filter="url(#Adobe_OpacityMaskFilter_2_)">
              <path id="path-5" class="st1" d="M.6 0h65.8v62.5H.6z"/>
            </g>
          </mask>
          <path id="Fill-15" d="M.6 26.5C19.2 4.2 44.6-6 58.1 3.7s10.1 35.7-7.4 58.8L.6 26.5z" mask="url(#mask-6)" fill="#ffa9ea"/>
        </g>
        <path id="Fill-18" class="st8" d="M156 132.3c0 17.4-15 31.5-33.5 31.5S89 149.7 89 132.3s15-31.5 33.5-31.5 33.5 14.1 33.5 31.5"/>
        <path id="Fill-20" class="st8" d="M92 73.3c0 2.5-2 4.5-4.5 4.5s-4.5-2-4.5-4.5 2-4.5 4.5-4.5 4.5 2 4.5 4.5"/>
        <path id="Fill-22" class="st8" d="M162 73.3c0 2.5-2 4.5-4.5 4.5s-4.5-2-4.5-4.5 2-4.5 4.5-4.5 4.5 2 4.5 4.5"/>
        <path id="Fill-24" class="st3" d="M113 140.8c-4.9 0-9-3.4-9-7.5v-1.9c0-4.1 4.1-7.5 9-7.5s9 3.4 9 7.5v1.9c0 4.1-4.1 7.5-9 7.5"/>
        <path id="Fill-26" class="st3" d="M135 140.8c-4.9 0-9-3.4-9-7.5v-1.9c0-4.1 4.1-7.5 9-7.5s9 3.4 9 7.5v1.9c0 4.1-4.1 7.5-9 7.5"/>
      </g>
    </g>
  </g>
</svg>
