<?xml version="1.0" encoding="UTF-8"?>
<svg width="76px" height="82px" viewBox="0 0 76 82" version="1.1" xmlns="http://www.w3.org/2000/svg" xmlns:xlink="http://www.w3.org/1999/xlink">
    <!-- Generator: Sketch 52.5 (67469) - http://www.bohemiancoding.com/sketch -->
    <title>Pygg</title>
    <desc>Created with Sketch.</desc>
    <defs>
        <polygon id="path-1" points="0 0 75.9999782 0 75.9999782 76 0 76"></polygon>
        <polygon id="path-3" points="0.188978531 0.06890625 20.8109784 0.06890625 20.8109784 20.8948031 0.188978531 20.8948031"></polygon>
        <polygon id="path-5" points="0.189 0.06890625 20.8109998 0.06890625 20.8109998 20.8948031 0.189 20.8948031"></polygon>
    </defs>
    <g id="Child/Onboarding" stroke="none" stroke-width="1" fill="none" fill-rule="evenodd">
        <g id="Child/Onboarding-2" transform="translate(-150.000000, -104.000000)">
            <g id="Pygg" transform="translate(150.000000, 104.000000)">
                <g id="Group-3" transform="translate(0.000000, 6.000000)">
                    <mask id="mask-2" fill="white">
                        <use xlink:href="#path-1"></use>
                    </mask>
                    <g id="Clip-2"></g>
                    <path d="M75.9999782,38 C75.9999782,58.9869195 58.9868977,76 37.9999782,76 C17.0130586,76 -2.18390805e-05,58.9869195 -2.18390805e-05,38 C-2.18390805e-05,17.0130805 17.0130586,0 37.9999782,0 C58.9868977,0 75.9999782,17.0130805 75.9999782,38" id="Fill-1" fill="#FFA9EA" mask="url(#mask-2)"></path>
                </g>
                <g id="Group-6" transform="translate(3.000000, 0.000000)">
                    <mask id="mask-4" fill="white">
                        <use xlink:href="#path-3"></use>
                    </mask>
                    <g id="Clip-5"></g>
                    <path d="M20.8109784,8.90358438 C14.9744938,1.46630312 7.00726701,-1.94204063 2.7782567,1.28824063 C-1.4509701,4.51852188 -0.378238144,13.1928344 5.11185464,20.8948031 L20.8109784,8.90358438 Z" id="Fill-4" fill="#FFA9EA" mask="url(#mask-4)"></path>
                </g>
                <g id="Group-9" transform="translate(51.000000, 0.000000)">
                    <mask id="mask-6" fill="white">
                        <use xlink:href="#path-5"></use>
                    </mask>
                    <g id="Clip-8"></g>
                    <path d="M0.189,8.90358438 C6.02548454,1.46630312 13.9927113,-1.94204063 18.2217216,1.28824063 C22.4509485,4.51852188 21.3782165,13.1928344 15.8881237,20.8948031 L0.189,8.90358438 Z" id="Fill-7" fill="#FFA9EA" mask="url(#mask-6)"></path>
                </g>
                <path d="M49,43.5 C49,49.2990309 44.2990309,54 38.5,54 C32.7009691,54 28,49.2990309 28,43.5 C28,37.7009691 32.7009691,33 38.5,33 C44.2990309,33 49,37.7009691 49,43.5" id="Fill-10" fill="#EA4DC3"></path>
                <path d="M29,25.5 C29,26.32825 28.3285,27 27.5,27 C26.67175,27 26,26.32825 26,25.5 C26,24.67175 26.67175,24 27.5,24 C28.3285,24 29,24.67175 29,25.5" id="Fill-12" fill="#EA4DC3"></path>
                <path d="M51,25.5 C51,26.32825 50.3285,27 49.5,27 C48.67175,27 48,26.32825 48,25.5 C48,24.67175 48.67175,24 49.5,24 C50.3285,24 51,24.67175 51,25.5" id="Fill-14" fill="#EA4DC3"></path>
                <path d="M35,47 C33.35,47 32,45.8038984 32,44.3419965 L32,43.6580035 C32,42.1963231 33.35,41 35,41 C36.65,41 38,42.1963231 38,43.6580035 L38,44.3419965 C38,45.8038984 36.65,47 35,47" id="Fill-16" fill="#FFA9EA"></path>
                <path d="M42,47 C40.35,47 39,45.8038984 39,44.3419965 L39,43.6580035 C39,42.1963231 40.35,41 42,41 C43.65,41 45,42.1963231 45,43.6580035 L45,44.3419965 C45,45.8038984 43.65,47 42,47" id="Fill-18" fill="#FFA9EA"></path>
            </g>
        </g>
    </g>
</svg>