<svg width="337" height="290" xmlns="http://www.w3.org/2000/svg">
  <g fill="none" fill-rule="evenodd">
    <path d="M182.129 280.441c74.834 0 133.168-56.386 133.168-131.22 0-74.835-63.162-138.608-137.997-138.608-74.834 0-132.035 55.002-132.035 129.836 0 74.835 62.029 139.992 136.864 139.992z" fill="#FAF700"/>
    <path d="M106.66 265.8c63.463 39.657 152.129 22.527 191.785-40.937 39.656-63.463 21.768-159.68-41.695-199.336-26.219-16.383-60.895-24.35-88.278-22.246-38.898 2.99-92.125 31.412-115.398 68.657C13.418 135.4 43.196 226.144 106.66 265.8z" stroke="#FAF700" stroke-width="4"/>
    <path d="M36.22 134.572l11.35-6.553 57 98.727-11.337 6.545c-2.822-4.886-9.127-6.528-14.084-3.666-4.957 2.862-6.688 9.143-3.867 14.03l-11.337 6.546-57-98.727 11.35-6.553c2.942 4.529 9.004 5.978 13.802 3.208 4.799-2.77 6.574-8.745 4.123-13.557z" fill="#FF9797"/>
    <path stroke="#CE5C5C" stroke-width="3" d="M59.001 227.728l-34.528-59.805 27.634-15.955 34.528 59.805z"/>
    <path d="M14.812 164.007l40.624-23.454m1.887 97.087l40.624-23.455" stroke="#CE5C5C" stroke-width="3" stroke-dasharray="3"/>
    <g>
      <path d="M18.945 180.298l7.328-10.865 94.51 63.748-7.32 10.853c-4.678-3.155-11.065-1.867-14.266 2.879-3.2 4.745-2.003 11.15 2.675 14.305l-7.32 10.853-94.51-63.748 7.328-10.865c4.63 2.78 10.713 1.426 13.812-3.168 3.098-4.593 2.075-10.742-2.237-13.992z" fill="#FF9797"/>
      <path stroke="#CE5C5C" stroke-width="3" d="M80.257 254.04l-57.25-38.617 17.842-26.454L98.1 227.585z"/>
      <path d="M12.606 216.14l26.231-38.89m44.256 86.434l26.231-38.89" stroke="#CE5C5C" stroke-width="3" stroke-dasharray="3"/>
    </g>
    <g>
      <g fill-rule="nonzero" transform="rotate(-42 213.961 40.287)">
        <path stroke="#12A08F" stroke-width="6" fill="#16E1D0" d="M3 3h68v145H3z"/>
        <circle fill="#12A08F" cx="36.5" cy="75.5" r="23.5"/>
        <circle fill="#12A08F" cx="6.5" cy="6.5" r="6.5"/>
        <circle fill="#12A08F" cx="66.5" cy="144.5" r="6.5"/>
        <circle fill="#12A08F" cx="6.5" cy="144.5" r="6.5"/>
        <circle fill="#12A08F" cx="67.5" cy="6.5" r="6.5"/>
      </g>
      <g transform="rotate(-14 500.167 -171.488)">
        <ellipse fill="#ABABAB" cx="17.5" cy="18.947" rx="17.5" ry="17.053"/>
        <ellipse fill="#DADADA" cx="17.5" cy="17.053" rx="17.5" ry="17.053"/>
        <ellipse fill="#F0F0F0" cx="17.5" cy="17.053" rx="15.556" ry="15.158"/>
        <path d="M15.75 18h3.5a7 7 0 0 1 7 7v2.474H8.75V25a7 7 0 0 1 7-7zm.451-3.79c2.828 0 6.16-2.776 6.16-4.684 0-1.908-2-3.842-4.065-3.842-2.066 0-5.657.78-5.657 2.687 0 1.908.734 5.84 3.562 5.84v-.001z" fill="#DADADA" fill-rule="nonzero"/>
        <path fill="#DADADA" d="M15.556 13.263h5.833v7.579h-5.833z"/>
        <path d="M21.292 17.053c1.879 0 2.041-2.333 2.041-5.21 0-2.879-1.523-5.211-3.402-5.211-1.88 0-3.403 2.332-3.403 5.21s2.884 5.21 4.764 5.21v.001z" fill="#DADADA"/>
      </g>
      <g fill-rule="nonzero" transform="rotate(-23 237.768 -125.658)">
        <path stroke="#12A08F" stroke-width="6" fill="#16E1D0" d="M3 3h68v145H3z"/>
        <circle fill="#12A08F" cx="36.5" cy="75.5" r="23.5"/>
        <circle fill="#12A08F" cx="6.5" cy="6.5" r="6.5"/>
        <circle fill="#12A08F" cx="66.5" cy="144.5" r="6.5"/>
        <circle fill="#12A08F" cx="6.5" cy="144.5" r="6.5"/>
        <circle fill="#12A08F" cx="67.5" cy="6.5" r="6.5"/>
      </g>
      <g fill-rule="nonzero" transform="rotate(2 -2051.094 3969.091)">
        <path stroke="#12A08F" stroke-width="6" fill="#16E1D0" d="M3 3h68v145H3z"/>
        <circle fill="#12A08F" cx="36.5" cy="75.5" r="23.5"/>
        <circle fill="#12A08F" cx="6.5" cy="6.5" r="6.5"/>
        <circle fill="#12A08F" cx="66.5" cy="144.5" r="6.5"/>
        <circle fill="#12A08F" cx="6.5" cy="144.5" r="6.5"/>
        <circle fill="#12A08F" cx="67.5" cy="6.5" r="6.5"/>
      </g>
      <path fill="#CCC" d="M176.58 92.917l134.1 68.327-9.779 4.88-133.134-67.835z"/>
      <path fill="#CCC" d="M193.907 46.8l-26.053 51.132 9.084-4.98 25.586-50.215z"/>
      <path fill="#D8D8D8" d="M202.51 42.028l134.1 68.326-25.93 50.89-134.1-68.327z"/>
      <path fill="#ABABAB" d="M204.375 47.908l126.38 64.394-21.94 43.061-126.38-64.394z"/>
      <g transform="rotate(27 -59.985 608.717)">
        <path fill="#D8D8D8" d="M0 0h23.821v24.164H0z"/>
        <ellipse fill="#AE4D4D" cx="11.91" cy="13.18" rx="7.579" ry="7.689"/>
        <ellipse fill="#CE5C5C" cx="11.91" cy="10.984" rx="7.579" ry="7.689"/>
      </g>
      <g transform="rotate(27 -75.685 674.112)">
        <path fill="#D8D8D8" d="M0 0h23.821v24.164H0z"/>
        <ellipse fill="#AE4D4D" cx="11.91" cy="13.18" rx="7.579" ry="7.689"/>
        <ellipse fill="#CE5C5C" cx="11.91" cy="10.984" rx="7.579" ry="7.689"/>
      </g>
      <path fill="#5C5C5C" d="M221.749 77.375l6.579 3.352-5.26 10.322-6.578-3.352-3.352 6.579-10.322-5.26 3.352-6.578-6.579-3.352 5.26-10.322 6.578 3.352 3.352-6.579 10.322 5.26-3.352 6.578z"/>
      <path fill="#707070" d="M222.746 75.418l6.58 3.352-5.26 10.322-6.579-3.352-3.352 6.579-10.322-5.26 3.352-6.579-6.578-3.352 5.259-10.321 6.579 3.352 3.352-6.58 10.321 5.26-3.352 6.579z"/>
      <g transform="rotate(27 -51.689 543.93)">
        <rect fill="#5C5C5C" y="1.098" width="18.407" height="4.393" rx="2.196"/>
        <rect fill="#707070" width="18.407" height="4.393" rx="2.196"/>
      </g>
      <g transform="rotate(27 -72.276 538.987)">
        <rect fill="#5C5C5C" y="1.098" width="18.407" height="4.393" rx="2.196"/>
        <rect fill="#707070" width="18.407" height="4.393" rx="2.196"/>
      </g>
      <g transform="rotate(29 68.455 473.186)">
        <ellipse fill="#AA813D" cx="14.5" cy="16.842" rx="14.5" ry="15.158"/>
        <ellipse fill="#CD9B49" cx="14.5" cy="15.158" rx="14.5" ry="15.158"/>
        <ellipse fill="#E2AF5C" cx="14.5" cy="15.158" rx="12.889" ry="13.474"/>
        <path d="M14.25 16h.5a7 7 0 0 1 7 7v1.421H7.25V23a7 7 0 0 1 7-7zm-.826-3.368c2.343 0 5.104-2.469 5.104-4.164 0-1.696-1.657-3.415-3.369-3.415-1.71 0-4.687.692-4.687 2.388s.609 5.19 2.952 5.19v.001z" fill="#CD9B49" fill-rule="nonzero"/>
        <path fill="#CD9B49" d="M12.889 11.789h4.833v6.737h-4.833z"/>
        <path d="M17.642 15.158c1.557 0 1.691-2.074 1.691-4.632s-1.262-4.631-2.82-4.631c-1.556 0-2.819 2.073-2.819 4.631 0 2.558 2.39 4.632 3.948 4.632z" fill="#CD9B49"/>
      </g>
      <g>
        <g fill-rule="nonzero" transform="rotate(11 -350.666 1039.023)">
          <path stroke="#12A08F" stroke-width="6" fill="#16E1D0" d="M3 3h68v145H3z"/>
          <circle fill="#12A08F" cx="36.5" cy="75.5" r="23.5"/>
          <circle fill="#12A08F" cx="6.5" cy="6.5" r="6.5"/>
          <circle fill="#12A08F" cx="66.5" cy="144.5" r="6.5"/>
          <circle fill="#12A08F" cx="6.5" cy="144.5" r="6.5"/>
          <circle fill="#12A08F" cx="67.5" cy="6.5" r="6.5"/>
        </g>
      </g>
      <g transform="rotate(-13 894.106 -119.708)">
        <ellipse fill="#ABABAB" cx="23" cy="26.316" rx="23" ry="23.684"/>
        <ellipse fill="#DADADA" cx="23" cy="23.684" rx="23" ry="23.684"/>
        <ellipse fill="#F0F0F0" cx="23" cy="23.684" rx="20.444" ry="21.053"/>
        <path d="M18.5 25h9a7 7 0 0 1 7 7v6.158h-23V32a7 7 0 0 1 7-7zm2.793-5.263c3.717 0 8.096-3.857 8.096-6.506 0-2.65-2.629-5.336-5.343-5.336-2.715 0-7.435 1.082-7.435 3.732 0 2.65.966 8.11 4.682 8.11z" fill="#DADADA" fill-rule="nonzero"/>
        <path fill="#DADADA" d="M20.444 18.421h7.667v10.526h-7.667z"/>
        <path d="M27.983 23.684c2.47 0 2.684-3.24 2.684-7.237 0-3.996-2.003-7.236-4.473-7.236-2.47 0-4.472 3.24-4.472 7.236 0 3.997 3.791 7.237 6.261 7.237z" fill="#DADADA"/>
      </g>
      <g transform="rotate(-12 204.09 -270.416)">
        <ellipse fill="#AA813D" cx="14.5" cy="16.842" rx="14.5" ry="15.158"/>
        <ellipse fill="#CD9B49" cx="14.5" cy="15.158" rx="14.5" ry="15.158"/>
        <ellipse fill="#E2AF5C" cx="14.5" cy="15.158" rx="12.889" ry="13.474"/>
        <path d="M14.25 16h.5a7 7 0 0 1 7 7v1.421H7.25V23a7 7 0 0 1 7-7zm-.826-3.368c2.343 0 5.104-2.469 5.104-4.164 0-1.696-1.657-3.415-3.369-3.415-1.71 0-4.687.692-4.687 2.388s.609 5.19 2.952 5.19v.001z" fill="#CD9B49" fill-rule="nonzero"/>
        <path fill="#CD9B49" d="M12.889 11.789h4.833v6.737h-4.833z"/>
        <path d="M17.642 15.158c1.557 0 1.691-2.074 1.691-4.632s-1.262-4.631-2.82-4.631c-1.556 0-2.819 2.073-2.819 4.631 0 2.558 2.39 4.632 3.948 4.632z" fill="#CD9B49"/>
      </g>
      <g>
        <g fill-rule="nonzero" transform="rotate(4 -1505.227 2052.854)">
          <path stroke="#12A08F" stroke-width="6" fill="#16E1D0" d="M3 3h68v145H3z"/>
          <circle fill="#12A08F" cx="36.5" cy="75.5" r="23.5"/>
          <circle fill="#12A08F" cx="6.5" cy="6.5" r="6.5"/>
          <circle fill="#12A08F" cx="66.5" cy="144.5" r="6.5"/>
          <circle fill="#12A08F" cx="6.5" cy="144.5" r="6.5"/>
          <circle fill="#12A08F" cx="67.5" cy="6.5" r="6.5"/>
        </g>
      </g>
    </g>
  </g>
</svg>
