<svg width="312" height="290" xmlns="http://www.w3.org/2000/svg">
  <g fill="none" fill-rule="evenodd">
    <path d="M155.8 280.4c74.9 0 133.2-56.3 133.2-131.2 0-74.8-63.2-138.6-138-138.6S19 65.6 19 140.4c0 74.9 62 140 136.8 140z" fill="#FFA9EA" fill-rule="nonzero"/>
    <path d="M80.4 265.8C16.9 226.1-13 135.4 26.8 71.9 50 34.7 103.3 6.3 142.2 3.3a155 155 0 0 1 88.2 22.2C294 65.2 311.8 161.4 272.1 225c-39.6 63.4-128.3 80.6-191.7 40.9z" stroke="#FFA9EA" stroke-width="4"/>
    <g fill-rule="nonzero">
      <g transform="rotate(-24 266.1 -323)">
        <g stroke="#DEDEDE" stroke-linecap="square" stroke-width="1.6">
          <path d="M72.2 20v104.2M124.2 72.2H20M96.7 26.1l-49 92M118 96.7l-92-49"/>
          <g>
            <path d="M117.3 46.1L27 98.3M98 117.3L46 27"/>
          </g>
        </g>
        <ellipse stroke="#3E3E3E" stroke-width="10.4" cx="72.1" cy="73.4" rx="56.7" ry="56.7"/>
        <ellipse stroke="#000" stroke-width="4.8" cx="72.1" cy="73.4" rx="56.7" ry="56.7"/>
      </g>
      <g transform="rotate(-24 368.6 159.3)">
        <g stroke="#DEDEDE" stroke-linecap="square" stroke-width="1.6">
          <path d="M72.2 20v104.2M124.2 72.2H20M96.7 26.1l-49 92M118 96.7l-92-49"/>
          <g>
            <path d="M117.3 46.1L27 98.3M98 117.3L46 27"/>
          </g>
        </g>
        <ellipse stroke="#3E3E3E" stroke-width="10.4" cx="72.1" cy="73.4" rx="56.7" ry="56.7"/>
        <ellipse stroke="#000" stroke-width="4.8" cx="72.1" cy="73.4" rx="56.7" ry="56.7"/>
      </g>
      <g stroke="#FFF" stroke-linecap="round">
        <path stroke-width="8" stroke-linejoin="round" d="M188.4 62.1l-54 106-60.7-55z"/>
        <path stroke-width="8" stroke-linejoin="round" d="M62.8 200l71-31.6-59.5-55.5z"/>
        <path d="M135 168.2L55.1 95.8M250 118.6L161.4 37" stroke-width="8.8"/>
      </g>
      <g transform="rotate(-24 417.5 -169.4)">
        <ellipse fill="#B3B3B3" cx="17.8" cy="19.9" rx="17.8" ry="17.8"/>
        <ellipse fill="#D8D8D8" cx="17.8" cy="17.8" rx="17.8" ry="17.8"/>
        <path d="M18.5 17.1L29.4 40" stroke="#232045" stroke-width="6.4" stroke-linecap="round"/>
        <path fill="#B3B3B3" d="M21 40.6h21v7H21z"/>
        <path fill="#D8D8D8" d="M21 37.8h21v7H21z"/>
      </g>
      <path d="M161.4 36.8a125.3 125.3 0 0 1-22 14.7c-4.9 2.2-8.8 2.3-11.9.4" stroke="#CE5C5C" stroke-width="9.6" stroke-linecap="round"/>
      <path d="M68.6 100.1c12.9-5.7 21.2-15 18.6-20.9-2.6-5.8-5.2 4.4-20.5 6.7C51.5 88 38 94.2 40.5 100c2.6 5.8 15.2 5.9 28.1.1z" fill="#CE5C5C"/>
    </g>
  </g>
</svg>