<svg width="337" height="290" version="1" xmlns="http://www.w3.org/2000/svg">
  <g fill="none" fill-rule="evenodd">
    <path d="M182 280c75 0 133-56 133-131S252 11 177 11 45 66 45 140c0 75 62 140 137 140z" fill="#FAF700" fill-rule="nonzero"/>
    <path d="M107 266C43 226 13 135 53 72 76 35 130 6 168 3c28-2 63 6 89 23 63 39 81 135 41 199-39 63-128 80-191 41z" stroke="#FAF700" stroke-width="4"/>
    <path d="M36 135l12-7 57 99-12 6c-3-5-9-6-14-3-5 2-7 9-4 14l-11 6-57-99 11-6c3 4 9 6 14 3s7-9 4-13z" fill="#FF9797" fill-rule="nonzero"/>
    <path stroke="#CE5C5C" stroke-width="3" d="M59 228l-34-60 27-16 35 60z"/>
    <path d="M15 164l40-23M57 238l41-24" stroke="#CE5C5C" stroke-width="3" stroke-dasharray="3,1,3,1"/>
    <path d="M19 180l7-11 95 64-8 11c-4-3-11-2-14 3s-2 11 3 14l-7 11-95-64 7-11c5 3 11 2 14-3 3-4 2-10-2-14z" fill="#FF9797" fill-rule="nonzero"/>
    <path stroke="#CE5C5C" stroke-width="3" d="M80 254l-57-39 18-26 57 38z"/>
    <path d="M13 216l26-39M83 264l26-39" stroke="#CE5C5C" stroke-width="3" stroke-dasharray="3,1,3,1"/>
    <g transform="rotate(-38 234 25)">
      <path stroke="#499D8F" stroke-width="6" fill="#67DDD0" d="M4 4h70v150H4z"/>
      <circle fill="#499D8F" cx="39" cy="79" r="23"/>
      <circle fill="#499D8F" cx="69" cy="149" r="8"/>
      <circle fill="#499D8F" cx="9" cy="149" r="8"/>
      <circle fill="#499D8F" cx="9" cy="9" r="8"/>
      <circle fill="#499D8F" cx="69" cy="9" r="8"/>
    </g>
    <g transform="rotate(29 -30 523)">
      <path stroke="#499D8F" stroke-width="6" fill="#67DDD0" d="M3 5h60v131H3z"/>
      <ellipse fill="#499D8F" cx="33" cy="71" rx="21" ry="20"/>
      <circle fill="#499D8F" cx="60" cy="132" r="7"/>
      <circle fill="#499D8F" cx="8" cy="131" r="7"/>
      <circle fill="#499D8F" cx="8" cy="9" r="7"/>
      <circle fill="#499D8F" cx="59" cy="8" r="7"/>
    </g>
    <g transform="rotate(-14 500 -171)">
      <ellipse fill="#ABABAB" fill-rule="nonzero" cx="18" cy="19" rx="18" ry="17"/>
      <ellipse fill="#DADADA" fill-rule="nonzero" cx="18" cy="17" rx="18" ry="17"/>
      <ellipse fill="#F0F0F0" fill-rule="nonzero" cx="18" cy="17" rx="16" ry="15"/>
      <path d="M16 18h3c4 0 7 3 7 7v2H9v-2c0-4 3-7 7-7zM16 14c3 0 6-3 6-4 0-2-2-4-4-4s-5 0-5 2 0 6 3 6z" fill="#DADADA" fill-rule="nonzero"/>
      <path fill="#DADADA" fill-rule="nonzero" d="M16 13h6v8h-6z"/>
      <path d="M21 17c2 0 2-2 2-5s-1-5-3-5-3 2-3 5 2 5 4 5z" fill="#DADADA" fill-rule="nonzero"/>
    </g>
    <g transform="rotate(38 -26 470)">
      <ellipse fill="#ABABAB" fill-rule="nonzero" cx="18" cy="19" rx="18" ry="17"/>
      <ellipse fill="#DADADA" fill-rule="nonzero" cx="18" cy="17" rx="18" ry="17"/>
      <ellipse fill="#F0F0F0" fill-rule="nonzero" cx="18" cy="17" rx="16" ry="15"/>
      <path d="M16 18h3c4 0 7 3 7 7v2H9v-2c0-4 3-7 7-7zM16 14c3 0 6-3 6-4 0-2-2-4-4-4s-5 0-5 2 0 6 3 6z" fill="#DADADA" fill-rule="nonzero"/>
      <path fill="#DADADA" fill-rule="nonzero" d="M16 13h6v8h-6z"/>
      <path d="M21 17c2 0 2-2 2-5s-1-5-3-5-3 2-3 5 2 5 4 5z" fill="#DADADA" fill-rule="nonzero"/>
    </g>
    <g transform="rotate(29 68 473)">
      <ellipse fill="#AA813D" fill-rule="nonzero" cx="15" cy="17" rx="15" ry="15"/>
      <ellipse fill="#CD9B49" fill-rule="nonzero" cx="15" cy="15" rx="15" ry="15"/>
      <ellipse fill="#E2AF5C" fill-rule="nonzero" cx="15" cy="15" rx="13" ry="13"/>
      <path d="M14 16h1c4 0 7 3 7 7v1H7v-1c0-4 3-7 7-7zM13 13c3 0 6-3 6-5 0-1-2-3-4-3l-5 2c0 2 1 6 3 6z" fill="#CD9B49" fill-rule="nonzero"/>
      <path fill="#CD9B49" fill-rule="nonzero" d="M13 12h5v7h-5z"/>
      <path d="M18 15l1-4c0-3-1-5-2-5-2 0-3 2-3 5 0 2 2 4 4 4z" fill="#CD9B49" fill-rule="nonzero"/>
    </g>
    <g transform="rotate(-13 894 -120)">
      <ellipse fill="#ABABAB" fill-rule="nonzero" cx="23" cy="26" rx="23" ry="24"/>
      <ellipse fill="#DADADA" fill-rule="nonzero" cx="23" cy="24" rx="23" ry="24"/>
      <ellipse fill="#F0F0F0" fill-rule="nonzero" cx="23" cy="24" rx="20" ry="21"/>
      <path d="M19 25h9c3 0 7 3 7 7v6H12v-6c0-4 3-7 7-7zM21 20c4 0 8-4 8-7 0-2-2-5-5-5s-7 1-7 4c0 2 1 8 4 8z" fill="#DADADA" fill-rule="nonzero"/>
      <path fill="#DADADA" fill-rule="nonzero" d="M20 18h8v11h-8z"/>
      <path d="M28 24c2 0 3-4 3-8s-2-7-5-7c-2 0-4 3-4 7s4 8 6 8z" fill="#DADADA" fill-rule="nonzero"/>
    </g>
    <g transform="rotate(-12 204 -270)">
      <ellipse fill="#AA813D" fill-rule="nonzero" cx="15" cy="17" rx="15" ry="15"/>
      <ellipse fill="#CD9B49" fill-rule="nonzero" cx="15" cy="15" rx="15" ry="15"/>
      <ellipse fill="#E2AF5C" fill-rule="nonzero" cx="15" cy="15" rx="13" ry="13"/>
      <path d="M14 16h1c4 0 7 3 7 7v1H7v-1c0-4 3-7 7-7zM13 13c3 0 6-3 6-5 0-1-2-3-4-3l-5 2c0 2 1 6 3 6z" fill="#CD9B49" fill-rule="nonzero"/>
      <path fill="#CD9B49" fill-rule="nonzero" d="M13 12h5v7h-5z"/>
      <path d="M18 15l1-4c0-3-1-5-2-5-2 0-3 2-3 5 0 2 2 4 4 4z" fill="#CD9B49" fill-rule="nonzero"/>
    </g>
    <g transform="rotate(-25 220 -99)">
      <path stroke="#499D8F" stroke-width="6" fill="#67DDD0" d="M4 4h70v150H4z"/>
      <circle fill="#499D8F" cx="39" cy="79" r="23"/>
      <circle fill="#499D8F" cx="69" cy="149" r="8"/>
      <circle fill="#499D8F" cx="9" cy="149" r="8"/>
      <circle fill="#499D8F" cx="9" cy="9" r="8"/>
      <circle fill="#499D8F" cx="69" cy="9" r="8"/>
    </g>
    <g transform="rotate(3 -1174 2596)">
      <path stroke="#499D8F" stroke-width="6" fill="#67DDD0" d="M4 4h70v150H4z"/>
      <circle fill="#499D8F" cx="39" cy="79" r="23"/>
      <circle fill="#499D8F" cx="69" cy="149" r="8"/>
      <circle fill="#499D8F" cx="9" cy="149" r="8"/>
      <circle fill="#499D8F" cx="9" cy="9" r="8"/>
      <circle fill="#499D8F" cx="69" cy="9" r="8"/>
    </g>
    <g>
      <g fill-rule="nonzero">
        <path fill="#CCC" d="M177 93l134 68-10 5-133-68z"/>
        <path fill="#CCC" d="M194 46l-26 52 9-5 26-51z"/>
        <path fill="#D8D8D8" d="M202 42l135 68-26 51-135-68z"/>
        <path fill="#ABABAB" d="M204 48l127 64-22 43-127-64z"/>
        <g transform="rotate(27 -60 609)">
          <path fill="#D8D8D8" d="M0 0h24v24H0z"/>
          <ellipse fill="#AE4D4D" cx="12" cy="13" rx="8" ry="8"/>
          <ellipse fill="#CE5C5C" cx="12" cy="11" rx="8" ry="8"/>
        </g>
        <g transform="rotate(27 -76 674)">
          <path fill="#D8D8D8" d="M0 0h24v24H0z"/>
          <ellipse fill="#AE4D4D" cx="12" cy="13" rx="8" ry="8"/>
          <ellipse fill="#CE5C5C" cx="12" cy="11" rx="8" ry="8"/>
        </g>
        <path d="M222 77l6 4-5 10-7-3-3 6-10-5 3-6-6-4 5-10 6 3 4-6 10 5-3 6z" fill="#5C5C5C"/>
        <path d="M223 75l6 4-5 10-7-3-3 6-10-5 3-6-6-4 5-10 6 3 4-6 10 5-3 6z" fill="#707070"/>
        <g transform="rotate(27 -52 544)">
          <rect fill="#5C5C5C" y="1" width="18" height="4" rx="2"/>
          <rect fill="#707070" width="18" height="4" rx="2"/>
        </g>
        <g transform="rotate(27 -72 539)">
          <rect fill="#5C5C5C" y="1" width="18" height="4" rx="2"/>
          <rect fill="#707070" width="18" height="4" rx="2"/>
        </g>
      </g>
    </g>
    <g transform="rotate(14 -247 833)">
      <path stroke="#499D8F" stroke-width="6" fill="#67DDD0" d="M4 4h65v140H4z"/>
      <ellipse fill="#499D8F" cx="37" cy="75" rx="22" ry="22"/>
      <circle fill="#499D8F" cx="66" cy="139" r="8"/>
      <circle fill="#499D8F" cx="9" cy="139" r="8"/>
      <circle fill="#499D8F" cx="10" cy="8" r="8"/>
      <circle fill="#499D8F" cx="65" cy="8" r="8"/>
    </g>
    <g>
      <g transform="rotate(17 -492 883)">
        <ellipse fill="#ABABAB" fill-rule="nonzero" cx="11" cy="12" rx="11" ry="10"/>
        <ellipse fill="#DADADA" fill-rule="nonzero" cx="11" cy="10" rx="11" ry="10"/>
        <ellipse fill="#F0F0F0" fill-rule="nonzero" cx="11" cy="10" rx="9" ry="9"/>
        <path d="M11 11c2 0 5 2 5 5v1H5v-1c0-3 3-5 6-5zM10 9l3-3-2-3-3 2c0 1 0 4 2 4z" fill="#DADADA" fill-rule="nonzero"/>
        <path fill="#DADADA" fill-rule="nonzero" d="M9 8h4v5H9z"/>
        <path d="M13 10l1-3c0-2-1-3-2-3s-2 1-2 3 2 3 3 3z" fill="#DADADA" fill-rule="nonzero"/>
      </g>
    </g>
    <g transform="rotate(3 -2047 2646)">
      <path stroke="#499D8F" stroke-width="6" fill="#67DDD0" d="M4 4h70v150H4z"/>
      <circle fill="#499D8F" cx="39" cy="79" r="23"/>
      <circle fill="#499D8F" cx="69" cy="149" r="8"/>
      <circle fill="#499D8F" cx="9" cy="149" r="8"/>
      <circle fill="#499D8F" cx="9" cy="9" r="8"/>
      <circle fill="#499D8F" cx="69" cy="9" r="8"/>
    </g>
  </g>
</svg>