<svg width="290" height="290" xmlns="http://www.w3.org/2000/svg">
  <g fill="none" fill-rule="evenodd">
    <path d="M149.8 280.4a134 134 0 0 0 134.4-134.9c0-74.8-64.4-134.9-139.2-134.9-74.8 0-132 55-132 129.8 0 74.9 62 140 136.8 140z" fill="#FFA9EA" fill-rule="nonzero"/>
    <path d="M74.4 265.8c63.4 39.7 152 22.5 191.7-41 39.7-63.4 21.8-159.6-41.7-199.3a155 155 0 0 0-88.2-22.2c-39 3-92.2 31.4-115.4 68.6-39.7 63.5-10 154.2 53.6 193.9z" stroke="#FFA9EA" stroke-width="4"/>
    <path d="M232.9 31.2L134 106 18.7 175.4l-5.7-9.2c33.5-18.9 64.3-38 92.2-57.6 27.3-19.2 67-49.1 118.8-89.9l-7.5-10.6L263 4l-19.8 41.8L233 31.2z" fill="#FAF700" fill-rule="nonzero"/>
    <path fill="#14B4A7" d="M30.3 146.3l16.1 7.8V238l-16-8.1z"/>
    <path fill="#16E1D0" d="M79 138.1L46.4 154v84L79 221.5z"/>
    <g transform="translate(30.9 130.4)">
      <path stroke="#15A08F" stroke-width="1.5" fill="#15E0D0" d="M15.7 23.6L46.7 8 31.3.6.3 16z"/>
      <ellipse fill="#15A08F" cx="23" cy="12.5" rx="6.9" ry="3.7"/>
      <ellipse fill="#15A08F" cx="31.4" cy="1.8" rx="3" ry="1.8"/>
      <ellipse fill="#15A08F" cx="3.2" cy="15.8" rx="2.5" ry="1.4"/>
      <ellipse fill="#15A08F" cx="15.9" cy="22.4" rx="2.8" ry="1.8"/>
      <ellipse fill="#15A08F" cx="43.2" cy="7.8" rx="2.4" ry="1.4"/>
    </g>
    <path fill="#14B4A7" d="M91.3 112.3l16 7.9v118.3l-16-8.2z"/>
    <path fill="#16E1D0" d="M139.6 104.2L107.3 120v118.4l32.3-16.6z"/>
    <g transform="translate(91.5 95.8)">
      <path stroke="#15A08F" stroke-width="1.5" fill="#15E0D0" d="M15.7 23.6L46.7 8 31.3.6.3 16z"/>
      <ellipse fill="#15A08F" cx="23" cy="12.5" rx="6.9" ry="3.7"/>
      <ellipse fill="#15A08F" cx="31.4" cy="1.8" rx="3" ry="1.8"/>
      <ellipse fill="#15A08F" cx="3.2" cy="15.8" rx="2.5" ry="1.4"/>
      <ellipse fill="#15A08F" cx="15.9" cy="22.4" rx="2.8" ry="1.8"/>
      <ellipse fill="#15A08F" cx="43.2" cy="7.8" rx="2.4" ry="1.4"/>
    </g>
    <g>
      <path fill="#14B4A7" d="M152.3 87.3l16 7.9v135.4l-16-8.2z"/>
      <path fill="#16E1D0" d="M200.6 79.2L168.3 95v135.5l32.3-16.6z"/>
      <g transform="translate(153.2 71.6)">
        <path stroke="#15A08F" stroke-width="1.5" fill="#15E0D0" d="M15.7 23.6L46.7 8 31.3.6.3 16z"/>
        <ellipse fill="#15A08F" cx="23" cy="12.5" rx="6.9" ry="3.7"/>
        <ellipse fill="#15A08F" cx="31.4" cy="1.8" rx="3" ry="1.8"/>
        <ellipse fill="#15A08F" cx="3.2" cy="15.8" rx="2.5" ry="1.4"/>
        <ellipse fill="#15A08F" cx="15.9" cy="22.4" rx="2.8" ry="1.8"/>
        <ellipse fill="#15A08F" cx="43.2" cy="7.8" rx="2.4" ry="1.4"/>
      </g>
    </g>
    <g>
      <path fill="#14B4A7" d="M213.3 52.3l16.1 7.9V230l-16-8.2z"/>
      <path fill="#16E1D0" d="M262 44.2L229.4 60V230l32.6-16.6z"/>
      <g transform="translate(214 35.9)">
        <path stroke="#15A08F" stroke-width="1.5" fill="#15E0D0" d="M15.7 23.6L46.7 8 31.3.6.3 16z"/>
        <ellipse fill="#15A08F" cx="23" cy="12.5" rx="6.9" ry="3.7"/>
        <ellipse fill="#15A08F" cx="31.4" cy="1.8" rx="3" ry="1.8"/>
        <ellipse fill="#15A08F" cx="3.2" cy="15.8" rx="2.5" ry="1.4"/>
        <ellipse fill="#15A08F" cx="15.9" cy="22.4" rx="2.8" ry="1.8"/>
        <ellipse fill="#15A08F" cx="43.2" cy="7.8" rx="2.4" ry="1.4"/>
      </g>
    </g>
  </g>
</svg>