<svg width="290" height="298" xmlns="http://www.w3.org/2000/svg">
  <g fill="none" fill-rule="evenodd">
    <path d="M149.8 280.4c74.9 0 133.2-56.3 133.2-131.2 0-74.8-63.2-138.6-138-138.6S13 65.6 13 140.4c0 74.9 62 140 136.8 140z" fill="#4200FF" fill-rule="nonzero"/>
    <path d="M74.4 265.8C10.9 226.1-19 135.4 20.8 71.9 44 34.7 97.3 6.3 136.2 3.3a155 155 0 0 1 88.2 22.2C288 65.2 305.8 161.4 266.1 225c-39.6 63.4-128.3 80.6-191.7 40.9z" stroke="#4200FF" stroke-width="4"/>
    <path d="M63.2 24.2a19 19 0 0 1 34.4 16.4l-15.8 34h-.3v.2l-34.1-16a19 19 0 0 1 15.8-34.6zM213.4 31.6a19 19 0 0 1 18.8 33.1l-32.6 18.8v-.2l-.3.1-18.8-32.5a19 19 0 0 1 32.9-19.3zM243.6 98a11.2 11.2 0 0 1 11 19.3l-19 11-.1-.2h-.1l-11-19A11.1 11.1 0 0 1 243.6 98zM148.9 3.1A11.2 11.2 0 0 1 164.5 19L149 34.5l-.1-.1h-.1L133.3 19A11.1 11.1 0 0 1 148.9 3z" fill="#FFA9EA" fill-rule="nonzero"/>
    <path fill="#B93799" fill-rule="nonzero" d="M144.6 183L46 117.9l1.3 114.9 95.4 65.3z"/>
    <path fill="#EA4DC3" fill-rule="nonzero" d="M142.3 67.4l97.6 50.5-97.6 65.6-96-64.7z"/>
    <path fill="#EA4DC3" fill-rule="nonzero" d="M142.7 182.4l97.3-64.6v114.9L142.7 298z"/>
    <g transform="translate(167.4 172)">
      <ellipse fill="#FFF" transform="rotate(32 30.3 35.2)" cx="30.3" cy="35.2" rx="16.7" ry="30.4"/>
      <path d="M30.4 28.3C19 22 9.9 41.5 20.7 48.2c1.2.7 4.4 1.5 9.4 2.3a87 87 0 0 0 13.7-23.7c4.3-15.5-6-13.5-13-.3l-.4 1.8z" fill="#EA4DC3"/>
    </g>
    <g transform="matrix(-1 0 0 1 119 172.2)">
      <ellipse fill="#B7B7B7" transform="rotate(32 30.3 35.2)" cx="30.3" cy="35.2" rx="16.7" ry="30.4"/>
      <path d="M30.4 28.3C19 22 9.9 41.5 20.7 48.2c1.2.7 4.4 1.5 9.4 2.3a87 87 0 0 0 13.7-23.7c4.3-15.5-6-13.5-13-.3l-.4 1.8z" fill="#A8378C"/>
    </g>
    <g transform="rotate(13 -128.5 607.4)">
      <path fill="#B93799" fill-rule="nonzero" d="M60.1 74.5l-48.4-16L5 64.1l48 16.4z"/>
      <path fill="#7A2164" fill-rule="nonzero" d="M11.6 58.1l2 8.2-8.3-2.5z"/>
      <path d="M3.4 3.8l13.9 61.6 26.5 9-13.5-61-27-9.6z" stroke="#499D8F" stroke-width="4.5" fill="#67DDD0"/>
      <path d="M27.3 47.4c6.6.1 6.7-4.5 6-8-.6-2.9-3.7-7.4-6.5-10-1.7-1.5-2.7-2.5-6.2-3.2-3.4-.7-4.8-1.2-7 1.5-1.3 1.8-1.2 4.8.6 9 4.4 7 8.8 10.6 13.1 10.7z" fill="#499D8F"/>
      <ellipse fill="#499D8F" cx="42.2" cy="71.8" rx="2.9" ry="2.9"/>
      <path d="M18.6 67.6c1.8 0 2.7.6 2.7-1.3 0-2-2.6-5.3-4.3-5.3-1.8 0-1.3 2-1.3 3.8 0 1 .3 1.4 1 2 .5.7 1.1.8 2 .8z" fill="#499D8F"/>
      <ellipse fill="#499D8F" cx="4.7" cy="5.4" rx="2.8" ry="2.8"/>
      <path d="M30.7 17.6c1.4 0 1.3-2 1.3-3.3 0-1.4-1.1-2.5-2.5-2.5s-3.1-.3-3.1 1c0 1.4 3 4.8 4.3 4.8z" fill="#499D8F"/>
    </g>
    <g fill="#FFA9EA" fill-rule="nonzero">
      <path d="M25.3 97.1a12 12 0 0 1 16-5.6 12 12 0 0 1 5.8 16l-10 21.6h-.2l-21.5-10a12 12 0 0 1-5.9-16 12 12 0 0 1 15.8-6z"/>
    </g>
  </g>
</svg>