<svg width="329" height="431" xmlns="http://www.w3.org/2000/svg">
  <defs>
    <linearGradient x1="0%" y1="50%" y2="50%" id="a">
      <stop stop-color="#FFF" stop-opacity="0" offset="0%"/>
      <stop stop-color="#353535" stop-opacity=".2" offset="100%"/>
    </linearGradient>
  </defs>
  <g fill="none" fill-rule="evenodd">
    <g transform="translate(0 10)">
      <ellipse fill="#2EFAE9" fill-rule="nonzero" cx="76.5" cy="95" rx="76.5" ry="36"/>
      <path fill="url(#a)" transform="rotate(-32 34.6 59)" d="M4 101.2h31.3v20.4H4z"/>
      <path fill="#14B4A7" d="M46.4 21.4l21 10.3V112l-21-10.7z"/>
      <path fill="#16E1D0" d="M110 10.7L67.5 31.5V112L110 90.3z"/>
      <g transform="translate(46.7 .1)">
        <path stroke="#15A08F" stroke-width="1.5" fill="#15E0D0" d="M20.6 31l41-20.4L41.2.8.4 21z"/>
        <ellipse fill="#15A08F" cx="30.3" cy="16.5" rx="9.1" ry="4.9"/>
        <ellipse fill="#15A08F" cx="41.4" cy="3.1" rx="3.9" ry="1.7"/>
        <ellipse fill="#15A08F" cx="4.2" cy="20.8" rx="3.3" ry="1.8"/>
        <ellipse fill="#15A08F" cx="20.8" cy="29.2" rx="3.6" ry="2.1"/>
        <ellipse fill="#15A08F" cx="57" cy="10.3" rx="3.1" ry="1.8"/>
      </g>
      <text font-family="Helvetica" font-size="16" letter-spacing="-.5" fill="#FFF">
        <tspan x="46" y="155">To spend</tspan> <tspan x="47.4" y="174" font-size="20">$45.82</tspan>
      </text>
    </g>
    <g transform="translate(0 220)">
      <ellipse fill="#009EFF" fill-rule="nonzero" cx="76.5" cy="125" rx="76.5" ry="36"/>
      <path fill="url(#a)" transform="rotate(-32 34 89.3)" d="M3.5 131.4h31.3v20.4H3.5z"/>
      <path fill="#14B4A7" d="M46.4 21.4l21 10.3V142l-21-10.7z"/>
      <path fill="#16E1D0" d="M110 10.7L67.5 31.5V142l42.5-21.7z"/>
      <g transform="translate(47.2)">
        <path stroke="#15A08F" stroke-width="1.5" fill="#15E0D0" d="M20.6 31l41-20.4L41.2.8.4 21z"/>
        <ellipse fill="#15A08F" cx="30.3" cy="16.5" rx="9.1" ry="4.9"/>
        <ellipse fill="#15A08F" cx="41.4" cy="3.1" rx="3.9" ry="1.7"/>
        <ellipse fill="#15A08F" cx="4.2" cy="20.8" rx="3.3" ry="1.8"/>
        <ellipse fill="#15A08F" cx="20.8" cy="29.2" rx="3.6" ry="2.1"/>
        <ellipse fill="#15A08F" cx="57" cy="10.3" rx="3.1" ry="1.8"/>
      </g>
      <text font-family="Helvetica" font-size="16" letter-spacing="-.5" fill="#FFF">
        <tspan x="47.8" y="185">To share</tspan> <tspan x="47.4" y="204" font-size="20">$45.82</tspan>
      </text>
    </g>
    <g transform="translate(176)">
      <ellipse fill="#FFA9EA" fill-rule="nonzero" cx="76.5" cy="105" rx="76.5" ry="36"/>
      <path fill="url(#a)" transform="rotate(-32 34.4 70)" d="M3.8 112.2h31.3v20.4H3.8z"/>
      <path fill="#14B4A7" d="M46.4 21.4l21 10.3V122l-21-10.7z"/>
      <path fill="#16E1D0" d="M110 10.7L67.5 31.5V122l42.5-21.7z"/>
      <g transform="translate(46.8 .2)">
        <path stroke="#15A08F" stroke-width="1.5" fill="#15E0D0" d="M20.6 31l41-20.4L41.2.8.4 21z"/>
        <ellipse fill="#15A08F" cx="30.3" cy="16.5" rx="9.1" ry="4.9"/>
        <ellipse fill="#15A08F" cx="41.4" cy="3.1" rx="3.9" ry="1.7"/>
        <ellipse fill="#15A08F" cx="4.2" cy="20.8" rx="3.3" ry="1.8"/>
        <ellipse fill="#15A08F" cx="20.8" cy="29.2" rx="3.6" ry="2.1"/>
        <ellipse fill="#15A08F" cx="57" cy="10.3" rx="3.1" ry="1.8"/>
      </g>
      <text font-family="Helvetica" font-size="16" letter-spacing="-.5" fill="#FFF">
        <tspan x="45.4" y="165">For goals</tspan> <tspan x="47.4" y="184" font-size="20">$45.82</tspan>
      </text>
    </g>
    <g transform="translate(176 269)">
      <ellipse fill="#EA4DC3" fill-rule="nonzero" cx="76.5" cy="76" rx="76.5" ry="36"/>
      <path fill="url(#a)" transform="rotate(-32 34 41)" d="M3.5 83.1h31.3v20.4H3.5z"/>
      <path fill="#14B4A7" d="M46.4 22.4l21 10.3V93l-21-10.7z"/>
      <path fill="#16E1D0" d="M110 11.7L67.5 32.5V93L110 71.3z"/>
      <g transform="translate(46.7 .9)">
        <path stroke="#15A08F" stroke-width="1.5" fill="#15E0D0" d="M20.6 31l41-20.4L41.2.8.4 21z"/>
        <ellipse fill="#15A08F" cx="30.3" cy="16.5" rx="9.1" ry="4.9"/>
        <ellipse fill="#15A08F" cx="41.4" cy="3.1" rx="3.9" ry="1.7"/>
        <ellipse fill="#15A08F" cx="4.2" cy="20.8" rx="3.3" ry="1.8"/>
        <ellipse fill="#15A08F" cx="20.8" cy="29.2" rx="3.6" ry="2.1"/>
        <ellipse fill="#15A08F" cx="57" cy="10.3" rx="3.1" ry="1.8"/>
      </g>
      <text font-family="Helvetica" font-size="16" letter-spacing="-.5" fill="#FFF">
        <tspan x="46.7" y="136">Investing</tspan> <tspan x="47.4" y="155" font-size="20">$45.82</tspan>
      </text>
    </g>
    <g transform="translate(74 213.4)">
      <path stroke="#15A08F" stroke-width="1.5" fill="#15E0D0" d="M20.6 31l41-20.4L41.2.8.4 21z"/>
      <ellipse fill="#15A08F" cx="30.3" cy="16.5" rx="9.1" ry="4.9"/>
      <ellipse fill="#15A08F" cx="41.4" cy="3.1" rx="3.9" ry="1.7"/>
      <ellipse fill="#15A08F" cx="4.2" cy="20.8" rx="3.3" ry="1.8"/>
      <ellipse fill="#15A08F" cx="20.8" cy="29.2" rx="3.6" ry="2.1"/>
      <ellipse fill="#15A08F" cx="57" cy="10.3" rx="3.1" ry="1.8"/>
    </g>
    <g transform="translate(189.4 238)">
      <path stroke="#15A08F" stroke-width="1.5" fill="#15E0D0" d="M20.6 31l41-20.4L41.2.8.4 21z"/>
      <ellipse fill="#15A08F" cx="30.3" cy="16.5" rx="9.1" ry="4.9"/>
      <ellipse fill="#15A08F" cx="41.4" cy="3.1" rx="3.9" ry="1.7"/>
      <ellipse fill="#15A08F" cx="4.2" cy="20.8" rx="3.3" ry="1.8"/>
      <ellipse fill="#15A08F" cx="20.8" cy="29.2" rx="3.6" ry="2.1"/>
      <ellipse fill="#15A08F" cx="57" cy="10.3" rx="3.1" ry="1.8"/>
    </g>
    <g transform="translate(212.3 253.7)">
      <path stroke="#15A08F" stroke-width="1.5" fill="#15E0D0" d="M20.6 31l41-20.4L41.2.8.4 21z"/>
      <ellipse fill="#15A08F" cx="30.3" cy="16.5" rx="9.1" ry="4.9"/>
      <ellipse fill="#15A08F" cx="41.4" cy="3.1" rx="3.9" ry="1.7"/>
      <ellipse fill="#15A08F" cx="4.2" cy="20.8" rx="3.3" ry="1.8"/>
      <ellipse fill="#15A08F" cx="20.8" cy="29.2" rx="3.6" ry="2.1"/>
      <ellipse fill="#15A08F" cx="57" cy="10.3" rx="3.1" ry="1.8"/>
    </g>
    <g transform="translate(154 219.8)">
      <path stroke="#15A08F" stroke-width="1.5" fill="#15E0D0" d="M20.6 31l41-20.4L41.2.8.4 21z"/>
      <ellipse fill="#15A08F" cx="30.3" cy="16.5" rx="9.1" ry="4.9"/>
      <ellipse fill="#15A08F" cx="41.4" cy="3.1" rx="3.9" ry="1.7"/>
      <ellipse fill="#15A08F" cx="4.2" cy="20.8" rx="3.3" ry="1.8"/>
      <ellipse fill="#15A08F" cx="20.8" cy="29.2" rx="3.6" ry="2.1"/>
      <ellipse fill="#15A08F" cx="57" cy="10.3" rx="3.1" ry="1.8"/>
    </g>
    <g transform="translate(106.9 212.8)">
      <path stroke="#15A08F" stroke-width="1.5" fill="#15E0D0" d="M20.6 31l41-20.4L41.2.8.4 21z"/>
      <ellipse fill="#15A08F" cx="30.3" cy="16.5" rx="9.1" ry="4.9"/>
      <ellipse fill="#15A08F" cx="41.4" cy="3.1" rx="3.9" ry="1.7"/>
      <ellipse fill="#15A08F" cx="4.2" cy="20.8" rx="3.3" ry="1.8"/>
      <ellipse fill="#15A08F" cx="20.8" cy="29.2" rx="3.6" ry="2.1"/>
      <ellipse fill="#15A08F" cx="57" cy="10.3" rx="3.1" ry="1.8"/>
    </g>
  </g>
</svg>