<?xml version="1.0" encoding="utf-8"?>
<!-- Generator: Adobe Illustrator 21.1.0, SVG Export Plug-In . SVG Version: 6.00 Build 0)  -->
<svg version="1.1" id="Layer_1" xmlns="http://www.w3.org/2000/svg" xmlns:xlink="http://www.w3.org/1999/xlink" x="0px" y="0px"
	 viewBox="0 0 48 47" style="enable-background:new 0 0 48 47;" xml:space="preserve">
<style type="text/css">
	.st0{fill:#FFA9EA;}
	.st1{display:none;}
	.st2{display:inline;fill:none;stroke:#232045;}
	.st3{fill:none;stroke:#232045;}
	.st4{fill:none;stroke:#000000;}
</style>
<title>Account_Icon</title>
<g id="Symbols">
	<g id="Navigation_x2F_Child_x2F_Account" transform="translate(-24.000000, -19.000000)">
		<g id="Navigation">
			<g id="Account" transform="translate(24.000000, 19.000000)">
				<path id="Oval-2-Copy-6" class="st0" d="M21.1,46.8c12.6,0,26.6-10.1,26.6-22.7S36.5,0,23.9,0S0,8.7,0,21.3S8.6,46.8,21.1,46.8z
					"/>
				<g id="Account-Blance" transform="translate(6.000000, 6.000000)" class="st1">
					<rect id="Rectangle-5" x="0.5" y="5.5" class="st2" width="40" height="29"/>
					<path id="Rectangle-5_1_" class="st2" d="M0.5,5.4L0.5,5.4l37,0.1V0.6L0.5,5.4z"/>
					<path id="Rectangle-6" class="st2" d="M41.5,25.5v-12H33c-2.5,0-4.5,2-4.5,4.5v3c0,2.5,2,4.5,4.5,4.5H41.5z"/>
				</g>
			</g>
		</g>
	</g>
</g>
<g id="Symbols_1_">
	<g id="Navigation_x2F_My-Money-NEW" transform="translate(-39.000000, -31.000000)">
		<g id="Overview-Icon" transform="translate(39.000000, 32.000000)">
			<path id="Combined-Shape" class="st3" d="M37.7,16.4c1.2,2.2,1.9,4.8,1.9,7.5c0,8.9-7.2,16-16,16s-16-7.2-16-16
				c0-2.4,0.5-4.6,1.4-6.6c-0.3-0.5-0.6-0.9-0.9-1.5C6.2,12.1,7,8,9.7,6.7c2.3-1.1,5.2,0.1,7.2,2.7c2-0.9,4.2-1.4,6.6-1.4
				c2.1,0,4.1,0.4,5.9,1.1c2.1-2.4,5.2-3.4,7.4-2.1c2.6,1.5,3.1,5.7,1,9.3C37.7,16.3,37.7,16.4,37.7,16.4z"/>
			<circle id="Oval-7" class="st4" cx="18" cy="15.5" r="1"/>
			<circle id="Oval-7_1_" class="st4" cx="29" cy="15.5" r="1"/>
			<circle id="Oval-8" class="st4" cx="23.5" cy="25" r="5"/>
		</g>
	</g>
</g>
</svg>
