<svg width="187" height="257" xmlns="http://www.w3.org/2000/svg" xmlns:xlink="http://www.w3.org/1999/xlink"><defs><ellipse id="a" cx="64.988" cy="64.481" rx="60.261" ry="60.001"/></defs><g fill="none" fill-rule="evenodd"><g transform="translate(102.583 84.847)" fill-rule="nonzero"><path d="M7.113 54.289c7.76-24.157 19.184-36.235 34.272-36.235 22.633 0 36.212 9.662 36.212 16.305 0 6.644-3.88 24.761-11.64 31.405-7.76 6.643-21.985 16.305-32.978 18.117-7.329 1.208-18.322 1.208-32.979 0 3.943-5.531 6.314-9.96 7.113-13.286.8-3.326.8-8.761 0-16.306z" fill="#009EFF"/><path d="M68.66 55.152c1.19-3.772-1.907-13.952 3.57-11.314 5.367 2.585 8.999-9.025 8.6-10.31-6.586-21.237-41.821-23.364-56.258-10.961C20 26.496 13.871 37.124 11.67 43.299M61.665 73.404C51.09 83.627 44.36 84.017 29.255 86.565" stroke="#232045" stroke-width="1.94"/><ellipse stroke="#232045" stroke-width="1.94" fill="#FFF" cx="74.364" cy="50.937" rx="9.053" ry="9.027"/><path d="M47.205 63.187c.862-12.465 6.261-16.626 16.197-12.482 9.936 4.144 11.434 14.968 4.496 32.47a506.843 506.843 0 0 0-7.97-11.606c-2.474-3.487-6.715-6.28-12.723-8.382z" stroke="#232045" stroke-width="1.94" fill="#FAF700"/><ellipse fill="#05F" cx="73.717" cy="49.647" rx="4.527" ry="4.513"/><ellipse stroke="#232045" stroke-width="1.94" fill="#FFF" cx="65.311" cy="43.844" rx="9.053" ry="9.027"/><ellipse fill="#05F" cx="60.784" cy="41.91" rx="4.527" ry="4.513"/><path d="M71.13 13.54c3.88 5.834 3.88 10.132 0 12.896M65.311 6.448c3.88 7.583 3.88 13.171 0 16.764M58.198 0c5.604 9.334 5.604 16.211 0 20.633" stroke="#232045" stroke-width="1.94"/></g><g transform="translate(8.173 56.477)"><mask id="b" fill="#fff"><use xlink:href="#a"/></mask><use fill="#FFA9EA" xlink:href="#a"/><path d="M66.17 100.952c23.492 0 42.537-10.15 42.537-22.671 0-12.521-19.045 0-42.538 0-23.493 0-42.537-12.521-42.537 0 0 12.52 19.044 22.67 42.537 22.67z" stroke="#232045" stroke-width="1.94" mask="url(#b)"/><path d="M65.03 126.834c33.317 0 64.945-25.93 64.945-58.672 0-32.74-26.174-67.55-59.49-67.55C37.166.611 0 29.321 0 62.061c0 32.742 31.713 64.772 65.03 64.772z" stroke="#232045" stroke-width="1.94"/><ellipse fill="#FFF" fill-rule="nonzero" cx="92.164" cy="42.127" rx="9.453" ry="9.412"/><path d="M45.097 57.082c5.079-2.15 17.09-18.705 14.904-23.84-2.185-5.134-13.23-7.108-21.362-4.188-8.132 2.92-17.032 7.209-12.36 16.958 4.67 9.75 13.739 13.22 18.818 11.07z" fill="#232045" fill-rule="nonzero"/><ellipse stroke="#05F" stroke-width=".647" fill="#05F" fill-rule="nonzero" cx="93.428" cy="48.019" rx="3.545" ry="3.529"/></g><path d="M22.4 185.43L3 164.799c27.03 11.077 43.628 17.524 49.792 19.343 9.245 2.728 22.331 4.462 32.678 1.798 6.898-1.775 14.542-5.598 22.933-11.47h28.452l-11.702 13.336a6.466 6.466 0 0 0-1.568 4.968l6.71 61.36a2.587 2.587 0 0 1-2.572 2.867H19.813a2.587 2.587 0 0 1-2.587-2.587v-62.722a6.375 6.375 0 0 1 5.173-6.26z" fill="#16E1D0" fill-rule="nonzero"/><path d="M127.58 187.58l-102.622-2.864a5.448 5.448 0 0 0-1.589 3.853v61.339c0 .888.723 1.609 1.617 1.609h108.053c.031 0 .063-.001.094-.003.892-.052 1.571-.814 1.524-1.648l-7.077-62.285z" stroke="#232045" stroke-width="1.94"/><path d="M108.08 175.437l-14.55 71.247M53.115 182.121l6.79 65.852" stroke="#232045" stroke-width="1.94" stroke-linecap="square"/><path d="M53.589 180.958L4.293 160.692l47.224 48.43-13.598 9.77c11.166 25.275 17.848 35.416 20.046 30.426M107.433 174.47h30.715l-33.206 34.336 12.5 11.133c-13.755 23.972-21.464 33.362-23.126 28.17M9.524 100.321s39.388 5.803 109.872-32.883" stroke="#232045" stroke-width="1.94"/><path d="M93.37.565C83.858-.6 71.965 5.09 66.37 13.5c-5.596 8.409-12.96 15.303-25.796 13.731-12.837-1.571-20.387-9.037-21.575.607l-4.886 39.678 134.783 16.5 4.098-33.277c1.182-9.6-4.2-13.507-12.296-11.25-8.096 2.257-19.57.203-22.239-9.868C115.79 19.55 102.882 1.729 93.37.565z" fill="#232045"/><path d="M88.844 4.434c-9.512-1.165-21.405 4.525-27.002 12.934-5.596 8.41-12.96 15.303-25.796 13.732-12.836-1.572-20.387-9.037-21.574.607L9.586 71.384l134.783 16.502 4.098-33.279c1.182-9.599-4.2-13.506-12.297-11.25-8.095 2.258-19.57.203-22.238-9.868-2.67-10.07-15.576-27.89-25.088-29.055z" stroke="#16E1D0" stroke-width="1.94"/><g fill="#FFF" fill-rule="nonzero"><path d="M74.056 45.124c-.14-.72-.27-1.382.342-2.049a11.195 11.195 0 0 1-2.86-5.575c-1.174-6.042 2.704-11.878 8.665-13.037 5.96-1.158 11.743 2.8 12.917 8.842a11.19 11.19 0 0 1-.558 6.227c.822.39.94 1.06 1.08 1.785.24 1.236.448 2.305-3.07 3.513l.834 2.415-2.502.487-.237-1.219-1.252.244.237 1.218-2.189.426-.207-1.066-1.17.227.206 1.066-2.189.426-.236-1.219-1.252.243.237 1.219-2.502.486-.131-2.552c-3.715.198-3.923-.87-4.163-2.107zm12.262-10.497c-1.776.345-2.944 2.025-2.608 3.754.336 1.728 2.048 2.85 3.825 2.504 1.774-.345 2.941-2.026 2.605-3.754-.336-1.729-2.047-2.85-3.822-2.504zm-2.403 8.934c-.679.132-1.077 1.014-.96 1.618.118.607.569-.008 1.248-.14.678-.132 1.325.27 1.208-.337-.118-.604-.817-1.273-1.496-1.141zm-5.574-7.384c-1.775.345-2.942 2.026-2.606 3.754.336 1.728 2.048 2.85 3.822 2.504 1.777-.345 2.944-2.026 2.608-3.753-.336-1.73-2.047-2.85-3.824-2.505zm21.542 9.255c.31.424.427.941.33 1.457a1.974 1.974 0 0 1-.84 1.27c-.237.163-.5.274-.785.33a2.074 2.074 0 0 1-1.573-.323l-7.823 5.345 4.396.962a1.9 1.9 0 0 1 1.325-.976c.26-.05.523-.047.782.009 1 .219 1.615 1.182 1.371 2.148a1.79 1.79 0 0 1-.457.815c.176.384.217.815.11 1.239-.187.749-.815 1.33-1.601 1.483-.283.055-.57.052-.852-.01a1.952 1.952 0 0 1-1.541-1.693l-7.085-1.55-5.99 4.091a1.952 1.952 0 0 1-.794 2.147 2.09 2.09 0 0 1-.786.329c-.786.152-1.586-.152-2.041-.776a1.864 1.864 0 0 1-.362-1.19 1.798 1.798 0 0 1-.729-.585c-.588-.803-.377-1.927.467-2.504.219-.15.462-.251.722-.302a1.903 1.903 0 0 1 1.594.409l3.715-2.54-9.255-2.024c-.299.453-.78.779-1.34.888a2.074 2.074 0 0 1-.849-.01 1.976 1.976 0 0 1-1.255-.864 1.868 1.868 0 0 1-.239-1.474c.107-.424.35-.793.69-1.064a1.731 1.731 0 0 1-.022-.92c.173-.688.752-1.224 1.472-1.363.26-.051.524-.047.782.009.484.105.894.387 1.153.793.185.288.277.614.274.946l12.142 2.657 10.263-7.012a1.715 1.715 0 0 1-.101-.98 1.81 1.81 0 0 1 .772-1.167c.218-.149.462-.251.722-.302.72-.14 1.457.14 1.875.713.185.256.296.553.324.861.417.124.78.376 1.039.728z"/></g><path d="M86.417 132.56v6.447c2.155.86 3.88.86 5.173 0 1.293-.86 1.293-3.009 0-6.447h-5.173zM96.117 130.625v6.448c2.155.86 3.88.86 5.173 0 1.293-.86 1.293-3.009 0-6.448h-5.173z" fill="#232045" fill-rule="nonzero"/><g fill="#FAF700" fill-rule="nonzero" stroke="#232045" stroke-width="1.94"><path d="M132.37 172.829c5.192-2.14 8.152-.308 8.88 5.494 1.092 8.704-5.424 12.138-7.97 11.689-2.548-.45-5.921-3.663-3.752-8.518 1.446-3.237 2.393-6.125 2.841-8.665z"/><path d="M124.951 170.212c5.193-2.14 8.153-.309 8.88 5.494 1.093 8.704-5.422 12.138-7.97 11.689-2.547-.45-5.92-3.663-3.75-8.518 1.446-3.237 2.393-6.126 2.84-8.665z"/><path d="M117.534 167.594c5.192-2.14 8.152-.308 8.88 5.494 1.092 8.704-5.423 12.138-7.97 11.69-2.548-.45-5.92-3.664-3.752-8.519 1.447-3.237 2.394-6.125 2.842-8.665z"/></g></g></svg>