<svg data-name="Layer 1" xmlns="http://www.w3.org/2000/svg" viewBox="0 0 50.47 45.83"><path d="M50.37 29.01a7.44 7.44 0 0 1-1.71-.92 6.93 6.93 0 0 1-1.42-1.24 9.52 9.52 0 0 1-1.5-2.38 16.49 16.49 0 1 0-30.55-11.53 16.74 16.74 0 0 0-11 23.62 7.71 7.71 0 0 1-.79 1.13 5.49 5.49 0 0 1-1 .92 7.21 7.21 0 0 1-1.25.67 1.65 1.65 0 0 0 0 3.09c.08 0 .13.08.21.08a4.33 4.33 0 0 0 .42.17 6.24 6.24 0 0 0 1.42.46 12.92 12.92 0 0 0 2.55.38 11.36 11.36 0 0 0 2.63-.21 10.39 10.39 0 0 0 1.46-.33A16.75 16.75 0 0 0 35.6 32.35a15.71 15.71 0 0 0 5.68-2.8 19 19 0 0 0 2.21.54 17.45 17.45 0 0 0 2.55.21 11.67 11.67 0 0 0 2.42-.33 6.8 6.8 0 0 0 1.29-.46c.21-.08.42-.21.63-.29s.16-.13-.01-.21zm-26-14.69a2.17 2.17 0 1 1-2.17 2.17 2.24 2.24 0 0 1 2.17-2.17zm-5.09 28.46a13.54 13.54 0 0 1-8.22-2.75l-.63-.46-.75.25a10.49 10.49 0 0 1-1.84.42 11.58 11.58 0 0 1-2 .17 3.16 3.16 0 0 1-.63 0 4.16 4.16 0 0 0 .58-.63 9.43 9.43 0 0 0 1.63-2.59l.33-.71-.27-.49a13.77 13.77 0 0 1-1.62-4.26 13.61 13.61 0 0 1 3.73-12.16 13.24 13.24 0 0 1 5.3-3.3v.21a16.49 16.49 0 0 0 16.52 16.49 7.52 7.52 0 0 0 1 0 13.63 13.63 0 0 1-13.13 9.81zm12.06-24.12a2.17 2.17 0 1 1 2.17-2.17 2.18 2.18 0 0 1-2.17 2.17zm6.93 0a2.17 2.17 0 1 1 2.17-2.17 2.16 2.16 0 0 1-2.17 2.17zm6.59-2.31a13.5 13.5 0 1 1-13.5-13.5 13.5 13.5 0 0 1 13.5 13.5z"/></svg>