<?xml version="1.0" encoding="UTF-8"?>
<svg width="46px" height="46px" viewBox="0 0 46 46" version="1.1" xmlns="http://www.w3.org/2000/svg" xmlns:xlink="http://www.w3.org/1999/xlink">
    <!-- Generator: Sketch 51.2 (57519) - http://www.bohemiancoding.com/sketch -->
    <desc>Created with Sketch.</desc>
    <defs></defs>
    <g id="PBL-—-Lesson-1" stroke="none" stroke-width="1" fill="none" fill-rule="evenodd">
        <g id="Child/Onboarding-1-Copy-14" transform="translate(-239.000000, -457.000000)">
            <g id="Button-Copy-3" transform="translate(201.000000, 442.000000)" fill-rule="nonzero" stroke="#FFFFFF">
                <circle id="Oval-3" cx="61" cy="38" r="22"></circle>
            </g>
            <path d="M257.014103,488.573221 C257.837257,487.729949 258.469444,487.17476 258.910665,486.907655 C259.965835,486.268879 261.143497,486.036128 261.826271,486.036128 C262.576951,486.036128 263.86676,486.1355 265.176309,486.907655 C265.59539,487.15476 266.201837,487.709948 266.99565,488.573221" id="Path-7" stroke="#FFFFFF"></path>
            <path d="M253.600825,484.889404 C254.965974,483.593652 255.998332,482.751416 256.697899,482.362697 C258.643153,481.281802 260.592995,481.04702 261.807765,481.04702 C263.075961,481.04702 265.084956,481.184634 267.267519,482.362697 C267.958064,482.735426 269.002316,483.577662 270.400274,484.889404" id="Path-8" stroke="#FFFFFF"></path>
            <path d="M250.250324,481.143018 C251.364561,480.078082 252.172058,479.359028 252.672815,478.985855 C253.631372,478.271522 254.577896,477.859469 255.163465,477.562183 C257.846684,476.199946 260.328403,476.016993 261.978856,476.016993 C263.62242,476.016993 266.142601,476.211295 268.810327,477.562183 C269.464107,477.893245 270.468074,478.392549 271.573067,479.236565 C272.019746,479.577748 272.731186,480.213232 273.707388,481.143018" id="Path-10" stroke="#FFFFFF"></path>
            <path d="M246.866841,477.469537 C248.341054,476.124704 249.453045,475.198735 250.202814,474.691631 C251.571614,473.765846 253.250752,473.060008 254.088264,472.672615 C257.068851,471.293936 260.105353,471.006821 262.013849,471.006821 C263.955678,471.006821 267.018392,471.245357 270.070088,472.672615 C270.92242,473.071244 272.467571,473.713807 273.877146,474.691631 C274.59155,475.187213 275.686121,476.113182 277.160858,477.469537" id="Path-6" stroke="#FFFFFF"></path>
        </g>
    </g>
</svg>