<?xml version="1.0" encoding="utf-8"?>
<!-- Generator: Adobe Illustrator 21.1.0, SVG Export Plug-In . SVG Version: 6.00 Build 0)  -->
<svg version="1.1" id="Layer_1" xmlns="http://www.w3.org/2000/svg" xmlns:xlink="http://www.w3.org/1999/xlink" x="0px" y="0px"
	 viewBox="0 0 47.8 50.4" style="enable-background:new 0 0 47.8 50.4;" xml:space="preserve">
<style type="text/css">
	.st0{fill:none;stroke:#232045;}
	.st1{fill:none;stroke:#000000;}
</style>
<title>Overview Icon@3x</title>
<desc>Created with Sketch.</desc>
<g id="Symbols">
	<g id="Navigation_x2F_My-Money-NEW" transform="translate(-39.000000, -31.000000)">
		<g id="Overview-Icon" transform="translate(39.000000, 32.000000)">
			<path id="Combined-Shape" class="st0" d="M44.1,14.8c1.7,3.2,2.7,6.8,2.7,10.7c0,12.6-10.2,22.8-22.8,22.8S1.2,38.1,1.2,25.5
				c0-3.4,0.7-6.6,2-9.4C2.8,15.4,2.3,14.7,2,14C-0.6,8.7,0.4,2.8,4.3,0.9C7.6-0.7,11.8,1,14.6,4.7c2.9-1.3,6-2,9.4-2
				c3,0,5.8,0.6,8.4,1.6c3.1-3.5,7.4-4.8,10.5-3c3.8,2.2,4.4,8.1,1.4,13.2C44.3,14.6,44.2,14.7,44.1,14.8z"/>
			<circle id="Oval-7" class="st1" cx="16.2" cy="13.4" r="1.4"/>
			<circle id="Oval-7_1_" class="st1" cx="31.8" cy="13.4" r="1.4"/>
			<circle id="Oval-8" class="st1" cx="24" cy="26.9" r="7.1"/>
		</g>
	</g>
</g>
</svg>
