<svg width="72" height="72" xmlns="http://www.w3.org/2000/svg" xmlns:xlink="http://www.w3.org/1999/xlink">
  <defs>
    <path id="a" d="M0 .3h23.6V47H0z"/>
  </defs>
  <g transform="translate(1 1)" fill="none" fill-rule="evenodd">
    <circle stroke="#FFF" cx="35" cy="35" r="35"/>
    <g transform="translate(23 11)">
      <mask id="b" fill="#fff">
        <use xlink:href="#a"/>
      </mask>
      <path d="M22.1 29.9a52.7 52.7 0 0 1-20.7 0v-1.6h20.7v1.6zm-3.5 7.3A746 746 0 0 1 17 45c-.4.2-2.2.7-5.2.7-2.5 0-4.6-.7-5.3-1L5 38l-.5-2.8-.7-3.4a49.3 49.3 0 0 0 15.8 0l-1.1 5.4zM5.6 7.8c0-3.4 2.8-6.1 6.2-6.1 3.4 0 6.2 2.7 6.2 6.1 0 3.4-2.8 6.1-6.2 6.1a6.2 6.2 0 0 1-6.2-6zm7 19V15.3a7.6 7.6 0 0 0 6.8-7.5c0-4.2-3.4-7.5-7.6-7.5a7.6 7.6 0 0 0-7.6 7.5c0 4 3 7.2 6.9 7.5v11.5H0v4.3h.6l1.8.4.8 4 .5 2.8 1.4 7c.3 1 4.6 1.7 6.7 1.7 1.8 0 6.2-.2 6.6-1.6l1.6-7.9 1.2-6a84 84 0 0 0 1.8-.3l.6-.1v-4.3h-11z" fill="#FFF" mask="url(#b)"/>
    </g>
    <path d="M26.7 32.2l1.8.3c2.1.2 3.6.4 3.8 3.7-.4.2-1 .2-1.4.2-1.4 0-2.8-.6-3.6-1.7-.5-.7-.7-1.6-.6-2.5m4.2 5.8c1 0 1.8-.2 2.7-.6l.4-.3v-.4c0-5.2-3-5.5-5.3-5.7-.8-.1-1.6-.2-2.1-.5l-1-.5-.3 1c-.6 1.5-.4 3.2.7 4.6 1 1.5 3 2.4 4.9 2.4M43.3 29.2c.1 1 0 1.8-.6 2.5a4.5 4.5 0 0 1-5 1.5c.2-3.3 1.7-3.5 3.8-3.7.6 0 1.2 0 1.8-.3M36 33.7v.4l.4.3a6.2 6.2 0 0 0 7.6-1.8c1-1.4 1.3-3 .7-4.7l-.4-.9-.9.5c-.5.3-1.3.4-2.1.5-2.2.2-5.2.5-5.3 5.7M35.3 24v-1h.3c1.3 0 2.4-.8 2.4-2v-.3c0-1-1-2-2.4-2h-2.4c-.3 0-.7-.2-.7-.6v-.3c0-.3.4-.6.7-.6h4.5v-1.4h-2.4V15h-1.6v.8h-.5c-1.2 0-2.2 1-2.2 2v.3c0 1.2 1 2 2.2 2h2.4c.5 0 .9.3.9.6v.4c0 .3-.4.6-.9.6h-4.3V23h2.4v.9h1.6z" fill="#FFF"/>
  </g>
</svg>