<svg width="72" height="72" xmlns="http://www.w3.org/2000/svg" xmlns:xlink="http://www.w3.org/1999/xlink">
  <defs>
    <path id="a" d="M0 34h34V0H0z"/>
  </defs>
  <g transform="translate(1 1)" fill="none" fill-rule="evenodd">
    <circle stroke="#FFF" cx="35" cy="35" r="35"/>
    <g transform="translate(19 17)">
      <path d="M30.5 30h-27c-2 0-3.5-1.6-3.5-3.5v-17C0 7.5 1.6 6 3.5 6h12v1.4h-12c-1.1 0-2 1-2 2.1v17c0 1.1.9 2 2 2h27c1.1 0 2-.9 2-2V15.9H34v10.6c0 2-1.6 3.5-3.5 3.5" fill="#FFF"/>
      <mask id="b" fill="#fff">
        <use xlink:href="#a"/>
      </mask>
      <path fill="#FFF" mask="url(#b)" d="M10 34h14v-2H10z"/>
      <path fill="#FFF" mask="url(#b)" d="M12 33h2v-4h-2zM20 33h2v-4h-2zM25.5 1.4a7 7 0 1 0 0 14.2 7 7 0 0 0 0-14.2m0 15.6a8.5 8.5 0 1 1 0-17 8.5 8.5 0 0 1 0 17"/>
      <path d="M25.8 9h-1.6C23 9 22 8.1 22 7s1-2 2.3-2h1.4C27 5 28 5.9 28 7h-1.5c0-.4-.3-.7-.8-.7h-1.4c-.5 0-.8.3-.8.7 0 .4.3.7.8.7h1.4V9z" fill="#FFF" mask="url(#b)"/>
      <path d="M25.8 12h-1.6c-1.2 0-2.2-.9-2.2-2h1.5c0 .4.3.7.8.7h1.4c.5 0 .8-.3.8-.7 0-.4-.3-.7-.8-.7h-1.4V8h1.4c1.3 0 2.3.9 2.3 2s-1 2-2.3 2M24 6h2V4h-2z" fill="#FFF" mask="url(#b)"/>
      <path fill="#FFF" mask="url(#b)" d="M24 13h2v-2h-2zM5.9 24H3v-1.3h2.6l5.6-5c.2-.3.7-.3 1 0l3.4 3L22 15l1 1-6.9 6.2c-.2.2-.7.2-1 0L11.7 19l-5.3 4.8-.5.2M29.2 27H28v-1.2h1.2c.3 0 .6-.3.6-.6V24H31v1.2c0 1-.8 1.8-1.8 1.8M24 27h2v-2h-2zM4.2 12H3v-1.2C3 9.8 3.8 9 4.8 9H6v1.2H4.8c-.3 0-.6.3-.6.6V12zM7 10h2V8H7z"/>
    </g>
  </g>
</svg>