<svg id="Layer_1" xmlns="http://www.w3.org/2000/svg" viewBox="0 0 101.3 95.3"><style>.st0{fill:none;stroke:#fff;stroke-width:3;stroke-miterlimit:10}</style><circle class="st0" cx="44.3" cy="32.1" r="18.8"/><path class="st0" d="M76.6 75.1c-3.7-10.3-12-18.4-22.6-21.4-.4-.1-.7-.1-1 .1-2.6 1.4-5.5 2.2-8.7 2.2-3.2 0-6.1-.8-8.7-2.2-.3-.2-.6-.2-1-.1C24 56.7 15.7 64.8 12 75.1 10.9 78 13 81 16.1 81h56.5c3 0 5.1-3.1 4-5.9z"/><path d="M80.6 46.1h10.8v2.7H80.6v11.8h-3V48.9H67v-2.7h10.6V34.7h3v11.4z" fill="#fff"/></svg>